<?xml version="1.0" standalone="no"?>
<!DOCTYPE svg PUBLIC "-//W3C//DTD SVG 1.1//EN" "http://www.w3.org/Graphics/SVG/1.1/DTD/svg11.dtd" >
<svg xmlns="http://www.w3.org/2000/svg">
<metadata>
This is a custom SVG webfont generated by Font Squirrel.
Copyright   : Copyright c Christian Schwartz 2007 All rights reserved
Designer    : Christian Schwartz
Foundry     : Schwartzco Inc
Foundry URL : httpchristianschwartzcom
</metadata>
<defs>
<font id="StagSansBlackItalic" horiz-adv-x="1593" >
<font-face units-per-em="2048" ascent="1638" descent="-410" />
<missing-glyph horiz-adv-x="296" />
<glyph unicode=" "  horiz-adv-x="296" />
<glyph unicode="&#x09;" horiz-adv-x="296" />
<glyph unicode="&#xa0;" horiz-adv-x="296" />
<glyph unicode="!" horiz-adv-x="708" d="M49 205q0 104 75 177t187 73q98 0 168 -63.5t70 -158.5q0 -104 -77 -176.5t-187 -72.5q-100 0 -168 63.5t-68 157.5zM176 506l39 620l72 308h561l-72 -308l-264 -620h-336z" />
<glyph unicode="&#x22;" horiz-adv-x="1015" d="M176 852l29 348l53 234h426l-53 -234l-139 -348h-316zM668 852l28 348l54 234h426l-54 -234l-139 -348h-315z" />
<glyph unicode="#" horiz-adv-x="1167" d="M20 348l74 326h152l37 135h-142l74 326h156l82 299h311l-82 -299h113l82 299h311l-82 -299h129l-74 -326h-143l-37 -135h133l-74 -326h-147l-94 -348h-312l95 348h-113l-94 -348h-312l95 348h-138zM557 674h113l37 135h-113z" />
<glyph unicode="$" horiz-adv-x="1210" d="M-29 135l68 297h242q88 -80 229 -80q127 0 127 66q0 14 -8 24.5t-38 21.5t-53 17l-83 23q-166 45 -252 132t-86 253q0 246 139 381t379 162l37 153h329l-38 -160q174 -27 299 -108l-70 -303h-238q-88 70 -206 69q-113 0 -113 -65q0 -29 33.5 -46.5t117.5 -37.5 q215 -59 305.5 -147.5t90.5 -247.5q0 -215 -139.5 -357.5t-389.5 -175.5l-49 -215h-330l50 217q-222 29 -353 127z" />
<glyph unicode="%" horiz-adv-x="1959" d="M131 985q0 209 144.5 338t338.5 129q166 0 272.5 -88t106.5 -248q0 -207 -140 -338t-339 -131q-172 0 -277.5 87t-105.5 251zM233 -70l1289 1563h290l-1288 -1563h-291zM475 960.5q0 -69.5 55 -69.5q53 0 86 88t33 158q0 72 -51 71q-57 0 -90 -89t-33 -158.5zM1063 317 q0 209 144.5 338t338.5 129q166 0 272.5 -88t106.5 -247q0 -207 -140 -338t-339 -131q-172 0 -277.5 86.5t-105.5 250.5zM1407 292.5q0 -69.5 55 -69.5q53 0 86 88t33 158q0 72 -51 72q-57 0 -90 -89.5t-33 -159z" />
<glyph unicode="&#x26;" horiz-adv-x="1607" d="M8 379q0 346 404 446q-27 68 -27 138q0 221 164 358t434 137q285 0 438 -108l-65 -291h-234q-33 37 -92 37q-41 0 -66.5 -24.5t-25.5 -63.5q0 -57 66 -156l124 -190q90 111 121 204h328v-170q-84 -190 -240 -352l156 -233v-111h-532l-39 61q-176 -82 -373 -81 q-262 0 -401.5 110.5t-139.5 288.5zM516 457q0 -57 38 -94t108 -37q45 0 73 14l-164 240q-55 -43 -55 -123z" />
<glyph unicode="'" horiz-adv-x="524" d="M176 852l29 348l53 234h426l-53 -234l-139 -348h-316z" />
<glyph unicode="(" horiz-adv-x="802" d="M68 518q0 338 189 612.5t519 387.5h221l-67 -297q-172 -78 -275.5 -299.5t-103.5 -452.5q0 -119 33.5 -186.5t103.5 -108.5l-63 -274h-201q-356 190 -356 618z" />
<glyph unicode=")" horiz-adv-x="802" d="M-109 -100l68 293q172 78 275.5 301t103.5 454q0 119 -34 186.5t-103 108.5l63 275h201q356 -190 356 -619q0 -340 -185 -613.5t-513 -385.5h-232z" />
<glyph unicode="*" horiz-adv-x="929" d="M141 1030l154 311l102 -47l109 -127l-43 166l16 101h344l-26 -138l-99 -147l148 104l117 25l47 -336l-113 -24l-156 30l129 -98l52 -94l-306 -172l-53 98l-10 174l-66 -168l-84 -80l-237 228l82 84l153 59l-161 2z" />
<glyph unicode="+" horiz-adv-x="1132" d="M43 508l92 399h303l76 328h434l-76 -328h302l-93 -399h-301l-75 -328h-435l76 328h-303z" />
<glyph unicode="," horiz-adv-x="544" d="M-141 -256l43 199q174 14 174 80q0 10 -6.5 19t-12.5 15t-21.5 17.5t-21.5 17.5q-66 55 -65 150q0 88 68.5 150.5t175.5 62.5q117 0 187.5 -69t70.5 -187q0 -207 -151.5 -328t-440.5 -127z" />
<glyph unicode="-" horiz-adv-x="653" d="M8 391l84 367h576l-84 -367h-576z" />
<glyph unicode="." horiz-adv-x="544" d="M-43 205q0 104 74.5 177t187.5 73q98 0 168 -63.5t70 -158.5q0 -104 -77 -176.5t-187 -72.5q-100 0 -168 63.5t-68 157.5z" />
<glyph unicode="/" horiz-adv-x="841" d="M-111 -6l805 1524h348v-95l-804 -1523h-349v94z" />
<glyph unicode="0" horiz-adv-x="1474" d="M66 563q0 242 93 441.5t283.5 325.5t444.5 126q281 0 443.5 -160.5t162.5 -433.5q0 -176 -54.5 -335.5t-154.5 -282.5t-258 -196t-352 -73q-264 0 -436 156t-172 432zM606 512q0 -166 107 -166q70 0 126 102.5t82.5 227.5t26.5 227q0 84 -22.5 118t-71.5 34 q-72 0 -132 -99.5t-88 -221.5t-28 -222z" />
<glyph unicode="1" horiz-adv-x="915" d="M119 864l96 414l383 156h432l-330 -1434h-565l215 936l-149 -72h-82z" />
<glyph unicode="2" horiz-adv-x="1202" d="M-74 0l94 414l386 266q188 129 229 174q55 55 55 111q0 80 -115 79q-92 0 -178 -69h-233l90 383q227 100 479 100q102 0 190.5 -18.5t169.5 -61.5t128 -123.5t47 -193.5q0 -98 -32 -181t-96.5 -150.5t-129 -116t-158.5 -105.5l-182 -109h444l-92 -399h-1096z" />
<glyph unicode="3" horiz-adv-x="1177" d="M-68 100l72 308h211q84 -63 193 -64q72 0 114.5 31t42.5 82q0 47 -31.5 67.5t-103.5 20.5h-123l76 329h119q166 0 166 105q0 86 -140 86q-98 0 -176 -41h-200l81 352q184 84 449 84q254 0 393 -94t139 -279q0 -299 -337 -380v-7q133 -31 193 -99.5t60 -186.5 q0 -199 -173 -320t-470 -121q-344 0 -555 127z" />
<glyph unicode="4" horiz-adv-x="1333" d="M-12 287l88 381l778 766h530l-186 -809h115l-78 -338h-115l-65 -287h-557l65 287h-575zM455 625h211l65 288h-8l-268 -280v-8z" />
<glyph unicode="5" horiz-adv-x="1202" d="M-68 98l72 316h225q80 -57 199 -58q178 0 178 136q0 41 -28.5 65.5t-79.5 24.5q-78 0 -142 -50h-286l206 902h996l-92 -398h-607l-47 -209h6q119 90 277 91q174 0 273.5 -99.5t99.5 -271.5q0 -279 -198 -425.5t-499 -146.5q-367 0 -553 123z" />
<glyph unicode="6" horiz-adv-x="1372" d="M61 549q0 238 94.5 427t256.5 312q227 172 596 172q293 0 454 -106l-80 -353h-221q-63 45 -164 46q-172 0 -254 -101q-45 -59 -75 -125q143 96 309 97q168 0 272.5 -101.5t104.5 -273.5q0 -260 -190.5 -414t-483.5 -154q-619 1 -619 574zM584 430q0 -113 86 -113 q51 0 90 49.5t39 131.5q0 98 -123 98q-27 0 -80 -14q-12 -78 -12 -152z" />
<glyph unicode="7" horiz-adv-x="1155" d="M49 0v117l688 882v9h-587l98 426h1069l-103 -441l-604 -993h-561z" />
<glyph unicode="8" horiz-adv-x="1366" d="M8 389q0 158 87 247t253 136v8q-156 82 -155 254q0 188 169.5 306t452.5 118q266 0 428 -106.5t162 -290.5q0 -246 -291 -326v-8q203 -82 203 -283q0 -215 -173 -343t-501 -128q-123 0 -232.5 23.5t-201.5 72t-146.5 130t-54.5 190.5zM553 416q0 -45 24.5 -73t73.5 -28 q61 0 100.5 56.5t39.5 132.5q0 100 -99 100q-63 0 -101 -55t-38 -133zM688 973q0 -84 86 -84q49 0 81 43t32 102q0 84 -84 84q-51 0 -83 -43t-32 -102z" />
<glyph unicode="9" horiz-adv-x="1384" d="M8 78l78 346h205q78 -43 176 -43q102 0 163.5 20.5t104.5 79.5q39 55 68 135q-135 -111 -326 -110q-164 0 -268.5 97t-104.5 265q0 272 201 431t492 159q285 0 443.5 -145.5t158.5 -423.5q0 -426 -266 -686q-229 -229 -656 -230q-297 1 -469 105zM643 924q0 -98 123 -99 q31 0 84 15q8 102 8 151q0 113 -86 113q-51 0 -90 -49t-39 -131z" />
<glyph unicode=":" horiz-adv-x="552" d="M-45 205q0 104 74.5 177t187.5 73q98 0 168 -63.5t70 -158.5q0 -104 -77 -176.5t-188 -72.5q-100 0 -167.5 63.5t-67.5 157.5zM78 754q0 104 74.5 177t187.5 73q98 0 168 -63.5t70 -158.5q0 -104 -77 -177t-188 -73q-100 0 -167.5 64t-67.5 158z" />
<glyph unicode=";" horiz-adv-x="555" d="M-131 -256l43 199q174 14 174 80q0 10 -6 19t-12.5 15t-21.5 17.5t-21 17.5q-66 55 -66 150q0 88 68.5 150.5t175.5 62.5q117 0 187.5 -69t70.5 -187q0 -207 -151.5 -328t-440.5 -127zM72 754q0 104 74.5 177t187.5 73q98 0 167.5 -63.5t69.5 -158.5q0 -104 -76.5 -177 t-187.5 -73q-100 0 -167.5 64t-67.5 158z" />
<glyph unicode="&#x3c;" horiz-adv-x="956" d="M41 520l84 365l836 317h92l-99 -422l-338 -106v-6l283 -129l-90 -394h-92z" />
<glyph unicode="=" horiz-adv-x="1030" d="M-20 231l81 359h936l-82 -359h-935zM78 662l82 358h936l-82 -358h-936z" />
<glyph unicode="&#x3e;" horiz-adv-x="956" d="M-33 145l99 422l337 107v6l-282 129l90 393h92l676 -375l-84 -364l-836 -318h-92z" />
<glyph unicode="?" horiz-adv-x="1036" d="M117 205q0 104 74.5 177t187.5 73q98 0 167.5 -63.5t69.5 -158.5q0 -104 -76.5 -176.5t-187.5 -72.5q-100 0 -167.5 63.5t-67.5 157.5zM143 1022l78 338q180 98 441 98q238 0 356.5 -94t118.5 -250q0 -178 -90.5 -270t-268.5 -166q-160 -66 -174 -172h-389v11 q0 124 45 204q47 84 141 147q31 20 73 44l62 35q19 11 34.5 29.5t15.5 39.5q0 55 -90 55q-88 0 -158 -49h-195z" />
<glyph unicode="@" horiz-adv-x="1826" d="M43 465q0 213 88 389t230.5 285.5t310.5 168t338 58.5q352 0 577 -180t225 -488q0 -281 -164.5 -423t-404.5 -142q-137 0 -204.5 35t-102.5 98q-123 -123 -272 -123q-106 0 -171 76t-65 217q0 199 124 344.5t306 145.5q123 0 203 -95q29 43 59.5 61.5t83.5 18.5h244 l-105 -462q-7 -27 -6 -47q0 -46 37 -46q78 0 146.5 87t68.5 251q0 225 -153.5 352.5t-444.5 127.5q-133 0 -257 -44.5t-226 -128t-164.5 -222t-62.5 -310.5q0 -272 172 -411.5t454.5 -139.5t505.5 133h84l-47 -194q-223 -131 -567 -131q-172 0 -320.5 45t-266.5 133 t-185.5 232.5t-67.5 328.5zM831 479q0 -74 60 -73q16 0 33 4l57 249q-12 6 -31 7q-51 0 -85 -57.5t-34 -129.5z" />
<glyph unicode="A" horiz-adv-x="1544" d="M-70 0v109l719 1325h654l124 -1325v-109h-559l-6 231h-387l-113 -231h-432zM657 602h199l-8 375h-6z" />
<glyph unicode="B" horiz-adv-x="1402" d="M-29 0l330 1434h594q274 0 406.5 -89.5t132.5 -244.5q0 -162 -87 -243t-233 -114v-8q248 -51 248 -268q0 -162 -97.5 -269.5t-253 -152.5t-364.5 -45h-676zM600 319h62q66 0 108.5 40t42.5 128q0 90 -104 91h-50zM727 874h39q143 0 143 146q0 84 -92 84h-37z" />
<glyph unicode="C" horiz-adv-x="1378" d="M57 573q0 178 62.5 337t179.5 282t301 194.5t412 71.5q293 0 481 -106l-80 -353h-239q-68 68 -195 68q-113 0 -195 -85t-115.5 -196.5t-33.5 -226.5q0 -207 205 -207q123 0 217 86h229l-82 -366q-188 -96 -461 -97q-145 0 -266 33t-217 102.5t-149.5 187t-53.5 275.5z " />
<glyph unicode="D" horiz-adv-x="1556" d="M-29 0l330 1434h604q322 0 490 -149.5t168 -424.5q0 -389 -240 -624.5t-688 -235.5h-664zM618 356h52q154 0 240.5 147.5t86.5 373.5q0 98 -42 142t-136 44h-39z" />
<glyph unicode="E" horiz-adv-x="1263" d="M-29 0l330 1434h1075l-86 -373h-510l-39 -168h351l-80 -348h-350l-41 -183h540l-84 -362h-1106z" />
<glyph unicode="F" horiz-adv-x="1241" d="M-29 0l330 1434h1075l-86 -373h-510l-51 -219h391l-82 -361h-391l-110 -481h-566z" />
<glyph unicode="G" horiz-adv-x="1472" d="M59 547q0 256 106.5 458.5t328 327.5t526.5 125q324 0 522 -108l-82 -353h-260q-84 68 -205 68q-117 0 -202.5 -90t-122.5 -212t-37 -253q0 -176 149 -176q55 0 76 8l35 154h-105l70 305h621l-170 -735q-246 -90 -539 -91q-711 1 -711 572z" />
<glyph unicode="H" horiz-adv-x="1552" d="M-29 0l330 1434h565l-116 -510h237l117 510h565l-330 -1434h-565l119 522h-238l-118 -522h-566z" />
<glyph unicode="I" horiz-adv-x="765" d="M-20 0l329 1434h565l-329 -1434h-565z" />
<glyph unicode="J" horiz-adv-x="1136" d="M-70 102l78 334h217q43 -51 125 -51q111 0 133 100l219 949h566l-230 -994q-106 -461 -686 -460q-291 -1 -422 122z" />
<glyph unicode="K" horiz-adv-x="1574" d="M-29 0l330 1434h565l-110 -484l420 484h532v-91l-506 -524l240 -729v-90h-559l-154 473l-106 -96l-86 -377h-566z" />
<glyph unicode="L" horiz-adv-x="1200" d="M-29 0l330 1434h565l-243 -1061h485l-86 -373h-1051z" />
<glyph unicode="M" horiz-adv-x="1931" d="M-29 0l330 1434h678l22 -611h7l307 611h733l-330 -1434h-544l184 805h-6l-408 -805h-305l-35 805h-6l-184 -805h-443z" />
<glyph unicode="N" horiz-adv-x="1521" d="M-29 0l330 1434h565l166 -641h6l148 641h452l-329 -1434h-525l-190 713h-6l-164 -713h-453z" />
<glyph unicode="O" d="M57 565q0 174 59.5 335t169 286t277.5 199.5t371 74.5q313 0 489 -166t176 -442q0 -233 -104 -431t-308 -322t-468 -124q-285 0 -473.5 148.5t-188.5 441.5zM621 539q0 -186 133 -187q74 0 131 57.5t89 142.5t47 169t15 153q0 94 -34.5 141.5t-92.5 47.5 q-76 0 -134 -57.5t-90 -143.5t-48 -169.5t-16 -153.5z" />
<glyph unicode="P" horiz-adv-x="1394" d="M-29 0l330 1434h588q299 0 437 -98.5t138 -313.5q0 -281 -187 -429.5t-527 -148.5h-111l-102 -444h-566zM705 788h69q72 0 112 57.5t40 141.5q0 100 -95 100h-57z" />
<glyph unicode="Q" d="M57 565q0 174 59.5 335t169 286t277.5 199.5t371 74.5q311 0 488 -162.5t177 -429.5q0 -254 -122.5 -424t-335.5 -239v-6l372 -39l-92 -391h-135l-588 159q-147 39 -255.5 88.5t-199.5 123t-138.5 180t-47.5 245.5zM621 539q0 -199 133 -199q74 0 131 58.5t89 146.5 t47 174t15 155q0 94 -34.5 141.5t-92.5 47.5q-76 0 -134 -57.5t-90 -143.5t-48 -169.5t-16 -153.5z" />
<glyph unicode="R" horiz-adv-x="1472" d="M-29 0l330 1434h621q299 0 437 -97.5t138 -312.5q0 -319 -293 -463l164 -452v-109h-528l-150 473h-45l-108 -473h-566zM709 786h86q76 0 114.5 53.5t38.5 137.5q0 100 -96 100h-74z" />
<glyph unicode="S" horiz-adv-x="1245" d="M-37 113l72 319h250q82 -78 239 -78q125 0 125 62q0 27 -34.5 43t-143.5 45q-174 47 -257 138t-83 257q0 285 178 424t489.5 139t524.5 -131l-76 -319h-246q-86 76 -231 75q-113 0 -113 -59q0 -29 33 -44t125 -40q215 -59 307 -154.5t92 -240.5q0 -266 -186 -420 t-512 -154q-367 1 -553 138z" />
<glyph unicode="T" horiz-adv-x="1306" d="M180 1051l88 383h1186l-88 -383h-309l-242 -1051h-565l242 1051h-312z" />
<glyph unicode="U" horiz-adv-x="1501" d="M88 399.5q0 98.5 25 229.5l184 805h565l-200 -879q-10 -42 -11 -74q0 -39 16 -61q28 -41 113 -41q72 0 109 33.5t57 115.5l207 906h469l-215 -930q-66 -281 -229.5 -400.5t-456.5 -119.5q-106 0 -192.5 11t-169.5 39.5t-137 76t-94 119t-40 170z" />
<glyph unicode="V" horiz-adv-x="1513" d="M213 1325v109h563l31 -809h6l397 809h465v-109l-721 -1325h-620z" />
<glyph unicode="W" horiz-adv-x="2076" d="M217 1325v109h561l-30 -723h6l307 723h409l7 -723h6l291 723h462v-109l-612 -1325h-545l-10 616h-6l-287 -616h-536z" />
<glyph unicode="X" horiz-adv-x="1525" d="M-68 0v109l490 626l-189 590v109h568l102 -392l271 392h483v-109l-459 -580l207 -636v-109h-569l-123 432l-299 -432h-482z" />
<glyph unicode="Y" horiz-adv-x="1433" d="M203 1325v109h534l105 -447h6l291 447h460v-109l-604 -846l-110 -479h-566l115 500z" />
<glyph unicode="Z" horiz-adv-x="1277" d="M-53 0l88 383l649 666v8h-463l86 377h1112l-92 -404l-649 -645v-8h498l-86 -377h-1143z" />
<glyph unicode="[" horiz-adv-x="741" d="M-53 -100l375 1618h608l-76 -328h-147l-224 -963h148l-76 -327h-608z" />
<glyph unicode="\" horiz-adv-x="882" d="M215 1423v95h358l185 -1524v-94h-359z" />
<glyph unicode="]" horiz-adv-x="741" d="M-104 -100l75 327h148l223 963h-147l75 328h609l-375 -1618h-608z" />
<glyph unicode="^" horiz-adv-x="974" d="M123 922v94l358 418h385l195 -418v-94h-377l-68 131h-6l-127 -131h-360z" />
<glyph unicode="_" horiz-adv-x="825" d="M-193 -332l70 303h832l-70 -303h-832z" />
<glyph unicode="`" horiz-adv-x="819" d="M213 1364v90h442l88 -235v-76h-321z" />
<glyph unicode="a" horiz-adv-x="1241" d="M-12 252q0 381 508 381q47 0 172 -15q3 16 2 31q0 41 -22 62q-30 29 -107 28q-117 0 -207 -41h-176l78 334q211 74 481 74q289 0 415 -113q89 -79 88 -216q0 -58 -16 -126l-149 -651h-264q-160 0 -201 125q-129 -141 -309 -141q-129 0 -211 72.5t-82 195.5zM489 319 q0 -59 54 -59q23 0 45 12l35 152q-20 6 -52 6q-82 0 -82 -111z" />
<glyph unicode="b" horiz-adv-x="1333" d="M-49 0l330 1434h305q125 0 163 -51q20 -26 19 -79q0 -49 -16 -122l-54 -232q141 156 326 156q133 0 217 -93t84 -292q0 -197 -61.5 -361.5t-195.5 -273.5t-318 -109q-217 0 -301 144q-88 -121 -203 -121h-295zM549 307q20 -10 59 -10q78 0 123 91t45 228q0 66 -27.5 89.5 t-84.5 23.5q-12 0 -19 -2z" />
<glyph unicode="c" horiz-adv-x="1085" d="M25 426q0 311 212 495.5t531 184.5q221 0 381 -82l-74 -317h-184q-37 41 -107 41q-104 0 -163.5 -86.5t-59.5 -202.5q0 -141 129 -142q82 0 141 54h177l-72 -314q-123 -78 -350 -77q-279 0 -420 117.5t-141 328.5z" />
<glyph unicode="d" horiz-adv-x="1331" d="M20 373q0 188 62.5 354t187.5 272.5t287 106.5q190 0 285 -129l106 457h305q125 0 163 -51q20 -26 20 -79q0 -49 -17 -122l-272 -1182h-264q-190 0 -207 152q-117 -174 -316 -175q-141 0 -240.5 96.5t-99.5 299.5zM563 416q0 -104 107 -105h18l98 420q-25 8 -55 8 q-80 0 -124 -103t-44 -220z" />
<glyph unicode="e" horiz-adv-x="1224" d="M217 921q188 183 500 185h8q213 0 350 -102q137 -103 137 -330v-6q-4 -131 -36 -240h-631q6 -66 45 -94.5t125 -28.5q117 0 229 45h170l-65 -276q-170 -94 -435 -94q-287 0 -438 117q-150 116 -149 335q0 304 190 489zM567 651h178q4 25 5 49q0 51 -12.5 73t-49.5 22 q-82 -1 -121 -144z" />
<glyph unicode="f" horiz-adv-x="798" d="M0 0l176 768h-94l74 317h94l6 27q45 197 166 275.5t336 78.5q129 0 235 -32l-61 -269h-37q-61 0 -84 -14t-33 -57l-2 -9h133l-73 -317h-131l-177 -768h-528z" />
<glyph unicode="g" horiz-adv-x="1331" d="M-59 -266l73 321h170q94 -49 209 -49q225 0 252 117l17 70q-100 -104 -289 -105q-141 0 -239.5 90t-98.5 277q0 270 150.5 460.5t389.5 190.5q193 0 295 -160q94 139 250 139h277l-228 -989q-53 -229 -235 -336.5t-498 -107.5q-305 0 -495 82zM578 487q0 -111 102 -110 h25l81 352q-20 10 -51 10q-76 0 -116.5 -81t-40.5 -171z" />
<glyph unicode="h" horiz-adv-x="1337" d="M-49 0l330 1434h305q125 0 162.5 -50.5t3.5 -201.5l-60 -256q174 180 379 180q137 0 210 -92t28 -287l-168 -727h-389q-72 0 -96.5 43t-0.5 145l95 402q12 57 -6.5 82.5t-84.5 25.5h-20l-160 -698h-528z" />
<glyph unicode="i" horiz-adv-x="671" d="M-41 0l250 1085h307q127 0 163 -46q19 -25 19 -75q0 -43 -14 -104l-197 -860h-528zM250 1288q0 109 74.5 173.5t197.5 64.5q109 0 174.5 -49.5t65.5 -135.5q0 -106 -77 -168.5t-198 -62.5q-109 0 -173 47t-64 131z" />
<glyph unicode="j" horiz-adv-x="671" d="M-254 -311l59 262h45q59 0 81 14.5t32 57.5l246 1062h307q127 0 163 -46q19 -25 19 -75q0 -43 -14 -104l-197 -858q-43 -195 -159.5 -273.5t-309.5 -78.5q-159 0 -272 39zM250 1288q0 109 74.5 173.5t197.5 64.5q109 0 174.5 -49.5t65.5 -135.5q0 -106 -77 -168.5 t-198 -62.5q-109 0 -173 47t-64 131z" />
<glyph unicode="k" horiz-adv-x="1329" d="M-49 0l330 1434h305q125 0 162.5 -50.5t3.5 -201.5l-93 -402l269 305h454v-108l-348 -361l183 -516v-100h-508l-107 313l-67 -67l-56 -246h-528z" />
<glyph unicode="l" horiz-adv-x="663" d="M-49 0l330 1434h305q125 0 162.5 -50.5t3.5 -201.5l-273 -1182h-528z" />
<glyph unicode="m" horiz-adv-x="1949" d="M-49 0l250 1085h264q102 0 151.5 -39.5t49.5 -146.5q92 102 184 154.5t215 52.5q98 0 161.5 -54.5t73.5 -158.5q94 104 187.5 158.5t218.5 54.5q133 0 200.5 -92t22.5 -287l-168 -727h-389q-72 0 -96.5 43t0.5 145l94 402q12 57 -2 82.5t-70 25.5h-16l-162 -698h-528 l137 590q12 57 -2 82.5t-70 25.5h-18q0 -2 -1 -6t-1 -6l-158 -686h-528z" />
<glyph unicode="n" horiz-adv-x="1327" d="M-49 0l250 1085h264q102 0 151.5 -40.5t49.5 -147.5q92 102 187 155.5t218 53.5q137 0 210 -92t28 -287l-168 -727h-389q-72 0 -96.5 43t-0.5 145l95 402q12 57 -6.5 82.5t-84.5 25.5h-20q0 -2 -1 -6t-1 -6l-158 -686h-528z" />
<glyph unicode="o" horiz-adv-x="1284" d="M25 451q0 274 181 464.5t511 190.5q256 0 405.5 -125t149.5 -348q0 -276 -180.5 -464.5t-509.5 -188.5q-258 0 -407.5 123t-149.5 348zM541 387q0 -98 63 -98q66 0 107 125t41 254q0 98 -60 98q-70 0 -110.5 -124t-40.5 -255z" />
<glyph unicode="p" horiz-adv-x="1333" d="M-127 -332l328 1417h264q96 0 145 -36.5t56 -130.5q150 188 352 188q137 0 222 -95.5t85 -293.5q0 -295 -151.5 -503t-419.5 -208q-170 0 -258 74l-95 -412h-528zM553 324q20 -10 57 -11q78 0 122 85t44 218q0 66 -27.5 89.5t-84.5 23.5q-12 0 -19 -2l-8 -41z" />
<glyph unicode="q" horiz-adv-x="1331" d="M20 389q0 182 63.5 343t193 267.5t298.5 106.5q195 0 295 -162q92 141 250 141h277l-328 -1417h-528l102 449q-96 -111 -276 -111q-143 0 -245 92t-102 291zM563 420q0 -111 103 -111h22l98 420q-20 10 -51 10q-84 0 -128 -101t-44 -218z" />
<glyph unicode="r" horiz-adv-x="970" d="M-49 0l250 1085h264q106 0 155.5 -44t45.5 -158q86 111 163.5 160t174.5 49q33 0 59 -7l-100 -432h-41q-172 0 -299 -30l-144 -623h-528z" />
<glyph unicode="s" horiz-adv-x="1038" d="M-59 80l63 278h199q76 -68 215 -67q84 0 84 33q0 14 -15.5 21t-74.5 22l-64 16q-143 37 -214 103.5t-71 199.5q0 215 148.5 317.5t394.5 102.5q270 0 451 -84l-64 -272h-194q-80 57 -189 57q-78 0 -78 -33q0 -18 25 -26.5t117 -28.5q162 -35 237.5 -100.5t75.5 -202.5 q0 -215 -148.5 -324.5t-408.5 -109.5q-313 0 -489 98z" />
<glyph unicode="t" horiz-adv-x="845" d="M67 229q3 61 17 144l92 395h-94l74 317h94l57 250h529l-58 -250h152l-74 -317h-151l-80 -350q-8 -34 -8.5 -57.5t8.5 -36.5q16 -27 73 -27h54l-68 -291q-115 -31 -246 -31q-66 0 -118 6.5t-102 24t-79.5 46t-52.5 72.5q-20 39 -20 91q1 7 1 14z" />
<glyph unicode="u" horiz-adv-x="1327" d="M25 358l168 727h387q72 0 96 -43q12 -22 12 -58t-12 -87l-101 -436q-5 -25 -5 -44q0 -25 10 -39q16 -26 77 -26h29l168 733h528l-249 -1085h-263q-190 0 -211 168q-176 -188 -383 -188q-143 0 -220 92q-48 58 -48 157q0 57 17 129z" />
<glyph unicode="v" horiz-adv-x="1273" d="M133 989v96h516l25 -516h6l242 516h448v-96l-573 -989h-529z" />
<glyph unicode="w" horiz-adv-x="1800" d="M135 983v102h516l-12 -487h6l229 487h361l4 -487h6l215 487h430v-102l-512 -983h-477l-14 424h-6l-215 -424h-471z" />
<glyph unicode="x" horiz-adv-x="1314" d="M-80 0v102l383 484l-164 397v102h525l73 -260l174 260h432v-102l-323 -420l176 -461v-102h-524l-86 276l-201 -276h-465z" />
<glyph unicode="y" horiz-adv-x="1273" d="M57 -236l217 308l-141 917v96h514l35 -462h8l236 462h444v-96l-803 -1321h-510v96z" />
<glyph unicode="z" horiz-adv-x="1114" d="M-74 0l80 346l479 387h-379l82 352h1020l-82 -356l-481 -387h395l-77 -342h-1037z" />
<glyph unicode="{" horiz-adv-x="823" d="M49 561l76 328h41q115 0 141 112l45 201q39 168 138.5 242t279.5 74h242l-76 -328h-76q-49 0 -63 -55l-43 -187q-39 -170 -260 -231l-2 -6q111 -23 142 -82q19 -36 19 -84q0 -31 -8 -66l-45 -196q-2 -9 -2 -17q0 -39 45 -39h70l-76 -327h-201q-172 0 -256 96 q-56 65 -56 164q0 49 13 106l37 160q6 29 7 51q0 84 -91 84h-41z" />
<glyph unicode="|" horiz-adv-x="649" d="M186 -100v1618h367v-1618h-367z" />
<glyph unicode="}" horiz-adv-x="823" d="M-104 -100l75 327h76q49 0 64 56l45 196q39 170 260 232l2 6q-197 45 -154 231l43 187q10 55 -43 55h-69l75 328h201q172 0 256 -96.5t43 -270.5l-35 -150q-31 -135 84 -135h41l-76 -327h-41q-115 0 -141 -113l-47 -211q-39 -168 -138.5 -241.5t-279.5 -73.5h-241z" />
<glyph unicode="~" horiz-adv-x="901" d="M20 524q33 131 118 212t194 81q57 0 145 -21.5t111 -21.5q49 0 69 49h242v-143q-35 -131 -119 -212t-192 -81q-55 0 -144.5 21.5t-111.5 21.5q-47 0 -72 -49h-240v143z" />
<glyph unicode="&#xa1;" horiz-adv-x="708" d="M-72 -123l72 307l264 621h336l-39 -621l-72 -307h-561zM227 1077q0 104 77 177t188 73q100 0 167.5 -63.5t67.5 -157.5q0 -104 -74.5 -177t-187.5 -73q-98 0 -168 63.5t-70 157.5z" />
<glyph unicode="&#xa2;" horiz-adv-x="1095" d="M25 426q0 262 155.5 437t407.5 224l37 160h329l-36 -151q135 -18 241 -72l-74 -317h-184q-37 41 -110 41q-106 0 -168 -86.5t-62 -202.5q0 -141 135 -142q86 0 146 54h176l-72 -314q-102 -66 -299 -75l-43 -191h-330l52 223q-301 99 -301 412z" />
<glyph unicode="&#xa3;" horiz-adv-x="1214" d="M-76 0l76 330q164 53 205 211h-146l74 311h82q-4 40 -4 78q0 76 16 145q41 178 201 280.5t430 102.5q313 0 477 -121l-82 -354h-235q-49 59 -146 59q-115 0 -143 -122q-8 -35 -12 -68h313l-74 -311h-286q-33 -80 -111 -142h586l-92 -399h-1129z" />
<glyph unicode="&#xa5;" horiz-adv-x="1370" d="M37 279l53 227h322l14 61h-324l54 228h223l-166 530v109h528l78 -396h6l240 396h469v-109l-399 -530h217l-54 -228h-321l-14 -61h323l-53 -227h-322l-63 -279h-553l63 279h-321z" />
<glyph unicode="&#xa6;" horiz-adv-x="649" d="M186 -100v731h367v-731h-367zM186 784v734h367v-734h-367z" />
<glyph unicode="&#xa7;" horiz-adv-x="1265" d="M2 -158l64 264h184q25 -33 97.5 -57t152.5 -24q84 0 84 41q0 20 -27 33.5t-115 41.5q-215 68 -308 151t-93 218q0 236 246 338q-49 66 -49 164q0 209 148.5 326.5t414.5 117.5q272 0 452 -96l-63 -275h-184q-90 80 -224 80q-88 0 -88 -41q0 -18 24.5 -30.5t104.5 -36.5 q223 -70 326.5 -155t103.5 -238q0 -231 -264 -332q57 -80 58 -176q0 -205 -146.5 -318.5t-404.5 -113.5q-310 -1 -494 118zM459 664q0 -29 29.5 -51.5t125.5 -55.5q131 -49 179 -74q25 18 24.5 51t-34 56.5t-128.5 58.5q-84 29 -172 66q-24 -18 -24 -51z" />
<glyph unicode="&#xa8;" horiz-adv-x="819" d="M139 1282q0 100 63.5 160.5t172.5 60.5q94 0 149.5 -45t55.5 -125q0 -98 -65.5 -156.5t-172.5 -58.5q-92 0 -147.5 43t-55.5 121zM618 1282q0 100 63.5 160.5t172.5 60.5q94 0 149.5 -45t55.5 -125q0 -98 -65.5 -156.5t-172.5 -58.5q-92 0 -147.5 43t-55.5 121z" />
<glyph unicode="&#xa9;" horiz-adv-x="1617" d="M94 716.5q0 227.5 108.5 397.5t277.5 253t370 83t370 -83t277.5 -253t108.5 -397.5t-108.5 -397t-277.5 -252.5t-370 -83t-370 83t-277.5 252.5t-108.5 397zM258 716.5q0 -272.5 171 -432t421 -159.5t421 159.5t171 432t-171 432.5t-421 160t-421 -160t-171 -432.5z M418 713q0 203 127 313.5t358 110.5q168 0 283 -60v-243h-142q-41 29 -98 28q-59 0 -89 -34.5t-30 -118.5q0 -154 115 -154q51 0 107 41h137v-225q-111 -74 -309 -74q-219 0 -339 103.5t-120 312.5z" />
<glyph unicode="&#xaa;" horiz-adv-x="1032" d="M84 739q0 317 424 318q41 0 141 -15q3 16 3 29q0 32 -17 49q-25 25 -90 25q-102 0 -172 -35h-148l66 279q170 61 401 61q240 0 344 -94q74 -67 74 -182q0 -47 -12 -103l-125 -543h-219q-135 0 -168 105q-111 -119 -258 -119q-109 0 -176.5 60.5t-67.5 164.5zM502 795 q0 -49 45 -50q20 0 35 9l30 127q-14 6 -43 6q-67 0 -67 -92z" />
<glyph unicode="&#xab;" horiz-adv-x="1185" d="M45 489l35 156l260 338h365v-94l-271 -344v-4l148 -365v-94h-365zM559 469l35 156l264 358h365v-94l-275 -365v-4l129 -344v-94h-364z" />
<glyph unicode="&#xad;" horiz-adv-x="653" d="M8 391l84 367h576l-84 -367h-576z" />
<glyph unicode="&#xae;" horiz-adv-x="790" d="M141 1083q0 168 113 267.5t270.5 99.5t270 -99.5t112.5 -267.5q0 -166 -112.5 -266t-270 -100t-270.5 100t-113 266zM252 1083q0 -131 77 -202.5t195.5 -71.5t195.5 71.5t77 202.5t-77 203t-195.5 72t-195.5 -72t-77 -203zM360 905v365h177q164 0 163 -131q0 -53 -45 -88 l52 -107v-39h-136l-47 109h-14v-109h-150zM506 1104h14q35 0 35 35q0 37 -35 37h-14v-72z" />
<glyph unicode="&#xaf;" horiz-adv-x="819" d="M260 1159l64 275h606l-64 -275h-606z" />
<glyph unicode="&#xb0;" horiz-adv-x="741" d="M176 1134.5q0 137.5 97.5 224.5t234.5 87t234.5 -87t97.5 -224.5t-97.5 -225.5t-234.5 -88t-234.5 88t-97.5 225.5zM406 1135q0 -49 27.5 -81t74.5 -32t75.5 31.5t28.5 81.5q0 51 -28.5 80.5t-75.5 29.5t-74.5 -29.5t-27.5 -80.5z" />
<glyph unicode="&#xb2;" horiz-adv-x="782" d="M61 600l60 256l266 182q92 63 92 96t-49 33q-47 0 -86 -30h-160l60 256q123 57 297 57q338 0 338 -229q0 -94 -56.5 -165t-191.5 -149l-72 -41h238l-62 -266h-674z" />
<glyph unicode="&#xb3;" horiz-adv-x="774" d="M74 670l47 202h135q45 -41 123 -41q76 0 76 50q0 37 -64 37h-92l45 194h86q74 0 74 45q0 41 -74 41q-49 0 -94 -20h-141l49 221q119 51 278 51q344 0 344 -225q0 -160 -194 -203v-6q145 -37 145 -170q0 -121 -100.5 -193.5t-288.5 -72.5q-221 0 -354 90z" />
<glyph unicode="&#xb4;" horiz-adv-x="819" d="M401 1143v76l111 235h453v-90l-260 -221h-304z" />
<glyph unicode="&#xb6;" horiz-adv-x="1212" d="M139 963q0 231 162 351t418 120h618l-374 -1620h-283l307 1329h-98l-307 -1329h-283l182 788h-2q-147 0 -243.5 94.5t-96.5 266.5z" />
<glyph unicode="&#xb7;" horiz-adv-x="544" d="M37 584q0 104 74.5 177t187.5 73q98 0 168 -63.5t70 -158.5q0 -104 -77 -177t-188 -73q-100 0 -167.5 64t-67.5 158z" />
<glyph unicode="&#xb8;" horiz-adv-x="819" d="M23 -315l30 131h72q20 -16 55 -17q43 0 43 25q0 18 -35 18h-34l36 158h193l-12 -51q137 -23 137 -127q0 -96 -77 -138t-193 -42q-131 0 -215 43z" />
<glyph unicode="&#xb9;" horiz-adv-x="643" d="M164 1061l61 270l260 103h293l-192 -834h-387l116 502l-96 -41h-55z" />
<glyph unicode="&#xba;" horiz-adv-x="1120" d="M145 905q0 227 152 386t424 159q213 0 338 -104.5t125 -288.5q0 -229 -149.5 -387t-426.5 -158q-215 0 -339 102.5t-124 290.5zM575 852q0 -82 53.5 -82t88.5 104.5t35 210.5q0 82 -52 82q-57 0 -91 -103t-34 -212z" />
<glyph unicode="&#xbb;" horiz-adv-x="1185" d="M-18 82v94l274 365v4l-129 344v94h365l153 -387l-35 -156l-264 -358h-364zM500 82v94l270 344v4l-147 365v94h364l172 -408l-35 -155l-260 -338h-364z" />
<glyph unicode="&#xbc;" horiz-adv-x="1822" d="M135 -70l1288 1563h291l-1288 -1563h-291zM160 1061l61 270l260 103h293l-192 -834h-387l116 502l-96 -41h-55zM903 158l55 239l457 437h371l-107 -461h78l-49 -215h-78l-37 -158h-385l37 158h-342zM1198 367h119l37 155h-2l-154 -151v-4z" />
<glyph unicode="&#xbd;" horiz-adv-x="1875" d="M125 -70l1288 1563h291l-1288 -1563h-291zM160 1061l61 270l260 103h293l-192 -834h-387l116 502l-96 -41h-55zM1014 0l59 256l266 182q92 63 92.5 96t-49.5 33q-47 0 -86 -30h-159l59 256q123 57 297 57q338 0 338 -229q0 -94 -56.5 -165t-191.5 -149l-72 -41h238 l-61 -266h-674z" />
<glyph unicode="&#xbe;" horiz-adv-x="1863" d="M70 670l47 202h135q45 -41 123 -41q76 0 76 50q0 37 -64 37h-92l45 194h86q74 0 74 45q0 41 -74 41q-49 0 -94 -20h-142l50 221q119 51 278 51q344 0 344 -225q0 -160 -194 -203v-6q145 -37 145 -170q0 -121 -100.5 -193.5t-288.5 -72.5q-221 0 -354 90zM209 -70 l1288 1563h291l-1288 -1563h-291zM944 158l55 239l457 437h371l-107 -461h78l-49 -215h-78l-37 -158h-385l37 158h-342zM1239 367h119l37 155h-2l-154 -151v-4z" />
<glyph unicode="&#xbf;" horiz-adv-x="1036" d="M-39 197q0 178 90 270t268 166q160 66 175 172h389v-11q0 -124 -45 -204q-47 -84 -142 -148q-31 -20 -72 -44l-62 -34q-19 -11 -34.5 -30t-15.5 -39q0 -55 90 -55q88 0 158 49h194l-77 -338q-180 -98 -441 -98q-238 0 -356.5 94t-118.5 250zM481 1077q0 104 77 177 t187 73q100 0 168 -63.5t68 -157.5q0 -104 -75 -177t-187 -73q-98 0 -168 63.5t-70 157.5z" />
<glyph unicode="&#xc0;" horiz-adv-x="1544" d="M-70 0v109l719 1325h654l124 -1325v-109h-559l-6 231h-387l-113 -231h-432zM627 1708v90h442l88 -235v-76h-321zM657 602h199l-8 375h-6z" />
<glyph unicode="&#xc1;" horiz-adv-x="1544" d="M-70 0v109l719 1325h654l124 -1325v-109h-559l-6 231h-387l-113 -231h-432zM657 602h199l-8 375h-6zM799 1487v76l110 235h453v-90l-260 -221h-303z" />
<glyph unicode="&#xc2;" horiz-adv-x="1544" d="M-70 0v109l719 1325h654l124 -1325v-109h-559l-6 231h-387l-113 -231h-432zM612 1487v84l240 227h326l159 -227v-84h-284l-72 65l-102 -65h-267zM657 602h199l-8 375h-6z" />
<glyph unicode="&#xc3;" horiz-adv-x="1544" d="M-70 0v109l719 1325h654l124 -1325v-109h-559l-6 231h-387l-113 -231h-432zM590 1485v94q68 250 289 250q57 0 126.5 -19.5t86.5 -19.5q43 0 59 39h233v-94q-72 -252 -280 -252q-63 0 -136 20.5t-87 20.5q-41 0 -60 -39h-231zM657 602h199l-8 375h-6z" />
<glyph unicode="&#xc4;" horiz-adv-x="1544" d="M-70 0v109l719 1325h654l124 -1325v-109h-559l-6 231h-387l-113 -231h-432zM565 1642q0 100 63.5 161t172.5 61q94 0 149.5 -45t55.5 -125q0 -98 -66 -156.5t-172 -58.5q-92 0 -147.5 42.5t-55.5 120.5zM657 602h199l-8 375h-6zM1044 1642q0 100 63.5 161t172.5 61 q94 0 149.5 -45t55.5 -125q0 -98 -65.5 -156.5t-172.5 -58.5q-92 0 -147.5 42.5t-55.5 120.5z" />
<glyph unicode="&#xc5;" horiz-adv-x="1544" d="M-70 0v109l719 1325h654l124 -1325v-109h-559l-6 231h-387l-113 -231h-432zM657 602h199l-8 375h-6zM799 1675q0 102 72.5 167t170.5 65q90 0 150.5 -55.5t60.5 -145.5q0 -100 -72.5 -163.5t-170.5 -63.5q-90 0 -150.5 54t-60.5 142zM971 1683q0 -51 51 -51q29 0 45 18.5 t16 49.5q0 53 -53 53q-27 0 -43 -18.5t-16 -51.5z" />
<glyph unicode="&#xc6;" horiz-adv-x="2048" d="M-94 0v109l882 1325h1373l-86 -373h-498l-39 -168h338l-80 -348h-338l-41 -183h529l-84 -362h-1094l53 231h-360l-146 -231h-409zM696 602h209l107 457h-25z" />
<glyph unicode="&#xc7;" horiz-adv-x="1378" d="M57 573q0 178 62.5 337t179.5 282t301 194.5t412 71.5q293 0 481 -106l-80 -353h-239q-68 68 -195 68q-113 0 -195 -85t-115.5 -196.5t-33.5 -226.5q0 -207 205 -207q123 0 217 86h229l-82 -366q-188 -96 -461 -97q-12 0 -32.5 1t-30.5 1l-6 -28q137 -23 137 -127 q0 -96 -77 -138t-193 -42q-131 0 -215 43l30 131h72q20 -16 55 -17q43 0 43 25q0 18 -34 18h-35l37 160q-203 51 -320 191t-117 380z" />
<glyph unicode="&#xc8;" horiz-adv-x="1263" d="M-29 0l330 1434h1075l-86 -373h-510l-39 -168h351l-80 -348h-350l-41 -183h540l-84 -362h-1106zM500 1708v90h442l88 -235v-76h-321z" />
<glyph unicode="&#xc9;" horiz-adv-x="1263" d="M-29 0l330 1434h1075l-86 -373h-510l-39 -168h351l-80 -348h-350l-41 -183h540l-84 -362h-1106zM672 1487v76l110 235h453v-90l-260 -221h-303z" />
<glyph unicode="&#xca;" horiz-adv-x="1263" d="M-29 0l330 1434h1075l-86 -373h-510l-39 -168h351l-80 -348h-350l-41 -183h540l-84 -362h-1106zM502 1487v84l239 227h326l160 -227v-84h-285l-72 65l-102 -65h-266z" />
<glyph unicode="&#xcb;" horiz-adv-x="1263" d="M-29 0l330 1434h1075l-86 -373h-510l-39 -168h351l-80 -348h-350l-41 -183h540l-84 -362h-1106zM438 1642q0 100 63.5 161t172.5 61q94 0 149.5 -45t55.5 -125q0 -98 -65.5 -156.5t-172.5 -58.5q-92 0 -147.5 42.5t-55.5 120.5zM918 1642q0 100 63 161t172 61 q94 0 149.5 -45t55.5 -125q0 -98 -65.5 -156.5t-172.5 -58.5q-92 0 -147 42.5t-55 120.5z" />
<glyph unicode="&#xcc;" horiz-adv-x="765" d="M-20 0l329 1434h565l-329 -1434h-565zM250 1708v90h442l88 -235v-76h-321z" />
<glyph unicode="&#xcd;" horiz-adv-x="765" d="M-20 0l329 1434h565l-329 -1434h-565zM422 1487v76l110 235h453v-90l-260 -221h-303z" />
<glyph unicode="&#xce;" horiz-adv-x="765" d="M-20 0l329 1434h565l-329 -1434h-565zM252 1487v84l240 227h325l160 -227v-84h-285l-71 65l-103 -65h-266z" />
<glyph unicode="&#xcf;" horiz-adv-x="765" d="M-20 0l329 1434h565l-329 -1434h-565zM188 1642q0 100 63.5 161t172.5 61q94 0 149.5 -45t55.5 -125q0 -98 -65.5 -156.5t-172.5 -58.5q-92 0 -147.5 42.5t-55.5 120.5zM668 1642q0 100 63.5 161t171.5 61q94 0 149.5 -45t55.5 -125q0 -98 -65.5 -156.5t-172.5 -58.5 q-92 0 -147 42.5t-55 120.5z" />
<glyph unicode="&#xd0;" horiz-adv-x="1564" d="M-20 0l126 553h-90l76 334h90l127 547h604q322 0 490 -149.5t168 -424.5q0 -389 -239.5 -624.5t-688.5 -235.5h-663zM627 356h51q154 0 241 147.5t87 373.5q0 98 -42 142t-137 44h-39l-40 -176h141l-76 -334h-141z" />
<glyph unicode="&#xd1;" horiz-adv-x="1521" d="M-29 0l330 1434h565l166 -641h6l148 641h452l-329 -1434h-525l-190 713h-6l-164 -713h-453zM618 1485v94q68 250 289 250q57 0 127 -19.5t86 -19.5q43 0 60 39h233v-94q-72 -252 -280 -252q-63 0 -136 20.5t-88 20.5q-41 0 -59 -39h-232z" />
<glyph unicode="&#xd2;" d="M57 565q0 174 59.5 335t169 286t277.5 199.5t371 74.5q313 0 489 -166t176 -442q0 -233 -104 -431t-308 -322t-468 -124q-285 0 -473.5 148.5t-188.5 441.5zM621 539q0 -186 133 -187q74 0 131 57.5t89 142.5t47 169t15 153q0 94 -34.5 141.5t-92.5 47.5 q-76 0 -134 -57.5t-90 -143.5t-48 -169.5t-16 -153.5zM641 1708v90h442l88 -235v-76h-321z" />
<glyph unicode="&#xd3;" d="M57 565q0 174 59.5 335t169 286t277.5 199.5t371 74.5q313 0 489 -166t176 -442q0 -233 -104 -431t-308 -322t-468 -124q-285 0 -473.5 148.5t-188.5 441.5zM621 539q0 -186 133 -187q74 0 131 57.5t89 142.5t47 169t15 153q0 94 -34.5 141.5t-92.5 47.5 q-76 0 -134 -57.5t-90 -143.5t-48 -169.5t-16 -153.5zM813 1487v76l111 235h452v-90l-260 -221h-303z" />
<glyph unicode="&#xd4;" d="M57 565q0 174 59.5 335t169 286t277.5 199.5t371 74.5q313 0 489 -166t176 -442q0 -233 -104 -431t-308 -322t-468 -124q-285 0 -473.5 148.5t-188.5 441.5zM621 539q0 -186 133 -187q74 0 131 57.5t89 142.5t47 169t15 153q0 94 -34.5 141.5t-92.5 47.5 q-76 0 -134 -57.5t-90 -143.5t-48 -169.5t-16 -153.5zM643 1487v84l240 227h325l160 -227v-84h-285l-71 65l-103 -65h-266z" />
<glyph unicode="&#xd5;" d="M57 565q0 174 59.5 335t169 286t277.5 199.5t371 74.5q313 0 489 -166t176 -442q0 -233 -104 -431t-308 -322t-468 -124q-285 0 -473.5 148.5t-188.5 441.5zM621 539q0 -186 133 -187q74 0 131 57.5t89 142.5t47 169t15 153q0 94 -34.5 141.5t-92.5 47.5 q-76 0 -134 -57.5t-90 -143.5t-48 -169.5t-16 -153.5zM625 1485v94q68 250 288 250q57 0 127 -19.5t86 -19.5q43 0 60 39h233v-94q-72 -252 -280 -252q-63 0 -136 20.5t-88 20.5q-39 0 -59 -39h-231z" />
<glyph unicode="&#xd6;" d="M57 565q0 174 59.5 335t169 286t277.5 199.5t371 74.5q313 0 489 -166t176 -442q0 -233 -104 -431t-308 -322t-468 -124q-285 0 -473.5 148.5t-188.5 441.5zM580 1642q0 100 63.5 161t171.5 61q94 0 149.5 -45t55.5 -125q0 -98 -65.5 -156.5t-172.5 -58.5 q-92 0 -147 42.5t-55 120.5zM621 539q0 -186 133 -187q74 0 131 57.5t89 142.5t47 169t15 153q0 94 -34.5 141.5t-92.5 47.5q-76 0 -134 -57.5t-90 -143.5t-48 -169.5t-16 -153.5zM1059 1642q0 100 63.5 161t171.5 61q94 0 149.5 -45t55.5 -125q0 -98 -65.5 -156.5 t-171.5 -58.5q-92 0 -147.5 42.5t-55.5 120.5z" />
<glyph unicode="&#xd7;" horiz-adv-x="1148" d="M29 459l309 243l-195 246l326 273l197 -252l311 250l223 -277l-307 -242l194 -243l-325 -273l-199 252l-313 -252z" />
<glyph unicode="&#xd8;" d="M43 0l164 176q-150 154 -150 389q0 174 59.5 335t169 286t277.5 199.5t371 74.5q219 0 383 -96l106 113h195v-60l-160 -170q141 -160 141 -395q0 -233 -104 -431t-308 -322t-468 -124q-203 0 -367 88l-114 -122h-195v59zM606 604l398 424q-37 45 -93 45q-92 0 -161.5 -83 t-101.5 -182.5t-42 -203.5zM653 385q37 -43 99 -43q88 0 156.5 82t99 182.5t41.5 202.5z" />
<glyph unicode="&#xd9;" horiz-adv-x="1501" d="M88 399.5q0 98.5 25 229.5l184 805h565l-200 -879q-10 -42 -11 -74q0 -39 16 -61q28 -41 113 -41q72 0 109 33.5t57 115.5l207 906h469l-215 -930q-66 -281 -229.5 -400.5t-456.5 -119.5q-106 0 -192.5 11t-169.5 39.5t-137 76t-94 119t-40 170zM649 1708v90h443l88 -235 v-76h-322z" />
<glyph unicode="&#xda;" horiz-adv-x="1501" d="M88 399.5q0 98.5 25 229.5l184 805h565l-200 -879q-10 -42 -11 -74q0 -39 16 -61q28 -41 113 -41q72 0 109 33.5t57 115.5l207 906h469l-215 -930q-66 -281 -229.5 -400.5t-456.5 -119.5q-106 0 -192.5 11t-169.5 39.5t-137 76t-94 119t-40 170zM821 1487v76l111 235h452 v-90l-260 -221h-303z" />
<glyph unicode="&#xdb;" horiz-adv-x="1501" d="M88 399.5q0 98.5 25 229.5l184 805h565l-200 -879q-10 -42 -11 -74q0 -39 16 -61q28 -41 113 -41q72 0 109 33.5t57 115.5l207 906h469l-215 -930q-66 -281 -229.5 -400.5t-456.5 -119.5q-106 0 -192.5 11t-169.5 39.5t-137 76t-94 119t-40 170zM651 1487v84l240 227h326 l159 -227v-84h-284l-72 65l-102 -65h-267z" />
<glyph unicode="&#xdc;" horiz-adv-x="1501" d="M88 399.5q0 98.5 25 229.5l184 805h565l-200 -879q-10 -42 -11 -74q0 -39 16 -61q28 -41 113 -41q72 0 109 33.5t57 115.5l207 906h469l-215 -930q-66 -281 -229.5 -400.5t-456.5 -119.5q-106 0 -192.5 11t-169.5 39.5t-137 76t-94 119t-40 170zM545 1642q0 100 63.5 161 t171.5 61q94 0 149.5 -45t55.5 -125q0 -98 -65.5 -156.5t-171.5 -58.5q-92 0 -147.5 42.5t-55.5 120.5zM1024 1642q0 100 63.5 161t172.5 61q94 0 149 -45t55 -125q0 -98 -65.5 -156.5t-171.5 -58.5q-92 0 -147.5 42.5t-55.5 120.5z" />
<glyph unicode="&#xdd;" horiz-adv-x="1433" d="M203 1325v109h534l105 -447h6l291 447h460v-109l-604 -846l-110 -479h-566l115 500zM772 1487v76l111 235h452v-90l-260 -221h-303z" />
<glyph unicode="&#xde;" horiz-adv-x="1392" d="M-29 0l330 1434h565l-51 -220h45q281 0 419 -96t138 -303q0 -274 -185 -418.5t-527 -144.5h-111l-57 -252h-566zM662 569h57q72 0 110.5 62.5t38.5 148.5q0 88 -92 88h-45z" />
<glyph unicode="&#xdf;" horiz-adv-x="1503" d="M-49 0l227 993q55 238 226 352.5t487 114.5q293 0 443.5 -87t150.5 -224q0 -100 -48 -160.5t-145 -124.5q-102 -66 -112 -80q-6 -10 -6 -22q0 -8 3 -14.5t12 -13.5t16 -11l25 -14l27 -17q104 -63 152.5 -126.5t48.5 -178.5q0 -188 -127 -297.5t-370 -109.5 q-248 0 -392 88l62 264h182q39 -43 111 -43q49 0 49 35q0 4 -1 7t-4 7t-5 7t-8.5 6t-10.5 6t-12 7.5t-16 7.5l-18 8q-11 5 -19 9q-182 84 -183 244q0 82 36 141.5t118 140.5q53 53 71.5 80t18.5 58q0 66 -90 65q-66 0 -97.5 -32.5t-50.5 -106.5l-223 -979h-528z" />
<glyph unicode="&#xe0;" horiz-adv-x="1241" d="M-12 252q0 381 508 381q47 0 172 -15q3 16 2 31q0 41 -22 62q-30 29 -107 28q-117 0 -207 -41h-176l78 334q211 74 481 74q289 0 415 -113q89 -79 88 -216q0 -58 -16 -126l-149 -651h-264q-160 0 -201 125q-129 -141 -309 -141q-129 0 -211 72.5t-82 195.5zM356 1364v90 h443l88 -235v-76h-322zM489 319q0 -59 54 -59q23 0 45 12l35 152q-20 6 -52 6q-82 0 -82 -111z" />
<glyph unicode="&#xe1;" horiz-adv-x="1241" d="M-12 252q0 381 508 381q47 0 172 -15q3 16 2 31q0 41 -22 62q-30 29 -107 28q-117 0 -207 -41h-176l78 334q211 74 481 74q289 0 415 -113q89 -79 88 -216q0 -58 -16 -126l-149 -651h-264q-160 0 -201 125q-129 -141 -309 -141q-129 0 -211 72.5t-82 195.5zM489 319 q0 -59 54 -59q23 0 45 12l35 152q-20 6 -52 6q-82 0 -82 -111zM549 1143v76l110 235h453v-90l-260 -221h-303z" />
<glyph unicode="&#xe2;" horiz-adv-x="1241" d="M-12 252q0 381 508 381q47 0 172 -15q3 16 2 31q0 41 -22 62q-30 29 -107 28q-117 0 -207 -41h-176l78 334q211 74 481 74q289 0 415 -113q89 -79 88 -216q0 -58 -16 -126l-149 -651h-264q-160 0 -201 125q-129 -141 -309 -141q-129 0 -211 72.5t-82 195.5zM383 1143v84 l240 227h325l160 -227v-84h-285l-71 65l-103 -65h-266zM489 319q0 -59 54 -59q23 0 45 12l35 152q-20 6 -52 6q-82 0 -82 -111z" />
<glyph unicode="&#xe3;" horiz-adv-x="1241" d="M-12 252q0 381 508 381q47 0 172 -15q3 16 2 31q0 41 -22 62q-30 29 -107 28q-117 0 -207 -41h-176l78 334q211 74 481 74q289 0 415 -113q89 -79 88 -216q0 -58 -16 -126l-149 -651h-264q-160 0 -201 125q-129 -141 -309 -141q-129 0 -211 72.5t-82 195.5zM362 1141v94 q70 256 289 256q57 0 127 -19.5t86 -19.5q43 0 60 39h233v-94q-74 -258 -280 -258q-63 0 -136 20.5t-88 20.5q-39 0 -59 -39h-232zM489 319q0 -59 54 -59q23 0 45 12l35 152q-20 6 -52 6q-82 0 -82 -111z" />
<glyph unicode="&#xe4;" horiz-adv-x="1241" d="M-12 252q0 381 508 381q47 0 172 -15q3 16 2 31q0 41 -22 62q-30 29 -107 28q-117 0 -207 -41h-176l78 334q211 74 481 74q289 0 415 -113q89 -79 88 -216q0 -58 -16 -126l-149 -651h-264q-160 0 -201 125q-129 -141 -309 -141q-129 0 -211 72.5t-82 195.5zM313 1282 q0 100 63.5 160.5t172.5 60.5q94 0 149.5 -45t55.5 -125q0 -98 -65.5 -156.5t-172.5 -58.5q-92 0 -147.5 43t-55.5 121zM489 319q0 -59 54 -59q23 0 45 12l35 152q-20 6 -52 6q-82 0 -82 -111zM793 1282q0 100 63.5 160.5t171.5 60.5q94 0 149.5 -45t55.5 -125 q0 -98 -65.5 -156.5t-172.5 -58.5q-92 0 -147 43t-55 121z" />
<glyph unicode="&#xe5;" horiz-adv-x="1241" d="M-12 252q0 381 508 381q47 0 172 -15q3 16 2 31q0 41 -22 62q-30 29 -107 28q-117 0 -207 -41h-176l78 334q211 74 481 74q289 0 415 -113q89 -79 88 -216q0 -58 -16 -126l-149 -651h-264q-160 0 -201 125q-129 -141 -309 -141q-129 0 -211 72.5t-82 195.5zM489 319 q0 -59 54 -59q23 0 45 12l35 152q-20 6 -52 6q-82 0 -82 -111zM551 1331q0 102 72.5 167t171.5 65q90 0 150.5 -55.5t60.5 -145.5q0 -100 -73 -163.5t-171 -63.5q-90 0 -150.5 54t-60.5 142zM723 1339q0 -51 51 -51q29 0 45.5 18.5t16.5 49.5q0 53 -54 53q-27 0 -43 -18.5 t-16 -51.5z" />
<glyph unicode="&#xe6;" horiz-adv-x="1828" d="M-25 260q0 375 508 375h174q0 7 1 13q0 45 -26 67q-30 25 -104 24q-117 0 -206 -41h-177l78 334q211 74 443 74q213 0 311 -88q141 86 338 90h9q223 0 360 -101q138 -102 139 -333q0 -127 -37 -246h-631q6 -66 45 -94.5t125 -28.5q117 0 229 45h170l-65 -276 q-170 -94 -434 -94q-344 0 -490 165q-152 -162 -434 -161q-156 0 -241 71.5t-85 204.5zM477 319q0 -59 64 -59q53 0 110 53q-14 61 -14 115h-66q-94 0 -94 -109zM1176 643h178q6 37 6 57q0 51 -12.5 73t-49.5 22q-83 0 -122 -152z" />
<glyph unicode="&#xe7;" horiz-adv-x="1085" d="M25 426q0 311 212 495.5t531 184.5q221 0 381 -82l-74 -317h-184q-37 41 -107 41q-104 0 -163.5 -86.5t-59.5 -202.5q0 -141 129 -142q82 0 141 54h177l-72 -314q-123 -78 -350 -77q-31 0 -45 2l-6 -33q137 -23 137 -127q0 -96 -77 -138t-194 -42q-131 0 -215 43l31 131 h72q20 -16 55 -17q43 0 43 25q0 18 -35 18h-35l37 164q-164 43 -246.5 150.5t-82.5 269.5z" />
<glyph unicode="&#xe8;" horiz-adv-x="1224" d="M217 921q188 183 500 185h8q213 0 350 -102q137 -103 137 -330v-6q-4 -131 -36 -240h-631q6 -66 45 -94.5t125 -28.5q117 0 229 45h170l-65 -276q-170 -94 -435 -94q-287 0 -438 117q-150 116 -149 335q0 304 190 489zM346 1364v90h442l89 -235v-76h-322zM567 651h178 q4 25 5 49q0 51 -12.5 73t-49.5 22q-82 -1 -121 -144z" />
<glyph unicode="&#xe9;" horiz-adv-x="1224" d="M217 921q188 183 500 185h8q213 0 350 -102q137 -103 137 -330v-6q-4 -131 -36 -240h-631q6 -66 45 -94.5t125 -28.5q117 0 229 45h170l-65 -276q-170 -94 -435 -94q-287 0 -438 117q-150 116 -149 335q0 304 190 489zM539 1143v76l110 235h453v-90l-260 -221h-303z M567 651h178q4 25 5 49q0 51 -12.5 73t-49.5 22q-82 -1 -121 -144z" />
<glyph unicode="&#xea;" horiz-adv-x="1224" d="M217 921q188 183 500 185h8q213 0 350 -102q137 -103 137 -330v-6q-4 -131 -36 -240h-631q6 -66 45 -94.5t125 -28.5q117 0 229 45h170l-65 -276q-170 -94 -435 -94q-287 0 -438 117q-150 116 -149 335q0 304 190 489zM373 1143v84l239 227h326l160 -227v-84h-285l-72 65 l-102 -65h-266zM567 651h178q4 25 5 49q0 51 -12.5 73t-49.5 22q-82 -1 -121 -144z" />
<glyph unicode="&#xeb;" horiz-adv-x="1224" d="M217 921q188 183 500 185h8q213 0 350 -102q137 -103 137 -330v-6q-4 -131 -36 -240h-631q6 -66 45 -94.5t125 -28.5q117 0 229 45h170l-65 -276q-170 -94 -435 -94q-287 0 -438 117q-150 116 -149 335q0 304 190 489zM305 1282q0 100 63.5 160.5t172.5 60.5 q94 0 149 -45t55 -125q0 -98 -65.5 -156.5t-171.5 -58.5q-92 0 -147.5 43t-55.5 121zM567 651h178q4 25 5 49q0 51 -12.5 73t-49.5 22q-82 -1 -121 -144zM784 1282q0 100 63.5 160.5t172.5 60.5q94 0 149.5 -45t55.5 -125q0 -98 -65.5 -156.5t-172.5 -58.5q-92 0 -147.5 43 t-55.5 121z" />
<glyph unicode="&#xec;" horiz-adv-x="671" d="M-41 0l250 1085h307q127 0 163 -46q19 -25 19 -75q0 -43 -14 -104l-197 -860h-528zM90 1364v90h442l89 -235v-76h-322z" />
<glyph unicode="&#xed;" horiz-adv-x="671" d="M-41 0l250 1085h307q127 0 163 -46q19 -25 19 -75q0 -43 -14 -104l-197 -860h-528zM283 1143v76l110 235h453v-90l-260 -221h-303z" />
<glyph unicode="&#xee;" horiz-adv-x="671" d="M-41 0l250 1085h307q127 0 163 -46q19 -25 19 -75q0 -43 -14 -104l-197 -860h-528zM117 1143v84l239 227h326l160 -227v-84h-285l-72 65l-102 -65h-266z" />
<glyph unicode="&#xef;" horiz-adv-x="671" d="M-41 0l250 1085h307q127 0 163 -46q19 -25 19 -75q0 -43 -14 -104l-197 -860h-528zM49 1282q0 100 63.5 160.5t172.5 60.5q94 0 149 -45t55 -125q0 -98 -65.5 -156.5t-171.5 -58.5q-92 0 -147.5 43t-55.5 121zM528 1282q0 100 63.5 160.5t172.5 60.5q94 0 149.5 -45 t55.5 -125q0 -98 -65.5 -156.5t-172.5 -58.5q-92 0 -147.5 43t-55.5 121z" />
<glyph unicode="&#xf0;" horiz-adv-x="1314" d="M175 853q146 161 368 161q164 0 250 -94q-27 92 -127 157l-62 -39h-237v72l84 53q-57 16 -89 23l58 248h244q80 -16 153 -37l57 37h238v-72l-90 -57q285 -184 285 -566q0 -340 -187.5 -549.5t-519.5 -209.5q-262 0 -419 122q-155 121 -154 337q-1 251 148 414zM541 379 q0 -94 65 -94q61 0 102.5 117.5t41.5 236.5q0 96 -62 96q-66 0 -106.5 -117.5t-40.5 -238.5z" />
<glyph unicode="&#xf1;" horiz-adv-x="1327" d="M-49 0l250 1085h264q102 0 151.5 -40.5t49.5 -147.5q92 102 187 155.5t218 53.5q137 0 210 -92q45 -57 45 -153q0 -59 -17 -134l-168 -727h-389q-72 0 -97 43q-12 22 -12 58t12 87l95 402q5 23 4 41q0 27 -11 42q-18 26 -84 25h-20q0 -2 -1 -6t-1 -6l-158 -686h-528z M426 1141v94q70 256 289 256q57 0 126.5 -19.5t86.5 -19.5q43 0 59 39h234v-94q-74 -258 -281 -258q-63 0 -136 20.5t-87 20.5q-41 0 -60 -39h-231z" />
<glyph unicode="&#xf2;" horiz-adv-x="1284" d="M25 451q0 274 181 464.5t511 190.5q256 0 405.5 -125t149.5 -348q0 -276 -180.5 -464.5t-509.5 -188.5q-258 0 -407.5 123t-149.5 348zM387 1364v90h442l89 -235v-76h-322zM541 387q0 -98 63 -98q66 0 107 125t41 254q0 98 -60 98q-70 0 -110.5 -124t-40.5 -255z" />
<glyph unicode="&#xf3;" horiz-adv-x="1284" d="M25 451q0 274 181 464.5t511 190.5q256 0 405.5 -125t149.5 -348q0 -276 -180.5 -464.5t-509.5 -188.5q-258 0 -407.5 123t-149.5 348zM541 387q0 -98 63 -98q66 0 107 125t41 254q0 98 -60 98q-70 0 -110.5 -124t-40.5 -255zM580 1143v76l110 235h453v-90l-260 -221 h-303z" />
<glyph unicode="&#xf4;" horiz-adv-x="1284" d="M25 451q0 274 181 464.5t511 190.5q256 0 405.5 -125t149.5 -348q0 -276 -180.5 -464.5t-509.5 -188.5q-258 0 -407.5 123t-149.5 348zM414 1143v84l239 227h326l160 -227v-84h-285l-72 65l-102 -65h-266zM541 387q0 -98 63 -98q66 0 107 125t41 254q0 98 -60 98 q-70 0 -110.5 -124t-40.5 -255z" />
<glyph unicode="&#xf5;" horiz-adv-x="1284" d="M25 451q0 274 181 464.5t511 190.5q256 0 405.5 -125t149.5 -348q0 -276 -180.5 -464.5t-509.5 -188.5q-258 0 -407.5 123t-149.5 348zM393 1141v94q70 256 289 256q57 0 127 -19.5t86 -19.5q43 0 59 39h234v-94q-74 -258 -281 -258q-63 0 -136 20.5t-87 20.5 q-41 0 -59 -39h-232zM541 387q0 -98 63 -98q66 0 107 125t41 254q0 98 -60 98q-70 0 -110.5 -124t-40.5 -255z" />
<glyph unicode="&#xf6;" horiz-adv-x="1284" d="M25 451q0 274 181 464.5t511 190.5q256 0 405.5 -125t149.5 -348q0 -276 -180.5 -464.5t-509.5 -188.5q-258 0 -407.5 123t-149.5 348zM346 1282q0 100 63.5 160.5t172.5 60.5q94 0 149 -45t55 -125q0 -98 -65.5 -156.5t-171.5 -58.5q-92 0 -147.5 43t-55.5 121zM541 387 q0 -98 63 -98q66 0 107 125t41 254q0 98 -60 98q-70 0 -110.5 -124t-40.5 -255zM825 1282q0 100 63.5 160.5t172.5 60.5q94 0 149.5 -45t55.5 -125q0 -98 -65.5 -156.5t-172.5 -58.5q-92 0 -147.5 43t-55.5 121z" />
<glyph unicode="&#xf7;" horiz-adv-x="1132" d="M43 508l92 399h1039l-93 -399h-1038zM293 233q0 102 72.5 173t183.5 71q96 0 163.5 -62.5t67.5 -152.5q0 -102 -74.5 -173t-183.5 -71q-98 0 -163.5 61.5t-65.5 153.5zM436 1153q0 102 73 173t183 71q96 0 164 -62.5t68 -152.5q0 -102 -75 -173t-183 -71q-98 0 -164 61.5 t-66 153.5z" />
<glyph unicode="&#xf8;" horiz-adv-x="1284" d="M18 -12l132 135q-125 125 -125 328q0 274 181 464.5t511 190.5q180 0 315 -68l90 92h152v-47l-125 -129q123 -123 123 -321q0 -276 -180.5 -464.5t-509.5 -188.5q-184 0 -314 61l-96 -100h-154v47zM522 510l236 244q-16 29 -53 28q-63 0 -113 -81.5t-70 -190.5zM530 311 q20 -39 68 -39q59 0 108.5 91.5t65.5 199.5z" />
<glyph unicode="&#xf9;" horiz-adv-x="1327" d="M25 358l168 727h387q72 0 96 -43q12 -22 12 -58t-12 -87l-101 -436q-5 -25 -5 -44q0 -25 10 -39q16 -26 77 -26h29l168 733h528l-249 -1085h-263q-190 0 -211 168q-176 -188 -383 -188q-143 0 -220 92q-48 58 -48 157q0 57 17 129zM422 1364v90h442l88 -235v-76h-321z " />
<glyph unicode="&#xfa;" horiz-adv-x="1327" d="M25 358l168 727h387q72 0 96 -43q12 -22 12 -58t-12 -87l-101 -436q-5 -25 -5 -44q0 -25 10 -39q16 -26 77 -26h29l168 733h528l-249 -1085h-263q-190 0 -211 168q-176 -188 -383 -188q-143 0 -220 92q-48 58 -48 157q0 57 17 129zM614 1143v76l111 235h453v-90 l-260 -221h-304z" />
<glyph unicode="&#xfb;" horiz-adv-x="1327" d="M25 358l168 727h387q72 0 96 -43q12 -22 12 -58t-12 -87l-101 -436q-5 -25 -5 -44q0 -25 10 -39q16 -26 77 -26h29l168 733h528l-249 -1085h-263q-190 0 -211 168q-176 -188 -383 -188q-143 0 -220 92q-48 58 -48 157q0 57 17 129zM430 1143v84l240 227h325l160 -227v-84 h-285l-71 65l-103 -65h-266z" />
<glyph unicode="&#xfc;" horiz-adv-x="1327" d="M25 358l168 727h387q72 0 96 -43q12 -22 12 -58t-12 -87l-101 -436q-5 -25 -5 -44q0 -25 10 -39q16 -26 77 -26h29l168 733h528l-249 -1085h-263q-190 0 -211 168q-176 -188 -383 -188q-143 0 -220 92q-48 58 -48 157q0 57 17 129zM358 1282q0 100 63.5 160.5t172.5 60.5 q94 0 149.5 -45t55.5 -125q0 -98 -65.5 -156.5t-172.5 -58.5q-92 0 -147.5 43t-55.5 121zM838 1282q0 100 63.5 160.5t171.5 60.5q94 0 149.5 -45t55.5 -125q0 -98 -65.5 -156.5t-172.5 -58.5q-92 0 -147 43t-55 121z" />
<glyph unicode="&#xfd;" horiz-adv-x="1273" d="M57 -236l217 308l-141 917v96h514l35 -462h8l236 462h444v-96l-803 -1321h-510v96zM631 1143v76l110 235h453v-90l-260 -221h-303z" />
<glyph unicode="&#xfe;" horiz-adv-x="1333" d="M-127 -332l408 1766h305q125 0 163 -51q20 -26 19 -79q0 -49 -16 -122l-54 -230q143 154 326 154q133 0 217 -93t84 -292q0 -197 -61.5 -361.5t-195.5 -273.5t-318 -109q-172 0 -254 95l-95 -404h-528zM549 307q25 -10 59 -10q78 0 123 91t45 228q0 66 -27.5 89.5 t-84.5 23.5q-12 0 -17 -2z" />
<glyph unicode="&#xff;" horiz-adv-x="1273" d="M57 -236l217 308l-141 917v96h514l35 -462h8l236 462h444v-96l-803 -1321h-510v96zM356 1282q0 100 63.5 160.5t172.5 60.5q94 0 149.5 -45t55.5 -125q0 -98 -65.5 -156.5t-172.5 -58.5q-92 0 -147.5 43t-55.5 121zM836 1282q0 100 63.5 160.5t171.5 60.5q94 0 149.5 -45 t55.5 -125q0 -98 -65.5 -156.5t-172.5 -58.5q-92 0 -147 43t-55 121z" />
<glyph unicode="&#x152;" horiz-adv-x="2058" d="M57 573q0 379 236.5 620t664.5 241h1213l-86 -373h-510l-39 -168h350l-80 -348h-350l-41 -183h541l-84 -362h-1157q-322 0 -490 149.5t-168 423.5zM623 557q0 -98 42 -142t136 -44h49l164 706h-64q-154 0 -240.5 -147.5t-86.5 -372.5z" />
<glyph unicode="&#x153;" horiz-adv-x="1927" d="M25 451q0 274 181 464.5t511 190.5q215 0 338 -117q154 115 366 119h17q208 0 341 -100q136 -103 136 -334q0 -128 -37 -246h-631q6 -66 45 -94.5t125 -28.5q117 0 230 45h170l-66 -276q-170 -94 -414 -94q-268 0 -395 112q-147 -113 -360 -112q-258 0 -407.5 123 t-149.5 348zM541 387q0 -98 63 -98q66 0 107 125t41 254q0 98 -60 98q-70 0 -110.5 -124t-40.5 -255zM1270 651h178q4 25 4 49q0 51 -12.5 73t-48.5 22q-82 -1 -121 -144z" />
<glyph unicode="&#x178;" horiz-adv-x="1433" d="M203 1325v109h534l105 -447h6l291 447h460v-109l-604 -846l-110 -479h-566l115 500zM539 1642q0 100 63.5 161t171.5 61q94 0 149.5 -45t55.5 -125q0 -98 -65.5 -156.5t-172.5 -58.5q-92 0 -147 42.5t-55 120.5zM1018 1642q0 100 63.5 161t171.5 61q94 0 149.5 -45 t55.5 -125q0 -98 -65.5 -156.5t-171.5 -58.5q-92 0 -147.5 42.5t-55.5 120.5z" />
<glyph unicode="&#x2c6;" horiz-adv-x="819" d="M217 1143v84l240 227h325l160 -227v-84h-285l-71 65l-103 -65h-266z" />
<glyph unicode="&#x2dc;" horiz-adv-x="819" d="M201 1141v94q70 256 288 256q57 0 127 -19.5t86 -19.5q43 0 60 39h233v-94q-74 -258 -280 -258q-63 0 -136 20.5t-87 20.5q-41 0 -60 -39h-231z" />
<glyph unicode="&#x2013;" horiz-adv-x="878" d="M8 393l84 363h801l-84 -363h-801z" />
<glyph unicode="&#x2014;" horiz-adv-x="1452" d="M8 391l84 367h1374l-84 -367h-1374z" />
<glyph unicode="&#x2018;" horiz-adv-x="559" d="M135 989q0 205 146.5 326t427.5 129l-45 -193q-172 -16 -172 -82q0 -12 8 -21t27.5 -24.5t27.5 -23.5q61 -53 61 -144q0 -88 -67.5 -148t-169.5 -60q-109 0 -176.5 65t-67.5 176z" />
<glyph unicode="&#x2019;" horiz-adv-x="559" d="M102 760l45 192q172 16 172 82q0 12 -8 21.5t-27.5 25t-27.5 23.5q-61 53 -61 143q0 88 67.5 148.5t169.5 60.5q109 0 176.5 -65.5t67.5 -176.5q0 -205 -146.5 -325.5t-427.5 -128.5z" />
<glyph unicode="&#x201a;" horiz-adv-x="559" d="M-125 -217l45 192q172 16 172 82q0 12 -8 21.5t-27.5 25t-27.5 23.5q-61 53 -62 143q0 88 67.5 148.5t170.5 60.5q109 0 176.5 -65.5t67.5 -175.5q0 -205 -146.5 -326t-427.5 -129z" />
<glyph unicode="&#x201c;" horiz-adv-x="1093" d="M135 989q0 205 146.5 326t427.5 129l-45 -193q-172 -16 -172 -82q0 -12 8 -21t27.5 -24.5t27.5 -23.5q61 -53 61 -144q0 -88 -67.5 -148t-169.5 -60q-109 0 -176.5 65t-67.5 176zM670 989q0 205 146.5 326t426.5 129l-45 -193q-172 -16 -172 -82q0 -12 8 -21t27.5 -24.5 t28.5 -23.5q61 -53 61 -144q0 -88 -67.5 -148t-170.5 -60q-109 0 -176 65t-67 176z" />
<glyph unicode="&#x201d;" horiz-adv-x="1093" d="M102 760l45 192q172 16 172 82q0 12 -8 21.5t-27.5 25t-27.5 23.5q-61 53 -61 143q0 88 67.5 148.5t169.5 60.5q109 0 176.5 -65.5t67.5 -176.5q0 -205 -146.5 -325.5t-427.5 -128.5zM637 760l45 192q172 16 172 82q0 12 -8 21.5t-27.5 25t-27.5 23.5q-61 53 -62 143 q0 88 67.5 148.5t170.5 60.5q109 0 176 -65.5t67 -176.5q0 -205 -146 -325.5t-427 -128.5z" />
<glyph unicode="&#x201e;" horiz-adv-x="1093" d="M-125 -217l45 192q172 16 172 82q0 12 -8 21.5t-27.5 25t-27.5 23.5q-61 53 -62 143q0 88 67.5 148.5t170.5 60.5q109 0 176.5 -65.5t67.5 -175.5q0 -205 -146.5 -326t-427.5 -129zM410 -217l45 192q172 16 172 82q0 12 -8.5 21.5t-28 25t-27.5 23.5q-61 53 -61 143 q0 88 67.5 148.5t169.5 60.5q109 0 176.5 -65.5t67.5 -175.5q0 -205 -146 -326t-427 -129z" />
<glyph unicode="&#x2022;" horiz-adv-x="827" d="M63 551q0 168 109 269.5t264 101.5q147 0 243.5 -88.5t96.5 -237.5q0 -170 -106.5 -270.5t-266.5 -100.5q-147 0 -243.5 88t-96.5 238z" />
<glyph unicode="&#x2026;" horiz-adv-x="1679" d="M-43 205q0 104 74.5 177t187.5 73q98 0 168 -63.5t70 -158.5q0 -104 -77 -176.5t-187 -72.5q-100 0 -168 63.5t-68 157.5zM524 205q0 104 75 177t187 73q98 0 168 -63.5t70 -158.5q0 -104 -77 -176.5t-187 -72.5q-100 0 -168 63.5t-68 157.5zM1092 205q0 104 74.5 177 t187.5 73q98 0 167.5 -63.5t69.5 -158.5q0 -104 -76.5 -176.5t-187.5 -72.5q-100 0 -167.5 63.5t-67.5 157.5z" />
<glyph unicode="&#x2039;" horiz-adv-x="671" d="M45 469l35 156l264 358h365v-94l-275 -371v-4l129 -338v-94h-364z" />
<glyph unicode="&#x203a;" horiz-adv-x="671" d="M-18 82v94l274 373v4l-129 336v94h365l153 -387l-35 -156l-264 -358h-364z" />
<glyph unicode="&#x20ac;" horiz-adv-x="1357" d="M29 463l49 217h96q4 41 8 61h-90l51 217h105q98 227 297.5 363.5t503.5 136.5q287 0 454 -108l-80 -344h-237q-51 59 -146 59q-119 0 -198 -107h254l-78 -217h-266l-13 -61h258l-75 -217h-193q14 -102 156 -103q109 0 194 62h217l-82 -356q-147 -90 -409 -91 q-270 0 -443.5 121t-195.5 367h-137z" />
<glyph unicode="&#x2122;" horiz-adv-x="1579" d="M236 1239l45 195h555l-45 -195h-148l-88 -379h-260l88 379h-147zM768 860l133 574h330l10 -224h4l111 224h360l-133 -574h-260l70 297h-4l-152 -297h-168l-16 297h-4l-70 -297h-211z" />
<glyph unicode="&#xe000;" horiz-adv-x="1085" d="M0 1085h1085v-1085h-1085v1085z" />
<glyph unicode="&#xfb01;" horiz-adv-x="1441" d="M0 0l176 768h-94l74 317h94l6 27q45 197 166 275.5t336 78.5q129 0 235 -32l-61 -269h-37q-61 0 -84 -14t-33 -57l-2 -9h133l-73 -317h-131l-177 -768h-528zM729 0l250 1085h307q127 0 163 -46q19 -25 19 -75q0 -43 -14 -104l-197 -860h-528zM1040 1288q0 109 75 173.5 t198 64.5q109 0 174 -49.5t65 -135.5q0 -106 -76.5 -168.5t-197.5 -62.5q-109 0 -173.5 47t-64.5 131z" />
<glyph unicode="&#xfb02;" horiz-adv-x="1441" d="M0 0l176 768h-94l74 317h94l6 27q45 197 166 275.5t336 78.5q119 0 231 -34l-61 -267h-33q-59 0 -84 -15t-33 -54l-2 -11h133l-73 -317h-131l-177 -768h-528zM729 0l330 1434h305q125 0 163 -51q20 -26 20 -79q0 -49 -17 -122l-273 -1182h-528z" />
<glyph unicode="&#xfb03;" horiz-adv-x="2269" d="M0 0l176 768h-94l74 317h94l6 27q45 197 166 275.5t336 78.5q129 0 235 -32l-61 -269h-37q-61 0 -84 -14t-33 -57l-2 -9h133l-73 -317h-131l-177 -768h-528zM799 0l176 768h-94l73 317h95l6 27q45 197 165.5 275.5t335.5 78.5q129 0 236 -32l-61 -269h-37q-61 0 -84 -14 t-33 -57l-2 -9h133l-74 -317h-131l-176 -768h-528zM1556 0l250 1085h308q127 0 162 -46q19 -25 20 -75q0 -43 -15 -104l-196 -860h-529zM1847 1288q0 109 75 173.5t198 64.5q109 0 174 -49.5t65 -135.5q0 -106 -76.5 -168.5t-197.5 -62.5q-109 0 -173.5 47t-64.5 131z" />
<glyph unicode="&#xfb04;" horiz-adv-x="2260" d="M0 0l176 768h-94l74 317h94l6 27q45 197 166 275.5t336 78.5q129 0 235 -32l-61 -269h-37q-61 0 -84 -14t-33 -57l-2 -9h133l-73 -317h-131l-177 -768h-528zM799 0l176 768h-94l73 317h95l6 27q45 197 165.5 275.5t335.5 78.5q129 0 236 -32l-61 -269h-37q-61 0 -84 -14 t-33 -57l-2 -9h133l-74 -317h-131l-176 -768h-528zM1548 0l330 1434h305q125 0 163 -51q20 -26 20 -79q0 -49 -17 -122l-272 -1182h-529z" />
</font>
</defs>
</svg>
