<?xml version="1.0" standalone="no"?>
<!DOCTYPE svg PUBLIC "-//W3C//DTD SVG 1.1//EN" "http://www.w3.org/Graphics/SVG/1.1/DTD/svg11.dtd" >
<svg xmlns="http://www.w3.org/2000/svg">
<metadata>
This is a custom SVG webfont generated by Font Squirrel.
Copyright   : Copyright c Christian Schwartz 2007 All rights reserved
Designer    : Christian Schwartz
Foundry     : Schwartzco Inc
Foundry URL : httpchristianschwartzcom
</metadata>
<defs>
<font id="StagSansBookItalic" horiz-adv-x="1503" >
<font-face units-per-em="2048" ascent="1638" descent="-410" />
<missing-glyph horiz-adv-x="442" />
<glyph unicode=" "  horiz-adv-x="442" />
<glyph unicode="&#x09;" horiz-adv-x="442" />
<glyph unicode="&#xa0;" horiz-adv-x="442" />
<glyph unicode="!" horiz-adv-x="516" d="M33 112.5q0 53.5 39 91.5t92 38t89 -36t36 -87q0 -55 -40 -92t-95 -37q-53 0 -87 34.5t-34 88zM141 365l183 940l30 129h226l-31 -129l-264 -940h-144z" />
<glyph unicode="&#x22;" horiz-adv-x="636" d="M219 1022l33 291l29 121h198l-26 -121l-105 -291h-129zM522 1022l31 291l29 121h200l-28 -121l-105 -291h-127z" />
<glyph unicode="#" horiz-adv-x="995" d="M43 459l39 166h172l63 235h-167l40 166h172l111 408h145l-110 -408h229l109 408h145l-108 -408h168l-39 -166h-176l-62 -235h168l-39 -166h-176l-125 -459h-145l123 459h-228l-125 -459h-145l125 459h-164zM399 625h230l61 235h-227z" />
<glyph unicode="$" horiz-adv-x="1064" d="M-12 152l35 151h79q96 -123 256 -151l117 514q-147 59 -222 140t-75 216q0 193 134 308.5t352 115.5h6l28 119h140l-31 -131q156 -27 272 -127l-32 -142h-80q-92 94 -195 117l-113 -477q158 -59 242 -141t84 -222q0 -217 -143.5 -335.5t-380.5 -118.5h-2l-45 -197h-140 l48 207q-205 31 -334 154zM369 1047q0 -70 40 -113t123 -80l103 438q-115 -6 -190.5 -69t-75.5 -176zM494 143q127 8 206.5 78t79.5 201q0 72 -43 114t-135 80z" />
<glyph unicode="%" horiz-adv-x="1605" d="M109 -70l1288 1563h168l-1286 -1563h-170zM152 997q0 182 115.5 315.5t283.5 133.5q133 0 214 -80t81 -215q0 -180 -116 -313t-284 -133q-133 0 -213.5 80.5t-80.5 211.5zM319 993q0 -74 35 -118t105 -44h4q94 0 153 101q61 102 62 225q0 72 -35 118t-104 46 q-96 0 -158 -102.5t-62 -225.5zM831 279q0 182 117 316t283 134q133 0 214 -80t81 -217q0 -180 -116 -312t-282 -132q-133 0 -215 80t-82 211zM1001 274q0 -74 35 -117.5t103 -43.5q96 0 157.5 101t61.5 224q0 72 -34 118t-103 46q-96 0 -158 -102.5t-62 -225.5z" />
<glyph unicode="&#x26;" horiz-adv-x="1374" d="M41 371q0 168 113.5 287.5t291.5 177.5q-43 92 -43 190q0 178 129.5 299t344.5 121q188 0 305 -92l-31 -160h-84q-74 86 -197 86q-113 0 -182.5 -67.5t-69.5 -176.5q0 -104 84 -225l265 -383q123 188 170 395h180v-51q-76 -270 -252 -485l154 -221l4 -66h-213l-97 141 q-193 -156 -426 -155q-195 0 -320.5 101.5t-125.5 283.5zM268 391q0 -109 71 -177.5t191 -68.5q172 0 295 117l-315 455q-242 -103 -242 -326z" />
<glyph unicode="'" horiz-adv-x="339" d="M221 1022l31 291l29 121h198l-26 -121l-105 -291h-127z" />
<glyph unicode="(" horiz-adv-x="677" d="M111 494q0 221 75.5 425.5t230 365.5t363.5 233h66l-35 -144q-231 -100 -366.5 -343t-135.5 -547q0 -340 195 -445l-33 -139h-49q-135 63 -224 211q-87 144 -87 372v11z" />
<glyph unicode=")" horiz-adv-x="677" d="M-82 -100l35 143q231 100 366.5 343t135.5 540q2 346 -195 452l33 140h49q135 -63 224 -211t87 -383q0 -342 -179 -629t-492 -395h-64z" />
<glyph unicode="*" horiz-adv-x="776" d="M188 1163l78 150l74 -33l141 -111v183l19 82h170l-23 -95l-65 -180l172 70l82 14l18 -162l-82 -14l-176 -2l106 -139l35 -70l-155 -76l-35 70l-47 176l-121 -162l-62 -61l-108 119l63 57l154 104l-166 47z" />
<glyph unicode="+" horiz-adv-x="1019" d="M76 623l41 170h362l88 385h183l-88 -385h360l-39 -170h-360l-88 -385h-185l88 385h-362z" />
<glyph unicode="," horiz-adv-x="382" d="M-109 -199l23 103q59 8 97 30.5t38 51.5q0 6 -1 11t-3 8t-6 7l-6 6q-2 2 -8.5 7.5t-10.5 7.5q-41 29 -41 82q0 55 38 91t91 36q55 0 92 -37t37 -103q0 -135 -92 -213t-248 -88z" />
<glyph unicode="-" horiz-adv-x="546" d="M59 522l41 174h424l-41 -174h-424z" />
<glyph unicode="." horiz-adv-x="380" d="M-27 111q0 55 40 93t95.5 38t89 -35t33.5 -86q0 -55 -39.5 -93t-95 -38t-89.5 35t-34 86z" />
<glyph unicode="/" horiz-adv-x="694" d="M-106 -55l823 1573h162v-45l-824 -1573h-161v45z" />
<glyph unicode="0" horiz-adv-x="1372" d="M111 518q0 244 89 454t260 342t386 132q231 0 366.5 -142.5t135.5 -390.5q0 -385 -203 -655t-527 -270q-233 0 -370 143t-137 387zM334 514q0 -365 297 -364q152 0 268.5 123.5t170.5 295.5t54 349q0 170 -70.5 268t-215.5 98q-152 0 -272 -128t-176 -301t-56 -341z" />
<glyph unicode="1" horiz-adv-x="731" d="M176 1081l35 156l383 197h151l-329 -1434h-226l275 1190l-225 -109h-64z" />
<glyph unicode="2" horiz-adv-x="1093" d="M-61 0l41 180l512 395q117 92 185 154t132.5 160t64.5 190q0 197 -237 197q-176 0 -338 -115h-78l37 168q182 117 414 117q190 0 309 -90t119 -269q0 -90 -35 -173t-106.5 -161.5t-142.5 -138t-183 -143.5l-387 -293h682l-41 -178h-948z" />
<glyph unicode="3" horiz-adv-x="1069" d="M-14 154l34 151h89q49 -72 135 -111.5t186 -39.5h8q138 0 222 71q87 74 88 205q0 225 -269 225h-100l37 164h121q143 0 231 64.5t88 195.5q0 104 -64.5 152.5t-166.5 50.5h-7q-164 0 -294 -92h-88l34 156q166 102 383 102q82 0 151.5 -18.5t130 -57.5t95.5 -110.5 t35 -165.5q0 -145 -87 -239.5t-237 -125.5v-6q102 -29 163 -108.5t61 -192.5q0 -197 -147.5 -316.5t-379.5 -119.5q-296 0 -452 166z" />
<glyph unicode="4" horiz-adv-x="1196" d="M18 334l45 190l895 910h216l-216 -938h179l-37 -162h-178l-78 -334h-221l77 334h-682zM238 496h499l152 657h-6l-645 -651v-6z" />
<glyph unicode="5" horiz-adv-x="1112" d="M-2 125l35 149h88q96 -123 297 -122q164 0 275.5 105t111.5 275q0 106 -62.5 166t-169.5 60q-166 0 -282 -121h-137l182 797h813l-41 -181h-645l-98 -426h6q106 94 280 95q172 0 276.5 -101.5t104.5 -277.5q0 -250 -175 -402.5t-435 -152.5q-277 0 -424 137z" />
<glyph unicode="6" horiz-adv-x="1239" d="M109 494q0 180 61 359t174 310q221 283 578 283q217 0 335 -90l-36 -154h-84q-76 80 -222 80q-244 0 -397 -201q-106 -133 -158 -336q172 145 394 146q174 0 284.5 -98.5t110.5 -282.5q0 -219 -155.5 -370.5t-397.5 -151.5q-225 0 -356 134t-131 372zM330 477 q0 -338 274 -338q145 0 236.5 102.5t91.5 264.5q0 111 -65.5 171t-190.5 60q-180 0 -338 -127q-8 -59 -8 -133z" />
<glyph unicode="7" horiz-adv-x="1075" d="M154 0v94l825 1153v6h-762l41 181h942l-45 -197l-786 -1237h-215z" />
<glyph unicode="8" horiz-adv-x="1212" d="M43 367q0 164 108.5 269t280.5 138v6q-84 37 -132 104.5t-48 153.5q0 186 145.5 297t358.5 111q197 0 318.5 -93t121.5 -257q0 -141 -84 -227.5t-221 -114.5v-6q223 -84 223 -314q0 -209 -157.5 -328.5t-413.5 -119.5q-88 0 -170 19.5t-159 60t-124 119t-47 182.5z M262 379q0 -117 81 -178.5t206 -61.5q158 0 252 83t94 218q0 119 -77 184.5t-208 65.5q-156 0 -252 -89t-96 -222zM467 1036q0 -98 68.5 -148t169.5 -50q125 0 201.5 64.5t76.5 182.5q0 98 -64.5 151.5t-170.5 53.5q-121 0 -201 -67.5t-80 -186.5z" />
<glyph unicode="9" horiz-adv-x="1236" d="M47 78l33 151h86q80 -80 237 -79q229 0 373 147q133 139 187 383q-170 -139 -400 -139q-178 0 -286.5 95t-108.5 267q0 229 162 385t399 156q219 0 350 -131t131 -355q0 -479 -264 -749q-207 -223 -549 -223q-221 0 -350 92zM381 922q0 -111 67.5 -168.5t192.5 -57.5 q86 0 180 35t162 86q8 102 8 158q0 141 -66.5 229t-201.5 88q-150 0 -246 -102t-96 -268z" />
<glyph unicode=":" horiz-adv-x="385" d="M-27 111q0 55 40 93t95.5 38t89 -35t33.5 -86q0 -55 -39.5 -93t-95.5 -38q-53 0 -88 35t-35 86zM117 725q0 55 40 93t95 38q53 0 88 -36t35 -87q0 -55 -41 -93t-96 -38q-53 0 -87 35t-34 88z" />
<glyph unicode=";" horiz-adv-x="385" d="M-109 -199l23 103q59 8 97 30.5t38 51.5q0 6 -1 11t-3 8t-6 7l-6 6q-2 2 -8.5 7.5t-10.5 7.5q-41 29 -41 82q0 55 39 91t92 36q55 0 91 -37t36 -103q0 -135 -92 -213t-248 -88zM117 725q0 55 40 93t95 38q53 0 88 -36t35 -87q0 -55 -41 -93t-96 -38q-53 0 -87 35t-34 88z " />
<glyph unicode="&#x3c;" horiz-adv-x="921" d="M74 618l32 144l840 383h53l-36 -166l-660 -299v-6l516 -318l-37 -151h-53z" />
<glyph unicode="=" horiz-adv-x="1003" d="M18 365l41 170h887l-39 -170h-889zM111 754l36 170h889l-39 -170h-886z" />
<glyph unicode="&#x3e;" horiz-adv-x="921" d="M-14 205l37 166l659 299v6l-514 317l35 152h55l655 -414l-32 -143l-842 -383h-53z" />
<glyph unicode="?" horiz-adv-x="921" d="M147 112.5q0 53.5 40 91.5t93.5 38t89.5 -36t36 -87q0 -55 -40 -92t-96 -37q-53 0 -88 34.5t-35 88zM213 1194l37 162q139 92 348 92q162 0 271.5 -76t109.5 -237q0 -135 -81 -231.5t-230 -192.5q-137 -86 -197.5 -154t-75.5 -192h-157q10 150 63 239.5t184 188.5l69 47 q54 37 76.5 57.5t58.5 57t51.5 78.5t15.5 91q0 156 -193 156q-154 0 -264 -86h-86z" />
<glyph unicode="@" horiz-adv-x="1796" d="M84 487q0 201 81 370t211 275.5t285.5 165t315.5 58.5q332 0 551 -176t219 -488q0 -268 -139.5 -409.5t-335.5 -141.5q-213 0 -238 152q-133 -154 -297 -154q-115 0 -181.5 72t-66.5 207q0 199 134.5 364.5t339.5 165.5q127 0 208 -78q45 68 113 68h66l-121 -518 q-8 -33 -8 -59q0 -89 94 -89q117 0 195.5 105.5t78.5 314.5q0 250 -164.5 389.5t-447.5 139.5q-135 0 -263 -47.5t-232.5 -135.5t-168 -231t-63.5 -320q0 -315 179 -464.5t476 -149.5q309 0 522 143h58l-31 -139q-215 -137 -549 -137q-164 0 -307 43t-261 129t-185.5 234 t-67.5 341zM678 418q0 -70 31.5 -106t83.5 -36q115 0 241 136l84 360q-53 35 -135 35q-129 0 -217 -117.5t-88 -271.5z" />
<glyph unicode="A" horiz-adv-x="1337" d="M-47 0v66l786 1368h244l180 -1368v-66h-217l-49 410h-543l-225 -410h-176zM444 571h435l-76 639h-4z" />
<glyph unicode="B" horiz-adv-x="1247" d="M45 0l330 1434h399q203 0 317.5 -86t114.5 -248q0 -145 -86 -232.5t-233 -119.5v-7q250 -51 250 -299q0 -219 -166 -330.5t-422 -111.5h-504zM303 164h258q160 0 256 71.5t96 217.5q0 106 -67.5 162.5t-192.5 56.5h-233zM457 827h215q139 0 227 61.5t88 192.5 q0 92 -59.5 140.5t-167.5 48.5h-201z" />
<glyph unicode="C" horiz-adv-x="1292" d="M119 555q0 166 55 323.5t155.5 285.5t259.5 205t349 77q242 0 387 -107l-37 -155h-82q-100 96 -278 96q-143 0 -259 -67.5t-184.5 -177t-103.5 -233.5t-35 -249q0 -201 96.5 -301t276.5 -100q190 0 336 110h92l-39 -168q-158 -106 -401 -106q-272 0 -430 144t-158 423z " />
<glyph unicode="D" horiz-adv-x="1427" d="M45 0l330 1434h422q281 0 436.5 -149.5t155.5 -422.5q0 -166 -52.5 -319.5t-151 -275.5t-252 -194.5t-341.5 -72.5h-547zM305 164h281q145 0 260 63.5t180.5 167t98 223t32.5 244.5q0 184 -89 295t-277 111h-232z" />
<glyph unicode="E" horiz-adv-x="1167" d="M45 0l330 1434h876l-39 -168h-651l-104 -453h491l-37 -160h-491l-113 -489h699l-37 -164h-924z" />
<glyph unicode="F" horiz-adv-x="1132" d="M45 0l330 1434h889l-39 -168h-664l-112 -488h514l-37 -160h-514l-142 -618h-225z" />
<glyph unicode="G" horiz-adv-x="1388" d="M119 545q0 168 54 326.5t152.5 287.5t256 208t348.5 79q268 0 422 -117l-37 -158h-84q-106 109 -316 109q-186 0 -320 -119t-192.5 -282.5t-58.5 -339.5q0 -391 381 -392q133 0 231 46l86 380h-245l34 154h467l-147 -643q-168 -96 -436.5 -96t-432 137t-163.5 420z" />
<glyph unicode="H" horiz-adv-x="1433" d="M45 0l330 1434h225l-141 -617h655l143 617h224l-330 -1434h-223l149 653h-657l-150 -653h-225z" />
<glyph unicode="I" horiz-adv-x="563" d="M51 0l330 1434h225l-330 -1434h-225z" />
<glyph unicode="J" horiz-adv-x="917" d="M-49 76l35 153h77q61 -78 197 -77q102 0 158.5 50t79.5 150l247 1082h228l-258 -1117q-78 -332 -449 -331q-196 0 -315 90z" />
<glyph unicode="K" horiz-adv-x="1325" d="M45 0l330 1434h225l-170 -736l774 736h191v-66l-576 -537l334 -765v-66h-209l-295 686l-280 -256l-99 -430h-225z" />
<glyph unicode="L" horiz-adv-x="1122" d="M45 0l330 1434h225l-293 -1270h649l-38 -164h-873z" />
<glyph unicode="M" horiz-adv-x="1703" d="M45 0l330 1434h305l123 -1096h4l623 1096h321l-330 -1434h-221l275 1192h-9l-682 -1192h-139l-131 1192h-6l-275 -1192h-188z" />
<glyph unicode="N" horiz-adv-x="1421" d="M45 0l330 1434h260l389 -1069h6l248 1069h192l-329 -1434h-207l-424 1163h-6l-266 -1163h-193z" />
<glyph unicode="O" d="M119 575q0 223 91 421t268 324t401 126q270 0 426.5 -161t156.5 -425q0 -164 -52 -319.5t-147.5 -278.5t-242 -198.5t-320.5 -75.5q-270 0 -425.5 160.5t-155.5 426.5zM346 571q0 -193 89 -308.5t274 -115.5q125 0 228 67t166.5 173.5t97.5 230t34 244.5q0 186 -87 305 t-274 119q-164 0 -288.5 -115.5t-182 -275.5t-57.5 -324z" />
<glyph unicode="P" horiz-adv-x="1222" d="M45 0l330 1434h391q471 0 471 -377q0 -254 -163 -378t-453 -124h-224l-127 -555h-225zM432 713h201q387 0 387 350q0 205 -270 205h-189z" />
<glyph unicode="Q" d="M119 575q0 223 91 421t268 324t401 126q270 0 426.5 -161t156.5 -425q0 -303 -154.5 -532.5t-416.5 -282.5v-6l452 -86l-38 -172h-101l-594 180q-248 76 -369.5 226t-121.5 388zM346 571q0 -195 89 -309.5t276 -114.5q164 0 287.5 116t179 274.5t55.5 324.5 q0 186 -86 305t-273 119q-164 0 -288.5 -115.5t-182 -275.5t-57.5 -324z" />
<glyph unicode="R" horiz-adv-x="1282" d="M45 0l330 1434h401q227 0 343 -95.5t116 -279.5q0 -166 -95.5 -276.5t-260.5 -153.5l227 -563v-66h-203l-233 602h-260l-140 -602h-225zM444 758h211q362 0 363 311q0 199 -258 199h-199z" />
<glyph unicode="S" horiz-adv-x="1095" d="M-2 147l35 160h82q125 -156 360 -155q135 0 221 67.5t86 200.5q0 86 -60 130t-208 99q-162 61 -240.5 141t-78.5 224q0 199 135 315.5t356 116.5q252 0 414 -143l-35 -150h-80q-125 129 -311 129q-117 0 -197 -61.5t-80 -173.5q0 -88 56.5 -130.5t205.5 -97.5 q166 -61 251 -142t85 -226q0 -223 -143 -343t-385 -120q-299 -1 -469 159z" />
<glyph unicode="T" horiz-adv-x="1175" d="M229 1270l39 164h1059l-37 -164h-418l-292 -1270h-226l293 1270h-418z" />
<glyph unicode="U" horiz-adv-x="1396" d="M162 555l203 879h225l-209 -904q-15 -65 -15 -119q0 -94 45 -156q71 -97 255 -97q152 0 241.5 73.5t130.5 245.5l219 957h193l-223 -971q-111 -475 -576 -475q-283 0 -418 147q-92 100 -91 259q0 74 20 161z" />
<glyph unicode="V" horiz-adv-x="1294" d="M258 1368v66h213l129 -1168h4l649 1168h177v-66l-781 -1368h-227z" />
<glyph unicode="W" horiz-adv-x="1873" d="M264 1370v64h211l25 -1143h6l549 1143h192l37 -1143h4l524 1143h189v-64l-653 -1370h-250l-29 1075h-2l-512 -1075h-250z" />
<glyph unicode="X" horiz-adv-x="1308" d="M-14 0v70l571 678l-256 616v70h209l225 -562l453 562h180v-70l-526 -635l274 -659v-70h-209l-245 606l-496 -606h-180z" />
<glyph unicode="Y" horiz-adv-x="1196" d="M248 1364v70h207l217 -656h2l493 656h172v-70l-606 -797l-129 -567h-225l135 588z" />
<glyph unicode="Z" horiz-adv-x="1183" d="M-35 0l41 174l995 1090v6h-690l37 164h955l-41 -181l-998 -1087v-6h733l-34 -160h-998z" />
<glyph unicode="[" horiz-adv-x="669" d="M25 -100l374 1618h426l-34 -146h-228l-307 -1327h229l-34 -145h-426z" />
<glyph unicode="\" horiz-adv-x="704" d="M221 1473v45h166l186 -1573v-45h-165z" />
<glyph unicode="]" horiz-adv-x="669" d="M-68 -100l33 145h230l307 1327h-230l35 146h428l-375 -1618h-428z" />
<glyph unicode="^" horiz-adv-x="854" d="M160 940v53l389 441h158l194 -441v-53h-158l-145 317h-4l-283 -317h-151z" />
<glyph unicode="_" horiz-adv-x="741" d="M-188 -332l32 137h727l-32 -137h-727z" />
<glyph unicode="`" horiz-adv-x="849" d="M356 1368v66h199l98 -224v-49h-127z" />
<glyph unicode="a" horiz-adv-x="1034" d="M25 268q0 172 125.5 267.5t338.5 95.5q125 0 220 -35l20 88q11 48 11 88q0 160 -183 160q-162 0 -291 -74h-65l35 154q166 74 352 73q207 0 302 -103q63 -68 63 -185q0 -60 -17 -133l-154 -664h-63q-106 0 -113 111q-125 -121 -291 -121q-131 0 -210.5 72.5t-79.5 205.5z M223 283q0 -76 42 -116t118 -40q129 0 248 125l49 221q-82 31 -180 31q-131 0 -204 -58.5t-73 -162.5z" />
<glyph unicode="b" horiz-adv-x="1187" d="M18 0l328 1434h123q47 0 60 -25q6 -11 6 -34q0 -28 -9 -75l-90 -389q174 174 375 174q133 0 218 -92t85 -278q0 -317 -157.5 -522t-409.5 -205q-190 0 -307 125q-59 -113 -164 -113h-58zM283 231q86 -100 225 -100q186 0 291.5 165t105.5 404q0 113 -47 169.5t-127 56.5 q-141 0 -325 -154z" />
<glyph unicode="c" horiz-adv-x="1009" d="M74 420q0 285 180 475t451 190q201 0 311 -100l-33 -139h-82q-59 84 -201 84q-186 0 -301.5 -147.5t-115.5 -360.5q0 -135 62.5 -207t186.5 -72q143 0 261 84h84l-35 -145q-131 -94 -324 -94q-219 0 -331.5 116.5t-112.5 315.5z" />
<glyph unicode="d" horiz-adv-x="1189" d="M70 367q0 295 168 506.5t419 211.5q174 0 275 -114l106 463h115q55 0 68 -24q5 -10 5 -32q0 -29 -9 -78l-297 -1300h-50q-126 0 -126 123q0 13 1 27q-158 -162 -346 -162q-147 0 -238 92t-91 287zM281 373q0 -236 188 -236q137 0 305 150l125 544q-82 94 -211 95 q-186 0 -296.5 -162t-110.5 -391z" />
<glyph unicode="e" horiz-adv-x="1062" d="M70 416q0 272 160.5 470.5t414.5 198.5q178 0 271 -97q91 -95 92 -258q0 -111 -33 -232h-696q-2 -27 -3 -78q0 -279 252 -279q172 0 295 95h76l-37 -154q-145 -94 -356 -94t-323.5 112.5t-112.5 315.5zM303 633h508q12 55 12 104q0 209 -190 209q-119 0 -205 -85 t-125 -228z" />
<glyph unicode="f" horiz-adv-x="657" d="M63 0l205 926h-131l31 145h133l23 100q63 276 338 277q100 0 159 -23l-28 -129h-78q-78 0 -121 -28.5t-62 -102.5l-20 -94h213l-31 -145h-217l-209 -926h-205z" />
<glyph unicode="g" horiz-adv-x="1177" d="M2 -248l37 150h67q86 -92 273 -92q281 0 338 241l35 154q-168 -176 -369 -176q-137 0 -225 89t-88 265q0 287 165.5 494.5t421.5 207.5q166 0 285 -118q61 104 162 104h59l-237 -1026q-49 -213 -185.5 -302t-361.5 -89q-238 0 -377 98zM281 389q0 -209 174 -209 q145 0 327 164l115 502q-88 96 -213 96q-186 0 -294.5 -166t-108.5 -387z" />
<glyph unicode="h" horiz-adv-x="1167" d="M18 0l328 1434h123q47 0 59.5 -25t-2.5 -109l-90 -389q223 174 436 174q127 0 187.5 -91t23.5 -251l-172 -743h-131q-43 0 -55 21.5t0 78.5l145 641q41 176 -100 177q-150 0 -369 -156l-174 -762h-209z" />
<glyph unicode="i" horiz-adv-x="499" d="M23 0l245 1071h105q59 0 73 -27q6 -12 7 -37q0 -33 -11 -89l-211 -918h-208zM303 1306.5q0 49.5 37 85t86 35.5t83 -33.5t34 -80.5q0 -51 -37 -86t-88 -35q-49 0 -82 32.5t-33 82z" />
<glyph unicode="j" horiz-adv-x="495" d="M-223 -319l26 120h41q76 0 111 28t51 99l262 1143h105q59 0 73 -27q6 -12 7 -37q0 -33 -11 -89l-229 -1004q-31 -133 -104.5 -193.5t-196.5 -60.5q-78 1 -135 21zM303 1306.5q0 49.5 37 85t86 35.5t83 -33.5t34 -80.5q0 -51 -37 -86t-88 -35q-49 0 -82 32.5t-33 82z" />
<glyph unicode="k" horiz-adv-x="1040" d="M18 0l328 1434h123q47 0 59.5 -25t-2.5 -109l-168 -729l527 500h182v-59l-434 -396l268 -555v-61h-192l-236 483l-170 -155l-76 -328h-209z" />
<glyph unicode="l" horiz-adv-x="503" d="M20 0l330 1434h121q47 0 60.5 -25t-3.5 -109l-297 -1300h-211z" />
<glyph unicode="m" horiz-adv-x="1751" d="M18 0l246 1071h66q133 0 106 -164q213 178 393 178q88 0 145.5 -48t69.5 -136q219 184 418 184q127 0 184.5 -90t20.5 -252l-172 -743h-133q-43 0 -54.5 20.5t1.5 79.5l145 641q39 176 -92 177q-117 0 -324 -148l-4 -27l-172 -743h-209l168 741q39 176 -92 177 q-117 0 -323 -150l-177 -768h-211z" />
<glyph unicode="n" horiz-adv-x="1167" d="M18 0l246 1071h68q129 0 104 -162q219 176 436 176q127 0 187.5 -91t23.5 -251l-172 -743h-131q-43 0 -55 21.5t0 78.5l145 641q41 176 -100 177q-152 0 -367 -156l-176 -762h-209z" />
<glyph unicode="o" horiz-adv-x="1173" d="M74 426q0 285 168 472t413 187q209 0 327 -118.5t118 -321.5q0 -287 -165 -471t-417 -184q-209 0 -326.5 116.5t-117.5 319.5zM281 422q0 -283 245 -283q166 0 266.5 150.5t100.5 359.5q0 141 -63.5 213t-178.5 72q-164 0 -267 -151.5t-103 -360.5z" />
<glyph unicode="p" horiz-adv-x="1181" d="M-57 -332l321 1403h68q111 0 111 -116q0 -18 -3 -40q166 170 365 170q137 0 223 -94t86 -286q0 -309 -156.5 -504t-410.5 -195q-186 0 -289 107l-102 -445h-213zM287 242q86 -90 225 -90q188 0 290.5 155.5t102.5 392.5q0 117 -48 171.5t-130 54.5q-135 0 -317 -150z" />
<glyph unicode="q" horiz-adv-x="1189" d="M70 365q0 301 171 510.5t425 209.5q172 0 282 -118q59 104 162 104h57l-321 -1403h-213l115 502q-160 -164 -359 -164q-139 0 -229 89.5t-90 269.5zM281 377q0 -223 178 -223q145 0 323 163l119 525q-80 88 -219 88q-178 0 -289.5 -165t-111.5 -388z" />
<glyph unicode="r" horiz-adv-x="770" d="M18 0l246 1071h66q139 0 104 -180q158 190 336 190q31 0 55 -8l-39 -176h-36q-188 0 -353 -164l-168 -733h-211z" />
<glyph unicode="s" horiz-adv-x="884" d="M-25 100l35 146h74q88 -104 254 -105q111 0 171 45t60 123q0 57 -38.5 87t-135.5 63q-141 49 -207.5 110.5t-66.5 173.5q0 156 108.5 248t298.5 92q199 0 326 -98l-33 -139h-69q-86 86 -232 86q-102 0 -155.5 -42t-53.5 -114q0 -53 39 -82.5t139 -62.5 q141 -47 209 -106.5t68 -174.5q0 -164 -113.5 -262t-318.5 -98q-226 -1 -359 110z" />
<glyph unicode="t" horiz-adv-x="694" d="M123 311l141 615h-125l31 145h127l68 291h210l-67 -291h223l-33 -145h-225l-141 -623q-8 -34 -8 -61q0 -41 18 -65q31 -40 119 -40h80l-29 -129q-61 -20 -152 -20q-154 0 -213 84q-37 53 -37 134q0 47 13 105z" />
<glyph unicode="u" horiz-adv-x="1161" d="M82 328l172 743h135q43 0 54 -20q5 -10 6 -29q0 -20 -7 -51l-145 -639q-8 -39 -9 -70q0 -109 109 -108q141 0 348 149l177 768h213l-246 -1071h-55q-122 0 -123 116q0 20 4 44q-215 -174 -410 -174q-135 0 -199 89q-39 55 -39 139q0 52 15 114z" />
<glyph unicode="v" horiz-adv-x="1048" d="M152 1014v57h202l115 -817h4l445 817h174v-57l-572 -1014h-211z" />
<glyph unicode="w" horiz-adv-x="1540" d="M158 1014v57h198l54 -778h4l381 778h166l75 -778h4l363 778h170v-57l-498 -1014h-184l-78 774h-4l-379 -774h-190z" />
<glyph unicode="x" horiz-adv-x="1058" d="M-33 0v59l441 504l-201 449v59h196l166 -379l328 379h172v-59l-405 -459l223 -494v-59h-197l-188 422l-361 -422h-174z" />
<glyph unicode="y" horiz-adv-x="1050" d="M63 -270l252 374l-165 910v57h198l125 -739h2l443 739h176v-57l-842 -1346h-189v62z" />
<glyph unicode="z" horiz-adv-x="976" d="M-51 0l33 150l753 770h-538l34 151h791l-35 -149l-758 -770h566l-33 -152h-813z" />
<glyph unicode="{" horiz-adv-x="729" d="M90 655l33 144h51q123 0 148 116l84 355q29 127 95 187.5t197 60.5h187l-35 -146h-131q-90 0 -115 -102l-82 -352q-37 -164 -198 -195v-4q114 -33 114 -142q0 -28 -8 -61l-84 -369q-5 -23 -5 -40q0 -23 9 -37q16 -25 70 -25h125l-35 -145h-123q-247 0 -247 183 q0 37 10 81l88 375q5 22 5 39q0 77 -93 77h-60z" />
<glyph unicode="|" horiz-adv-x="516" d="M219 -100v1618h170l-2 -1618h-168z" />
<glyph unicode="}" horiz-adv-x="729" d="M-68 -100l35 145h131q92 0 117 102l86 377q39 166 199 197v4q-143 41 -107 203l78 342q14 53 -2 77.5t-72 24.5h-123l33 146h125q147 0 206.5 -68t29.5 -197l-82 -350q-27 -115 90 -115h57l-33 -145h-51q-123 0 -147 -117l-90 -379q-29 -127 -95.5 -187t-197.5 -60h-187z " />
<glyph unicode="~" horiz-adv-x="763" d="M59 461v69q25 84 81.5 134.5t133.5 50.5q57 0 140.5 -34t105.5 -34q61 0 86 76h123v-68q-25 -86 -79 -136t-134 -50q-51 0 -137 35t-109 35q-61 0 -86 -78h-125z" />
<glyph unicode="&#xa1;" horiz-adv-x="516" d="M-16 -152l30 129l265 941h143l-182 -941l-31 -129h-225zM274 1163q0 55 40 92t96 37q53 0 86.5 -34.5t33.5 -88t-38.5 -91.5t-92 -38t-89.5 36t-36 87z" />
<glyph unicode="&#xa2;" horiz-adv-x="1054" d="M74 424q0 268 171 455.5t429 203.5l28 119h140l-29 -123q147 -16 236 -94l-33 -139h-82q-47 66 -156 80l-180 -781q129 10 229 82h82l-32 -145q-121 -86 -318 -94l-45 -199h-139l47 207q-170 29 -259 142.5t-89 285.5zM283 428q0 -231 176 -276l178 770 q-164 -31 -259 -170.5t-95 -323.5z" />
<glyph unicode="&#xa3;" horiz-adv-x="1048" d="M-49 0l33 152q190 84 237 268q20 90 21 215h-144l35 151h103q-4 63 -5 116q0 106 17 173q43 180 177 275.5t343 95.5q231 0 365 -117l-35 -153h-84q-98 98 -254 98q-115 0 -190.5 -55.5t-102.5 -163.5q-18 -82 -18 -269h382l-36 -151h-346q-4 -117 -25 -207 q-37 -156 -162 -252h678l-41 -176h-948z" />
<glyph unicode="&#xa5;" horiz-adv-x="1159" d="M92 358l31 134h344l29 124h-344l30 134h287l-211 614v70h201l196 -605h4l453 605h176v-70l-481 -614h289l-31 -134h-346l-29 -124h346l-30 -134h-347l-81 -358h-222l80 358h-344z" />
<glyph unicode="&#xa6;" horiz-adv-x="516" d="M219 -100v733h170v-733h-170zM219 797v721h170v-721h-170z" />
<glyph unicode="&#xa7;" horiz-adv-x="1075" d="M0 -152l35 148h74q102 -111 272 -111q227 0 227 158q0 63 -53 109.5t-188 101.5q-158 63 -227.5 136t-69.5 181q0 242 311 306q-90 78 -90 219q0 156 118.5 253t313.5 97q197 0 336 -98l-33 -146h-76q-98 86 -233 86q-104 0 -168 -44t-64 -120q0 -68 44 -109.5t169 -86.5 q170 -63 252 -136t82 -196q0 -113 -79 -196t-228 -117q94 -78 94 -203q0 -162 -117.5 -255t-326.5 -93q-213 -1 -375 116zM270 612q0 -59 43 -102t152 -88q104 -45 131 -60q233 41 233 195q0 68 -50 111t-169 88q-47 16 -94 37q-121 -12 -183.5 -59.5t-62.5 -121.5z" />
<glyph unicode="&#xa8;" horiz-adv-x="849" d="M317 1303q0 49 35 82.5t84 33.5t81 -32.5t32 -77.5q0 -49 -37 -83t-86 -34q-47 0 -78 32t-31 79zM666 1303q0 49 35.5 82.5t84.5 33.5q47 0 79 -32.5t32 -77.5q0 -49 -36 -83t-85 -34t-79.5 32t-30.5 79z" />
<glyph unicode="&#xa9;" horiz-adv-x="1632" d="M131 717q0 340 212 535.5t519 195.5q309 0 520 -195.5t211 -535.5t-211 -535.5t-520 -195.5q-307 0 -519 195.5t-212 535.5zM240 717q0 -297 177 -468t445 -171t445.5 171t177.5 468t-177.5 469t-445.5 172t-445 -172t-177 -469zM485 719q0 184 114 293.5t290 109.5 q147 0 252 -63v-131h-76q-61 66 -176 65q-104 0 -165.5 -72.5t-61.5 -203.5q0 -135 58 -203t167 -68q125 0 190 74h68v-121q-104 -82 -262 -82q-188 0 -293 107t-105 295z" />
<glyph unicode="&#xaa;" horiz-adv-x="907" d="M129 758q0 152 110.5 229.5t290.5 77.5q106 0 203 -31l12 51q10 42 10 76q0 140 -165 139q-147 0 -248 -65h-63l34 147q133 63 310 64q186 0 270 -93q56 -62 55 -167q0 -54 -14 -119l-123 -539h-59q-104 0 -105 103q-106 -113 -262 -113q-119 0 -187.5 64.5t-68.5 175.5z M319 770q0 -123 132 -123q109 0 217 105l39 172q-78 25 -162 24q-104 0 -165 -45t-61 -133z" />
<glyph unicode="&#xab;" horiz-adv-x="1007" d="M78 500l18 88l365 389h168v-53l-361 -400v-6l176 -377v-51h-168zM469 500l18 88l365 389h170v-53l-363 -400v-6l177 -377v-51h-168z" />
<glyph unicode="&#xad;" horiz-adv-x="546" d="M59 522l41 174h424l-41 -174h-424z" />
<glyph unicode="&#xae;" horiz-adv-x="837" d="M166 1083q0 168 109.5 267.5t265.5 99.5q154 0 265.5 -99.5t111.5 -267.5q0 -166 -112 -266t-265 -100q-156 0 -265.5 99t-109.5 267zM244 1083.5q0 -141.5 84 -220.5t213 -79t212 79t83 220.5t-83 220t-212 78.5t-213 -78.5t-84 -220zM395 899v385h160q152 0 152 -121 q0 -72 -66 -104l74 -125v-35h-94l-76 141h-49v-141h-101zM496 1106h51q59 0 59 57q0 53 -59 54h-51v-111z" />
<glyph unicode="&#xaf;" horiz-adv-x="849" d="M340 1221l33 145h495l-32 -145h-496z" />
<glyph unicode="&#xb0;" horiz-adv-x="698" d="M211 1159q0 129 86 208t207 79q117 0 192.5 -74t75.5 -192q0 -127 -87 -206t-208 -79q-115 0 -190.5 73.5t-75.5 190.5zM336 1161q0 -70 40 -113.5t107 -43.5q72 0 118 48t46 128q0 70 -41 113.5t-108 43.5q-70 0 -116 -49t-46 -127z" />
<glyph unicode="&#xb2;" horiz-adv-x="675" d="M94 655l31 136l258 188q104 76 152.5 128t48.5 112q0 96 -115 96q-92 0 -166 -62h-61l28 127q102 63 232 64q123 0 190.5 -56.5t67.5 -150.5q0 -90 -62.5 -163t-205.5 -171l-170 -117h348l-33 -131h-543z" />
<glyph unicode="&#xb3;" horiz-adv-x="661" d="M96 739l25 109h63q63 -82 178 -82q66 0 109 32.5t43 90.5q0 106 -129 106h-68l27 113h84q66 0 103.5 29.5t37.5 81.5q0 100 -125 100q-74 0 -147 -47h-61l26 117q88 55 215 55q119 0 186.5 -50.5t67.5 -150.5q0 -158 -184 -194v-5q57 -14 94 -57t37 -106 q0 -109 -88 -171.5t-223 -62.5q-169 0 -271 92z" />
<glyph unicode="&#xb4;" horiz-adv-x="849" d="M508 1161v49l145 224h203v-66l-231 -207h-117z" />
<glyph unicode="&#xb6;" horiz-adv-x="1181" d="M170 983q0 451 598 451h461l-375 -1620h-160l340 1464h-160l-339 -1464h-160l194 839h-10q-172 0 -280.5 87t-108.5 243z" />
<glyph unicode="&#xb7;" horiz-adv-x="380" d="M82 618q0 55 39 93.5t94 38.5t90 -36t35 -87q0 -55 -41 -93t-96 -38q-53 0 -87 34.5t-34 87.5z" />
<glyph unicode="&#xb8;" horiz-adv-x="849" d="M78 -313l20 90h52q20 -31 81 -31q78 0 78 53q0 47 -80 47h-45l37 154h111l-15 -66q63 -4 96 -39.5t33 -91.5q0 -84 -58 -122.5t-146 -38.5q-105 0 -164 45z" />
<glyph unicode="&#xb9;" horiz-adv-x="520" d="M203 1188l28 129l246 117h127l-180 -779h-174l139 602l-149 -69h-37z" />
<glyph unicode="&#xba;" horiz-adv-x="1042" d="M164 895q0 240 149.5 396.5t362.5 156.5q176 0 287.5 -100.5t111.5 -274.5q0 -240 -151.5 -397.5t-362.5 -157.5q-182 0 -289.5 102.5t-107.5 274.5zM362 887q0 -109 54.5 -167t150.5 -58q129 0 219.5 118.5t90.5 298.5q0 104 -53.5 167t-151.5 63q-129 0 -219.5 -116 t-90.5 -306z" />
<glyph unicode="&#xbb;" horiz-adv-x="1007" d="M-8 90v53l360 398v6l-176 377v53h168l199 -412l-19 -86l-364 -389h-168zM383 90v53l362 398v6l-176 377v53h166l201 -412l-21 -86l-362 -389h-170z" />
<glyph unicode="&#xbc;" horiz-adv-x="1441" d="M6 -70l1286 1563h168l-1286 -1563h-168zM199 1188l30 129l244 117h127l-180 -779h-174l139 602l-149 -69h-37zM678 174l31 131l477 473h164l-115 -491h96l-26 -113h-97l-39 -174h-159l39 174h-371zM838 287h239l72 307h-6l-305 -303v-4z" />
<glyph unicode="&#xbd;" horiz-adv-x="1529" d="M-2 -70l1286 1563h168l-1286 -1563h-168zM199 1188l30 129l244 117h127l-180 -779h-174l139 602l-149 -69h-37zM793 0l30 133l258 191q104 76 152.5 128t48.5 111q0 94 -115 94q-96 0 -166 -59h-63l31 127q98 61 231 61q123 0 189.5 -55t66.5 -149q0 -92 -62.5 -164 t-205.5 -170l-168 -119h346l-31 -129h-542z" />
<glyph unicode="&#xbe;" horiz-adv-x="1533" d="M106 739l25 109h64q63 -82 176 -82q68 0 108.5 32.5t40.5 90.5q0 106 -127 106h-65l26 113h82q66 0 102.5 29.5t36.5 81.5q0 100 -120 100q-74 0 -148 -47h-61l26 117q88 55 215 55q119 0 186.5 -50.5t67.5 -150.5q0 -158 -184 -194v-5q57 -14 94 -57t37 -106 q0 -109 -88 -171.5t-221 -62.5q-171 0 -273 92zM119 -70l1286 1563h168l-1286 -1563h-168zM774 174l31 131l477 473h164l-115 -491h96l-26 -113h-96l-39 -174h-160l39 174h-371zM934 287h240l71 307h-6l-305 -303v-4z" />
<glyph unicode="&#xbf;" horiz-adv-x="921" d="M20 147q0 135 81 231.5t231 192.5q137 86 197.5 154t74.5 193h158q-10 -150 -63.5 -240t-184.5 -189l-69 -47q-54 -37 -76.5 -57t-58.5 -57t-51 -79t-15 -91q0 -156 192 -156q154 0 264 86h86l-36 -162q-139 -92 -349 -92q-162 0 -271.5 75.5t-109.5 237.5zM594 1163 q0 55 40 92t95 37q53 0 88 -34.5t35 -88t-40 -91.5t-93 -38t-89 36t-36 87z" />
<glyph unicode="&#xc0;" horiz-adv-x="1337" d="M-47 0v66l786 1368h244l180 -1368v-66h-217l-49 410h-543l-225 -410h-176zM444 571h435l-76 639h-4zM647 1659v65h199l86 -196v-49h-127z" />
<glyph unicode="&#xc1;" horiz-adv-x="1337" d="M-47 0v66l786 1368h244l180 -1368v-66h-217l-49 410h-543l-225 -410h-176zM444 571h435l-76 639h-4zM793 1479v49l125 196h202v-65l-211 -180h-116z" />
<glyph unicode="&#xc2;" horiz-adv-x="1337" d="M-47 0v66l786 1368h244l180 -1368v-66h-217l-49 410h-543l-225 -410h-176zM444 571h435l-76 639h-4zM598 1479v59l217 193h148l147 -193v-59h-121l-117 112l-165 -112h-109z" />
<glyph unicode="&#xc3;" horiz-adv-x="1337" d="M-47 0v66l786 1368h244l180 -1368v-66h-217l-49 410h-543l-225 -410h-176zM444 571h435l-76 639h-4zM571 1489v57q57 166 195 166q51 0 121.5 -31.5t95.5 -31.5q51 0 78 67h115v-59q-59 -166 -195 -166q-51 0 -120.5 34t-92.5 34q-59 0 -82 -70h-115z" />
<glyph unicode="&#xc4;" horiz-adv-x="1337" d="M-47 0v66l786 1368h244l180 -1368v-66h-217l-49 410h-543l-225 -410h-176zM444 571h435l-76 639h-4zM586 1599q0 49 35.5 83t85.5 34q47 0 78.5 -32.5t31.5 -77.5q0 -49 -36 -83t-85 -34q-47 0 -78.5 31.5t-31.5 78.5zM936 1599q0 49 36 83t85 34q47 0 78.5 -32.5 t31.5 -77.5q0 -49 -35.5 -83t-85 -34t-80 31.5t-30.5 78.5z" />
<glyph unicode="&#xc5;" horiz-adv-x="1335" d="M-47 0v66l786 1368h244l180 -1368v-66h-217l-49 410h-543l-225 -410h-176zM444 571h435l-76 639h-4zM694 1665q0 90 61.5 147.5t145.5 57.5q80 0 135.5 -50.5t55.5 -133.5q0 -90 -61.5 -145.5t-145.5 -55.5q-82 0 -136.5 48t-54.5 132zM805 1667q0 -39 22.5 -60.5 t59.5 -21.5q41 0 68.5 28.5t27.5 72.5q0 37 -23.5 60t-62.5 23q-41 0 -66.5 -27.5t-25.5 -74.5z" />
<glyph unicode="&#xc6;" horiz-adv-x="1921" d="M-61 0v66l997 1368h1069l-39 -168h-645l-107 -453h486l-37 -160h-483l-113 -489h690l-37 -164h-915l94 412h-487l-295 -412h-178zM526 573h410l160 693h-74z" />
<glyph unicode="&#xc7;" horiz-adv-x="1290" d="M119 555q0 166 55 323.5t155.5 285.5t259.5 205t349 77q242 0 387 -107l-37 -155h-82q-100 96 -278 96q-143 0 -259 -67.5t-184.5 -177t-103.5 -233.5t-35 -249q0 -201 96.5 -301t276.5 -100q190 0 336 110h92l-39 -168q-158 -106 -401 -106q-12 0 -34 1t-32 1l-12 -56 q63 -4 96 -39.5t33 -91.5q0 -84 -59.5 -122.5t-147.5 -38.5q-102 0 -162 45l21 90h51q20 -31 82 -31q78 0 78 53q0 47 -80 47h-45l36 158q-197 43 -305 181.5t-108 369.5z" />
<glyph unicode="&#xc8;" horiz-adv-x="1167" d="M45 0l330 1434h876l-39 -168h-651l-104 -453h491l-37 -160h-491l-113 -489h699l-37 -164h-924zM614 1659v65h199l86 -196v-49h-127z" />
<glyph unicode="&#xc9;" horiz-adv-x="1167" d="M45 0l330 1434h876l-39 -168h-651l-104 -453h491l-37 -160h-491l-113 -489h699l-37 -164h-924zM745 1479v49l125 196h203v-65l-211 -180h-117z" />
<glyph unicode="&#xca;" horiz-adv-x="1167" d="M45 0l330 1434h876l-39 -168h-651l-104 -453h491l-37 -160h-491l-113 -489h699l-37 -164h-924zM565 1479v59l217 193h148l147 -193v-59h-121l-116 112l-166 -112h-109z" />
<glyph unicode="&#xcb;" horiz-adv-x="1167" d="M45 0l330 1434h876l-39 -168h-651l-104 -453h491l-37 -160h-491l-113 -489h699l-37 -164h-924zM545 1599q0 49 35.5 83t85.5 34q47 0 78.5 -32.5t31.5 -77.5q0 -49 -35.5 -83t-85.5 -34q-47 0 -78.5 31.5t-31.5 78.5zM895 1599q0 49 36 83t85 34q47 0 78.5 -32.5 t31.5 -77.5q0 -49 -35.5 -83t-85 -34t-80 31.5t-30.5 78.5z" />
<glyph unicode="&#xcc;" horiz-adv-x="563" d="M51 0l330 1434h225l-330 -1434h-225zM291 1659v65h198l86 -196v-49h-126z" />
<glyph unicode="&#xcd;" horiz-adv-x="563" d="M51 0l330 1434h225l-330 -1434h-225zM432 1479v49l125 196h203v-65l-211 -180h-117z" />
<glyph unicode="&#xce;" horiz-adv-x="563" d="M51 0l330 1434h225l-330 -1434h-225zM244 1479v59l217 193h147l148 -193v-59h-121l-117 112l-166 -112h-108z" />
<glyph unicode="&#xcf;" horiz-adv-x="563" d="M51 0l330 1434h225l-330 -1434h-225zM227 1599q0 49 36 83t85 34q47 0 79 -32.5t32 -77.5q0 -49 -36 -83t-85 -34q-47 0 -79 31.5t-32 78.5zM578 1599q0 49 35.5 83t84.5 34q47 0 79 -32.5t32 -77.5q0 -49 -36 -83t-85 -34t-79.5 31.5t-30.5 78.5z" />
<glyph unicode="&#xd0;" horiz-adv-x="1431" d="M45 0l145 635h-141l37 162h141l148 637h422q281 0 436.5 -149.5t155.5 -422.5q0 -166 -52.5 -319.5t-151 -275.5t-252 -194.5t-341.5 -72.5h-547zM305 164h281q145 0 260 63.5t180.5 167t98 223t32.5 244.5q0 184 -89 295t-277 111h-232l-108 -471h360l-39 -162h-358z " />
<glyph unicode="&#xd1;" horiz-adv-x="1421" d="M45 0l330 1434h260l389 -1069h6l248 1069h192l-329 -1434h-207l-424 1163h-6l-266 -1163h-193zM676 1489v57q57 166 194 166q51 0 122 -31.5t95 -31.5q51 0 78 67h115v-59q-59 -166 -195 -166q-51 0 -120.5 34t-92.5 34q-59 0 -81 -70h-115z" />
<glyph unicode="&#xd2;" d="M119 575q0 223 91 421t268 324t401 126q270 0 426.5 -161t156.5 -425q0 -164 -52 -319.5t-147.5 -278.5t-242 -198.5t-320.5 -75.5q-270 0 -425.5 160.5t-155.5 426.5zM346 571q0 -193 89 -308.5t274 -115.5q125 0 228 67t166.5 173.5t97.5 230t34 244.5q0 186 -87 305 t-274 119q-164 0 -288.5 -115.5t-182 -275.5t-57.5 -324zM700 1659v65h199l86 -196v-49h-127z" />
<glyph unicode="&#xd3;" d="M119 575q0 223 91 421t268 324t401 126q270 0 426.5 -161t156.5 -425q0 -164 -52 -319.5t-147.5 -278.5t-242 -198.5t-320.5 -75.5q-270 0 -425.5 160.5t-155.5 426.5zM346 571q0 -193 89 -308.5t274 -115.5q125 0 228 67t166.5 173.5t97.5 230t34 244.5q0 186 -87 305 t-274 119q-164 0 -288.5 -115.5t-182 -275.5t-57.5 -324zM842 1479v49l125 196h202v-65l-211 -180h-116z" />
<glyph unicode="&#xd4;" d="M119 575q0 223 91 421t268 324t401 126q270 0 426.5 -161t156.5 -425q0 -164 -52 -319.5t-147.5 -278.5t-242 -198.5t-320.5 -75.5q-270 0 -425.5 160.5t-155.5 426.5zM346 571q0 -193 89 -308.5t274 -115.5q125 0 228 67t166.5 173.5t97.5 230t34 244.5q0 186 -87 305 t-274 119q-164 0 -288.5 -115.5t-182 -275.5t-57.5 -324zM651 1479v59l217 193h148l147 -193v-59h-121l-116 112l-166 -112h-109z" />
<glyph unicode="&#xd5;" d="M119 575q0 223 91 421t268 324t401 126q270 0 426.5 -161t156.5 -425q0 -164 -52 -319.5t-147.5 -278.5t-242 -198.5t-320.5 -75.5q-270 0 -425.5 160.5t-155.5 426.5zM346 571q0 -193 89 -308.5t274 -115.5q125 0 228 67t166.5 173.5t97.5 230t34 244.5q0 186 -87 305 t-274 119q-164 0 -288.5 -115.5t-182 -275.5t-57.5 -324zM633 1489v57q57 166 194 166q51 0 122 -31.5t95 -31.5q51 0 78 67h115v-59q-59 -166 -195 -166q-51 0 -120.5 34t-92.5 34q-59 0 -81 -70h-115z" />
<glyph unicode="&#xd6;" d="M119 575q0 223 91 421t268 324t401 126q270 0 426.5 -161t156.5 -425q0 -164 -52 -319.5t-147.5 -278.5t-242 -198.5t-320.5 -75.5q-270 0 -425.5 160.5t-155.5 426.5zM346 571q0 -193 89 -308.5t274 -115.5q125 0 228 67t166.5 173.5t97.5 230t34 244.5q0 186 -87 305 q-88 119 -274 119q-164 0 -288.5 -115.5t-182 -275.5t-57.5 -324zM635 1599q0 49 36 83t85 34q47 0 78.5 -32.5t31.5 -77.5q0 -49 -35.5 -83t-85.5 -34q-47 0 -78.5 31.5t-31.5 78.5zM985 1599q0 49 36 83t85 34q47 0 79 -32.5t32 -77.5q0 -49 -36 -83t-85 -34t-80 31.5 t-31 78.5z" />
<glyph unicode="&#xd7;" horiz-adv-x="1019" d="M72 389l364 309l-237 310l133 108l233 -305l361 307l96 -119l-363 -311l236 -307l-131 -109l-234 306l-360 -308z" />
<glyph unicode="&#xd8;" d="M53 -2l180 201q-115 152 -114 376q0 223 91 421t268 324t401 126q221 0 372 -119l123 137h144v-45l-170 -188q115 -156 114 -371q0 -221 -88 -417.5t-265 -325.5t-409 -129q-221 0 -370 114l-133 -149h-144v45zM342 571q0 -125 33 -215l753 836q-94 94 -254 94 q-164 0 -289.5 -115.5t-184 -275.5t-58.5 -324zM451 236q94 -88 260 -89q125 0 228 67t166.5 173.5t97.5 230t34 244.5q0 117 -33 209z" />
<glyph unicode="&#xd9;" horiz-adv-x="1396" d="M162 555l203 879h225l-209 -904q-15 -65 -15 -119q0 -94 45 -156q71 -97 255 -97q152 0 241.5 73.5t130.5 245.5l219 957h193l-223 -971q-111 -475 -576 -475q-283 0 -418 147q-92 100 -91 259q0 74 20 161zM711 1659v65h198l86 -196v-49h-127z" />
<glyph unicode="&#xda;" horiz-adv-x="1396" d="M162 555l203 879h225l-209 -904q-15 -65 -15 -119q0 -94 45 -156q71 -97 255 -97q152 0 241.5 73.5t130.5 245.5l219 957h193l-223 -971q-111 -475 -576 -475q-283 0 -418 147q-92 100 -91 259q0 74 20 161zM848 1479v49l125 196h203v-65l-211 -180h-117z" />
<glyph unicode="&#xdb;" horiz-adv-x="1396" d="M162 555l203 879h225l-209 -904q-15 -65 -15 -119q0 -94 45 -156q71 -97 255 -97q152 0 241.5 73.5t130.5 245.5l219 957h193l-223 -971q-111 -475 -576 -475q-283 0 -418 147q-92 100 -91 259q0 74 20 161zM662 1479v59l217 193h147l148 -193v-59h-121l-117 112 l-166 -112h-108z" />
<glyph unicode="&#xdc;" horiz-adv-x="1396" d="M162 555l203 879h225l-209 -904q-15 -65 -15 -119q0 -94 45 -156q71 -97 255 -97q152 0 241.5 73.5t130.5 245.5l219 957h193l-223 -971q-111 -475 -576 -475q-283 0 -418 147q-92 100 -91 259q0 74 20 161zM635 1599q0 49 36 83t85 34q47 0 78.5 -32.5t31.5 -77.5 q0 -49 -35.5 -83t-85.5 -34q-47 0 -78.5 31.5t-31.5 78.5zM985 1599q0 49 36 83t85 34q47 0 79 -32.5t32 -77.5q0 -49 -36 -83t-85 -34t-80 31.5t-31 78.5z" />
<glyph unicode="&#xdd;" horiz-adv-x="1196" d="M248 1364v70h207l217 -656h2l493 656h172v-70l-606 -797l-129 -567h-225l135 588zM745 1479v49l125 196h203v-65l-211 -180h-117z" />
<glyph unicode="&#xde;" horiz-adv-x="1202" d="M45 0l330 1434h225l-65 -279h170q229 0 350 -93t121 -274q0 -242 -163 -362.5t-452 -120.5h-223l-68 -305h-225zM375 461h198q385 0 385 334q0 195 -270 194h-190z" />
<glyph unicode="&#xdf;" horiz-adv-x="1204" d="M18 0l238 1038q92 412 530 412q168 0 272.5 -72.5t104.5 -195.5q0 -90 -55 -154.5t-172 -142.5l-70 -48q-18 -13 -50 -39t-43 -45.5t-11 -39.5q0 -29 28.5 -52.5t106.5 -68.5q109 -63 162 -128t53 -159q0 -143 -105.5 -229t-290 -86t-290.5 82l31 143h69q53 -70 193 -70 q96 0 146 41t50 101q0 37 -22.5 68.5t-50 49t-84.5 48.5q-98 53 -142.5 103t-44.5 122q0 51 31 102t65.5 84t104.5 88l37 29l37 29l31 25q20 17 28 27l22 24q13 15 18 27.5t9 27t4 30.5q0 57 -48 92t-136 35q-250 0 -309 -266l-236 -1032h-211z" />
<glyph unicode="&#xe0;" horiz-adv-x="1034" d="M25 268q0 172 125.5 267.5t338.5 95.5q125 0 220 -35l20 88q11 48 11 88q0 160 -183 160q-162 0 -291 -74h-65l35 154q166 74 352 73q207 0 302 -103q63 -68 63 -185q0 -60 -17 -133l-154 -664h-63q-106 0 -113 111q-125 -121 -291 -121q-131 0 -210.5 72.5t-79.5 205.5z M223 283q0 -76 42 -116t118 -40q129 0 248 125l49 221q-82 31 -180 31q-131 0 -204 -58.5t-73 -162.5zM393 1368v66h199l98 -224v-49h-127z" />
<glyph unicode="&#xe1;" horiz-adv-x="1034" d="M25 268q0 172 125.5 267.5t338.5 95.5q125 0 220 -35l20 88q11 48 11 88q0 160 -183 160q-162 0 -291 -74h-65l35 154q166 74 352 73q207 0 302 -103q63 -68 63 -185q0 -60 -17 -133l-154 -664h-63q-106 0 -113 111q-125 -121 -291 -121q-131 0 -210.5 72.5t-79.5 205.5z M223 283q0 -76 42 -116t118 -40q129 0 248 125l49 221q-82 31 -180 31q-131 0 -204 -58.5t-73 -162.5zM555 1161v49l145 224h203v-66l-231 -207h-117z" />
<glyph unicode="&#xe2;" horiz-adv-x="1034" d="M25 268q0 172 125.5 267.5t338.5 95.5q125 0 220 -35l20 88q11 48 11 88q0 160 -183 160q-162 0 -291 -74h-65l35 154q166 74 352 73q207 0 302 -103q63 -68 63 -185q0 -60 -17 -133l-154 -664h-63q-106 0 -113 111q-125 -121 -291 -121q-131 0 -210.5 72.5t-79.5 205.5z M223 283q0 -76 42 -116t118 -40q129 0 248 125l49 221q-82 31 -180 31q-131 0 -204 -58.5t-73 -162.5zM358 1161v58l228 215h147l146 -215v-58h-121l-115 135l-174 -135h-111z" />
<glyph unicode="&#xe3;" horiz-adv-x="1034" d="M25 268q0 172 125.5 267.5t338.5 95.5q125 0 220 -35l20 88q11 48 11 88q0 160 -183 160q-162 0 -291 -74h-65l35 154q166 74 352 73q207 0 302 -103q63 -68 63 -185q0 -60 -17 -133l-154 -664h-63q-106 0 -113 111q-125 -121 -291 -121q-131 0 -210.5 72.5t-79.5 205.5z M223 283q0 -76 42 -116t118 -40q129 0 248 125l49 221q-82 31 -180 31q-131 0 -204 -58.5t-73 -162.5zM346 1176v59q57 166 195 166q51 0 121.5 -33t95.5 -33q49 0 78 70h114v-59q-55 -166 -194 -166q-49 0 -120 33.5t-93 33.5q-57 0 -82 -71h-115z" />
<glyph unicode="&#xe4;" horiz-adv-x="1034" d="M25 268q0 172 125.5 267.5t338.5 95.5q125 0 220 -35l20 88q11 48 11 88q0 160 -183 160q-162 0 -291 -74h-65l35 154q166 74 352 73q207 0 302 -103q63 -68 63 -185q0 -60 -17 -133l-154 -664h-63q-106 0 -113 111q-125 -121 -291 -121q-131 0 -210.5 72.5t-79.5 205.5z M223 283q0 -76 42 -116t118 -40q129 0 248 125l49 221q-82 31 -180 31q-131 0 -204 -58.5t-73 -162.5zM358 1303q0 49 35 82.5t84 33.5t81 -32.5t32 -77.5q0 -49 -37 -83t-86 -34q-47 0 -78 32t-31 79zM707 1303q0 49 35.5 82.5t84.5 33.5q47 0 79 -32.5t32 -77.5 q0 -49 -36 -83t-85 -34t-79.5 32t-30.5 79z" />
<glyph unicode="&#xe5;" horiz-adv-x="1034" d="M25 268q0 172 125.5 267.5t338.5 95.5q125 0 220 -35l20 88q11 48 11 88q0 160 -183 160q-162 0 -291 -74h-65l35 154q166 74 352 73q207 0 302 -103q63 -68 63 -185q0 -60 -17 -133l-154 -664h-63q-106 0 -113 111q-125 -121 -291 -121q-131 0 -210.5 72.5t-79.5 205.5z M223 283q0 -76 42 -116t118 -40q129 0 248 125l49 221q-82 31 -180 31q-131 0 -204 -58.5t-73 -162.5zM453 1348q0 88 61 145t145 57q82 0 137.5 -50t55.5 -134q0 -90 -61.5 -144.5t-145.5 -54.5q-82 0 -137 48.5t-55 132.5zM565 1348q0 -37 22.5 -59.5t57.5 -22.5 q41 0 68.5 28.5t27.5 71.5q0 39 -23.5 62.5t-60.5 23.5q-41 0 -66.5 -28.5t-25.5 -75.5z" />
<glyph unicode="&#xe6;" horiz-adv-x="1681" d="M25 268q0 172 125.5 268.5t338.5 96.5h228l12 51q11 48 11 88q0 160 -183 160q-162 0 -291 -74h-65l35 154q166 74 352 73q248 0 309 -161q156 162 375 161q176 0 265 -96t89 -266q0 -90 -33 -225h-698q-2 -27 -2 -78q0 -279 252 -279q174 0 297 95h76l-35 -150 q-156 -98 -359 -98q-281 0 -385 198q-156 -197 -405 -196q-145 0 -227 72.5t-82 205.5zM223 283q0 -76 43 -116t121 -40q188 0 309 182q-8 43 -8 107q0 55 4 82h-192q-133 0 -205 -56.5t-72 -158.5zM920 633h510q12 51 12 104q0 209 -185 209q-121 0 -209.5 -85t-127.5 -228 z" />
<glyph unicode="&#xe7;" horiz-adv-x="1009" d="M74 420q0 285 180 475t451 190q201 0 311 -100l-33 -139h-82q-59 84 -201 84q-186 0 -301.5 -147.5t-115.5 -360.5q0 -135 62.5 -207t186.5 -72q143 0 261 84h84l-35 -145q-131 -94 -324 -94q-25 0 -35 2l-12 -56q63 -4 97 -39.5t34 -91.5q0 -84 -59.5 -122.5 t-147.5 -38.5q-102 0 -164 45l23 90h51q16 -31 82 -31q76 0 76 53q0 47 -78 47h-45l35 156q-150 37 -225.5 145.5t-75.5 272.5z" />
<glyph unicode="&#xe8;" horiz-adv-x="1062" d="M70 416q0 272 160.5 470.5t414.5 198.5q178 0 271 -97q91 -95 92 -258q0 -111 -33 -232h-696q-2 -27 -3 -78q0 -279 252 -279q172 0 295 95h76l-37 -154q-145 -94 -356 -94t-323.5 112.5t-112.5 315.5zM303 633h508q12 55 12 104q0 209 -190 209q-119 0 -205 -85 t-125 -228zM428 1368v66h199l98 -224v-49h-127z" />
<glyph unicode="&#xe9;" horiz-adv-x="1062" d="M70 416q0 272 160.5 470.5t414.5 198.5q178 0 271 -97q91 -95 92 -258q0 -111 -33 -232h-696q-2 -27 -3 -78q0 -279 252 -279q172 0 295 95h76l-37 -154q-145 -94 -356 -94t-323.5 112.5t-112.5 315.5zM303 633h508q12 55 12 104q0 209 -190 209q-119 0 -205 -85 t-125 -228zM590 1161v49l145 224h203v-66l-231 -207h-117z" />
<glyph unicode="&#xea;" horiz-adv-x="1062" d="M70 416q0 272 160.5 470.5t414.5 198.5q178 0 271 -97q91 -95 92 -258q0 -111 -33 -232h-696q-2 -27 -3 -78q0 -279 252 -279q172 0 295 95h76l-37 -154q-145 -94 -356 -94t-323.5 112.5t-112.5 315.5zM303 633h508q12 55 12 104q0 209 -190 209q-119 0 -205 -85 t-125 -228zM403 1161v58l228 215h147l146 -215v-58h-121l-115 135l-174 -135h-111z" />
<glyph unicode="&#xeb;" horiz-adv-x="1062" d="M70 416q0 272 160.5 470.5t414.5 198.5q178 0 271 -97q91 -95 92 -258q0 -111 -33 -232h-696q-2 -27 -3 -78q0 -279 252 -279q172 0 295 95h76l-37 -154q-145 -94 -356 -94t-323.5 112.5t-112.5 315.5zM303 633h508q12 55 12 104q0 209 -190 209q-119 0 -205 -85 t-125 -228zM393 1303q0 49 35 82.5t84 33.5t81 -32.5t32 -77.5q0 -49 -37 -83t-86 -34q-47 0 -78 32t-31 79zM741 1303q0 49 36 82.5t85 33.5q47 0 79 -32.5t32 -77.5q0 -49 -36 -83t-85 -34t-80 32t-31 79z" />
<glyph unicode="&#xec;" horiz-adv-x="499" d="M23 0l245 1071h105q59 0 73 -27q6 -12 7 -37q0 -33 -11 -89l-211 -918h-208zM150 1368v66h198l98 -224v-49h-127z" />
<glyph unicode="&#xed;" horiz-adv-x="499" d="M23 0l245 1071h105q59 0 73 -27q6 -12 7 -37q0 -33 -11 -89l-211 -918h-208zM313 1161v49l146 224h203v-66l-232 -207h-117z" />
<glyph unicode="&#xee;" horiz-adv-x="499" d="M23 0l245 1071h105q59 0 73 -27q6 -12 7 -37q0 -33 -11 -89l-211 -918h-208zM121 1161v58l227 215h148l145 -215v-58h-121l-114 135l-175 -135h-110z" />
<glyph unicode="&#xef;" horiz-adv-x="499" d="M23 0l245 1071h105q59 0 73 -27q6 -12 7 -37q0 -33 -11 -89l-211 -918h-208zM115 1303q0 49 34.5 82.5t84 33.5t81 -32.5t31.5 -77.5q0 -49 -37 -83t-86 -34q-47 0 -77.5 32t-30.5 79zM463 1303q0 49 36 82.5t85 33.5q47 0 78.5 -32.5t31.5 -77.5q0 -49 -35.5 -83 t-85 -34t-80 32t-30.5 79z" />
<glyph unicode="&#xf0;" horiz-adv-x="1173" d="M74 426q0 264 154.5 446.5t365.5 182.5q176 0 260 -115q-49 147 -176 246l-105 -78h-135v41l135 98q-66 31 -137 49l33 138h72q98 -27 186 -74l98 72h133v-39l-131 -97q270 -207 271 -608q0 -319 -162 -508.5t-418 -189.5q-211 0 -327.5 117.5t-116.5 318.5zM281 416 q0 -131 62.5 -204t180.5 -73q166 0 265.5 149.5t99.5 348.5q0 129 -65.5 199.5t-182.5 70.5q-166 0 -263 -143t-97 -348z" />
<glyph unicode="&#xf1;" horiz-adv-x="1167" d="M18 0l246 1071h68q108 0 108 -114q0 -22 -4 -48q219 176 436 176q127 0 188 -91q38 -57 37 -139q0 -51 -14 -112l-172 -743h-131q-43 0 -55 22q-6 11 -6 30.5t6 47.5l145 641q9 40 10 71q0 106 -110 106q-152 0 -367 -156l-176 -762h-209zM420 1176v59q57 166 194 166 q51 0 122 -33t95 -33q49 0 78 70h115v-59q-55 -166 -195 -166q-49 0 -119.5 33.5t-93.5 33.5q-57 0 -81 -71h-115z" />
<glyph unicode="&#xf2;" horiz-adv-x="1173" d="M74 426q0 285 168 472t413 187q209 0 327 -118.5t118 -321.5q0 -287 -165 -471t-417 -184q-209 0 -326.5 116.5t-117.5 319.5zM281 422q0 -283 245 -283q166 0 266.5 150.5t100.5 359.5q0 141 -63.5 213t-178.5 72q-164 0 -267 -151.5t-103 -360.5zM455 1368v66h198 l99 -224v-49h-127z" />
<glyph unicode="&#xf3;" horiz-adv-x="1173" d="M74 426q0 285 168 472t413 187q209 0 327 -118.5t118 -321.5q0 -287 -165 -471t-417 -184q-209 0 -326.5 116.5t-117.5 319.5zM281 422q0 -283 245 -283q166 0 266.5 150.5t100.5 359.5q0 141 -63.5 213t-178.5 72q-164 0 -267 -151.5t-103 -360.5zM616 1161v49l146 224 h203v-66l-232 -207h-117z" />
<glyph unicode="&#xf4;" horiz-adv-x="1173" d="M74 426q0 285 168 472t413 187q209 0 327 -118.5t118 -321.5q0 -287 -165 -471t-417 -184q-209 0 -326.5 116.5t-117.5 319.5zM281 422q0 -283 245 -283q166 0 266.5 150.5t100.5 359.5q0 141 -63.5 213t-178.5 72q-164 0 -267 -151.5t-103 -360.5zM430 1161v58l227 215 h148l145 -215v-58h-121l-114 135l-174 -135h-111z" />
<glyph unicode="&#xf5;" horiz-adv-x="1173" d="M74 426q0 285 168 472t413 187q209 0 327 -118.5t118 -321.5q0 -287 -165 -471t-417 -184q-209 0 -326.5 116.5t-117.5 319.5zM281 422q0 -283 245 -283q166 0 266.5 150.5t100.5 359.5q0 141 -63.5 213t-178.5 72q-164 0 -267 -151.5t-103 -360.5zM408 1176v59 q57 166 194 166q51 0 122 -33t95 -33q49 0 78 70h115v-59q-55 -166 -195 -166q-49 0 -119.5 33.5t-93.5 33.5q-57 0 -82 -71h-114z" />
<glyph unicode="&#xf6;" horiz-adv-x="1173" d="M74 426q0 285 168 472t413 187q209 0 327 -118.5t118 -321.5q0 -287 -165 -471t-417 -184q-209 0 -326.5 116.5t-117.5 319.5zM281 422q0 -283 245 -283q166 0 266.5 150.5t100.5 359.5q0 141 -63.5 213t-178.5 72q-164 0 -267 -151.5t-103 -360.5zM420 1303 q0 49 34.5 82.5t84 33.5t81 -32.5t31.5 -77.5q0 -49 -36.5 -83t-86.5 -34q-47 0 -77.5 32t-30.5 79zM768 1303q0 49 36 82.5t85 33.5q47 0 78.5 -32.5t31.5 -77.5q0 -49 -35.5 -83t-85 -34t-80 32t-30.5 79z" />
<glyph unicode="&#xf7;" horiz-adv-x="1019" d="M76 623l41 170h905l-39 -170h-907zM354 365q0 55 40 93t95 38q53 0 88 -35t35 -86q0 -55 -41 -93t-96 -38q-53 0 -87 35t-34 86zM485 1040q0 55 40 93t95.5 38t89 -34.5t33.5 -85.5q0 -55 -39.5 -93t-95 -38t-89.5 34.5t-34 85.5z" />
<glyph unicode="&#xf8;" horiz-adv-x="1173" d="M18 -6l138 153q-82 111 -82 279q0 285 168 472t413 187q158 0 271 -73l88 98h127v-45l-125 -139q84 -117 84 -281q0 -287 -165 -471t-417 -184q-166 0 -274 71l-101 -112h-125v45zM274 422q0 -76 15 -125l522 586q-57 51 -160 51q-166 0 -271.5 -151.5t-105.5 -360.5z M356 188q59 -51 170 -51q168 0 269.5 151.5t101.5 360.5q0 66 -16 125z" />
<glyph unicode="&#xf9;" horiz-adv-x="1161" d="M82 328l172 743h135q43 0 54 -20q5 -10 6 -29q0 -20 -7 -51l-145 -639q-8 -39 -9 -70q0 -109 109 -108q141 0 348 149l177 768h213l-246 -1071h-55q-122 0 -123 116q0 20 4 44q-215 -174 -410 -174q-135 0 -199 89q-39 55 -39 139q0 52 15 114zM479 1368v66h199l98 -224 v-49h-127z" />
<glyph unicode="&#xfa;" horiz-adv-x="1161" d="M82 328l172 743h135q43 0 54 -20q5 -10 6 -29q0 -20 -7 -51l-145 -639q-8 -39 -9 -70q0 -109 109 -108q141 0 348 149l177 768h213l-246 -1071h-55q-122 0 -123 116q0 20 4 44q-215 -174 -410 -174q-135 0 -199 89q-39 55 -39 139q0 52 15 114zM635 1161v49l145 224h203 v-66l-231 -207h-117z" />
<glyph unicode="&#xfb;" horiz-adv-x="1161" d="M82 328l172 743h135q43 0 54 -20q5 -10 6 -29q0 -20 -7 -51l-145 -639q-8 -39 -9 -70q0 -109 109 -108q141 0 348 149l177 768h213l-246 -1071h-55q-122 0 -123 116q0 20 4 44q-215 -174 -410 -174q-135 0 -199 89q-39 55 -39 139q0 52 15 114zM446 1161v58l228 215h147 l146 -215v-58h-121l-115 135l-174 -135h-111z" />
<glyph unicode="&#xfc;" horiz-adv-x="1161" d="M82 328l172 743h135q43 0 54 -20q5 -10 6 -29q0 -20 -7 -51l-145 -639q-8 -39 -9 -70q0 -109 109 -108q141 0 348 149l177 768h213l-246 -1071h-55q-122 0 -123 116q0 20 4 44q-215 -174 -410 -174q-135 0 -199 89q-39 55 -39 139q0 52 15 114zM436 1303q0 49 35 82.5 t84 33.5t81 -32.5t32 -77.5q0 -49 -37 -83t-86 -34q-47 0 -78 32t-31 79zM784 1303q0 49 36 82.5t85 33.5q47 0 79 -32.5t32 -77.5q0 -49 -36 -83t-85 -34t-80 32t-31 79z" />
<glyph unicode="&#xfd;" horiz-adv-x="1050" d="M63 -270l252 374l-165 910v57h198l125 -739h2l443 739h176v-57l-842 -1346h-189v62zM571 1161v49l146 224h203v-66l-232 -207h-117z" />
<glyph unicode="&#xfe;" horiz-adv-x="1181" d="M-57 -332l403 1766h123q47 0 60 -25q6 -11 6 -34q0 -28 -9 -75l-88 -387q172 172 377 172q131 0 215 -94t84 -284q0 -309 -156.5 -507t-406.5 -198q-184 0 -295 111l-100 -445h-213zM287 244q88 -96 225 -97q184 0 288.5 158t104.5 395q0 113 -47 169.5t-127 56.5 q-141 0 -325 -154z" />
<glyph unicode="&#xff;" horiz-adv-x="1050" d="M63 -270l252 374l-165 910v57h198l125 -739h2l443 739h176v-57l-842 -1346h-189v62zM367 1303q0 49 34.5 82.5t84 33.5t81 -32.5t31.5 -77.5q0 -49 -37 -83t-86 -34q-47 0 -77.5 32t-30.5 79zM715 1303q0 49 35.5 82.5t85.5 33.5q47 0 78.5 -32.5t31.5 -77.5 q0 -49 -36 -83t-85 -34t-79.5 32t-30.5 79z" />
<glyph unicode="&#x152;" horiz-adv-x="2002" d="M119 561q0 166 52 321.5t149.5 278.5t251 198t341.5 75h1174l-39 -168h-647l-105 -453h486l-37 -160h-485l-113 -489h694l-39 -164h-1077q-303 0 -454.5 143.5t-151.5 417.5zM348 561q0 -188 87 -292.5t294 -104.5h193l254 1104h-256q-119 0 -216.5 -43t-162 -113 t-109.5 -163t-64.5 -190.5t-19.5 -197.5z" />
<glyph unicode="&#x153;" horiz-adv-x="1865" d="M74 426q0 285 168 472t413 187q287 0 375 -237q156 238 426 237q176 0 266 -96q88 -94 88 -259q0 -112 -32 -232h-697q-2 -27 -2 -78q0 -279 252 -279q172 0 295 95h76l-35 -150q-156 -98 -358 -98q-291 0 -369 229q-156 -227 -422 -227q-209 0 -326.5 116.5 t-117.5 319.5zM281 422q0 -283 245 -283q166 0 266.5 150.5t100.5 359.5q0 141 -63.5 213t-178.5 72q-164 0 -267 -151.5t-103 -360.5zM1106 633h508q12 55 12 104q0 209 -184 209q-121 0 -209 -86t-127 -227z" />
<glyph unicode="&#x178;" horiz-adv-x="1196" d="M248 1364v70h207l217 -656h2l493 656h172v-70l-606 -797l-129 -567h-225l135 588zM543 1599q0 49 35.5 83t85.5 34q47 0 78.5 -32.5t31.5 -77.5q0 -49 -36 -83t-85 -34q-47 0 -78.5 31.5t-31.5 78.5zM893 1599q0 49 36 83t85 34q47 0 78.5 -32.5t31.5 -77.5 q0 -49 -35.5 -83t-85 -34t-80 31.5t-30.5 78.5z" />
<glyph unicode="&#x2c6;" horiz-adv-x="849" d="M326 1161v58l227 215h147l146 -215v-58h-121l-115 135l-174 -135h-110z" />
<glyph unicode="&#x2dc;" horiz-adv-x="849" d="M289 1176v59q57 166 194 166q51 0 122 -33t95 -33q49 0 78 70h115v-59q-55 -166 -195 -166q-49 0 -119.5 33.5t-93.5 33.5q-57 0 -82 -71h-114z" />
<glyph unicode="&#x2013;" horiz-adv-x="897" d="M82 502l37 164h719l-37 -164h-719z" />
<glyph unicode="&#x2014;" horiz-adv-x="1490" d="M82 502l37 164h1313l-39 -164h-1311z" />
<glyph unicode="&#x2018;" horiz-adv-x="360" d="M193 1145q0 129 89 207t230 88l-23 -101q-123 -18 -122 -79q0 -18 30 -43q39 -33 39 -78q0 -53 -35.5 -88t-87 -35t-86 36t-34.5 93z" />
<glyph unicode="&#x2019;" horiz-adv-x="360" d="M160 1020l22 102q125 18 125 80q0 8 -3 14.5t-5 9.5t-10 10t-13 9q-41 31 -40 78q0 53 36.5 88t85.5 35q51 0 86 -36t35 -93q0 -129 -88 -208t-231 -89z" />
<glyph unicode="&#x201a;" horiz-adv-x="360" d="M-100 -180l22 102q123 14 123 80q0 18 -31 43q-39 29 -39 76q0 53 36 88t87.5 35t86 -35t34.5 -94q0 -127 -89 -206t-230 -89z" />
<glyph unicode="&#x201c;" horiz-adv-x="698" d="M193 1145q0 129 89 207t230 88l-23 -101q-123 -18 -122 -79q0 -18 30 -43q39 -33 39 -78q0 -53 -35.5 -88t-87 -35t-86 36t-34.5 93zM520 1145q0 129 89 207t231 88l-25 -101q-123 -18 -123 -79q0 -18 31 -43q41 -31 41 -78q0 -53 -37 -88t-86 -35q-51 0 -86 35t-35 94z " />
<glyph unicode="&#x201d;" horiz-adv-x="686" d="M160 1020l24 102q123 18 123 80q0 8 -3 14.5t-5 9.5t-10 10t-13 9q-41 31 -40 78q0 53 36.5 88t85.5 35q51 0 86 -36t35 -93q0 -129 -88 -208t-231 -89zM487 1020l23 102q123 18 123 80q0 18 -31 43q-41 33 -41 78q0 53 37 88t88 35t86 -36t35 -93q0 -129 -88.5 -208 t-231.5 -89z" />
<glyph unicode="&#x201e;" horiz-adv-x="686" d="M-100 -180l22 102q123 14 123 80q0 18 -31 43q-39 29 -39 76q0 53 36 88t87.5 35t86 -35t34.5 -94q0 -127 -89 -206t-230 -89zM225 -180l25 102q53 6 88 27.5t35 52.5q0 18 -31 43q-41 27 -41 76q0 53 37 88t86 35q51 0 86 -35t35 -94q0 -127 -89.5 -206t-230.5 -89z" />
<glyph unicode="&#x2022;" horiz-adv-x="647" d="M72 563q0 129 85 209t208 80q100 0 168.5 -62.5t68.5 -166.5q0 -131 -82 -210t-207 -79q-102 0 -171.5 62.5t-69.5 166.5z" />
<glyph unicode="&#x2026;" horiz-adv-x="1189" d="M-27 114.5q0 53.5 38 90.5t91.5 37t90 -36t36.5 -89.5t-37.5 -90t-91 -36.5t-90.5 35.5t-37 89zM379 114.5q0 53.5 38 90.5t91 37t90 -36t37 -89.5t-38 -90t-91 -36.5q-55 0 -91 35.5t-36 89zM784 114.5q0 53.5 38 90.5t91.5 37t90 -36t36.5 -89.5t-38.5 -90t-92 -36.5 t-89.5 35.5t-36 89z" />
<glyph unicode="&#x2039;" horiz-adv-x="616" d="M78 500l18 88l365 389h168v-53l-361 -400v-6l176 -377v-51h-168z" />
<glyph unicode="&#x203a;" horiz-adv-x="616" d="M-8 90v53l360 398v6l-176 377v53h168l199 -412l-19 -86l-364 -389h-168z" />
<glyph unicode="&#x20ac;" horiz-adv-x="1253" d="M53 522l31 133h121q8 66 24 129h-116l30 134h127q88 236 270.5 382t440.5 146q223 0 356 -96l-34 -154h-89q-86 84 -247 84q-168 0 -288 -97.5t-187 -264.5h462l-51 -134h-452q-16 -63 -25 -129h428l-49 -133h-387v-18q0 -180 75.5 -266t239.5 -86q180 0 320 108h77 l-34 -164q-156 -109 -383 -108q-240 0 -378 133t-138 385v16h-144z" />
<glyph unicode="&#x2122;" horiz-adv-x="1359" d="M244 1333l24 101h475l-24 -101h-170l-109 -467h-135l109 467h-170zM700 866l131 568h201l33 -361h2l201 361h209l-134 -568h-131l107 455h-2l-256 -455h-96l-43 455h-2l-105 -455h-115z" />
<glyph unicode="&#xe000;" horiz-adv-x="1070" d="M0 1070h1070v-1070h-1070v1070z" />
<glyph unicode="&#xfb01;" horiz-adv-x="1120" d="M63 0l205 926h-131l31 145h133l23 100q63 276 338 277q94 0 149 -21l-29 -131h-67q-78 0 -121 -28.5t-62 -102.5l-20 -94h213l-31 -145h-217l-209 -926h-205zM639 0l246 1071h104q59 0 75 -27q7 -11 7 -36q0 -33 -12 -90l-209 -918h-211zM924 1307q0 51 36.5 85.5 t88.5 34.5q49 0 81.5 -33.5t32.5 -80.5q0 -51 -36.5 -86t-88.5 -35q-49 0 -81.5 33t-32.5 82z" />
<glyph unicode="&#xfb02;" horiz-adv-x="1124" d="M63 0l205 926h-131l31 145h133l23 100q63 276 338 277q84 0 143 -18l-29 -134h-61q-78 0 -121 -28.5t-62 -102.5l-20 -94h213l-31 -145h-217l-209 -926h-205zM641 0l328 1434h123q47 0 59 -25q6 -11 6 -35q0 -28 -8 -74l-299 -1300h-209z" />
<glyph unicode="&#xfb03;" horiz-adv-x="1814" d="M63 0l205 926h-131l31 145h133l23 100q63 276 338 277q100 0 159 -23l-28 -129h-78q-78 0 -121 -28.5t-62 -102.5l-20 -94h213l-31 -145h-217l-209 -926h-205zM721 0l205 926h-131l30 145h133l23 100q63 276 338 277q100 0 160 -23l-29 -129h-78q-78 0 -121 -28.5 t-61 -102.5l-21 -94h213l-30 -145h-217l-209 -926h-205zM1337 0l246 1071h105q59 0 73 -27q6 -12 7 -37q0 -33 -11 -89l-211 -918h-209zM1618 1306.5q0 49.5 37 85t86 35.5t83 -33.5t34 -80.5q0 -51 -37 -86t-88 -35q-49 0 -82 32.5t-33 82z" />
<glyph unicode="&#xfb04;" horiz-adv-x="1818" d="M63 0l205 926h-131l31 145h133l23 100q63 276 338 277q100 0 159 -23l-28 -129h-78q-78 0 -121 -28.5t-62 -102.5l-20 -94h213l-31 -145h-217l-209 -926h-205zM721 0l205 926h-131l30 145h133l23 100q63 276 338 277q100 0 160 -23l-29 -129h-78q-78 0 -121 -28.5 t-61 -102.5l-21 -94h213l-30 -145h-217l-209 -926h-205zM1335 0l330 1434h121q47 0 60 -25q6 -11 6 -34q0 -28 -9 -75l-297 -1300h-211z" />
</font>
</defs>
</svg>
