<?xml version="1.0" standalone="no"?>
<!DOCTYPE svg PUBLIC "-//W3C//DTD SVG 1.1//EN" "http://www.w3.org/Graphics/SVG/1.1/DTD/svg11.dtd" >
<svg xmlns="http://www.w3.org/2000/svg">
<metadata>
This is a custom SVG webfont generated by Font Squirrel.
Copyright   : Copyright c Christian Schwartz 2007 All rights reserved
Designer    : Christian Schwartz
Foundry     : Schwartzco Inc
Foundry URL : httpchristianschwartzcom
</metadata>
<defs>
<font id="StagSansMediumItalic" horiz-adv-x="1165" >
<font-face units-per-em="2048" ascent="1638" descent="-410" />
<missing-glyph horiz-adv-x="389" />
<glyph unicode=" "  horiz-adv-x="389" />
<glyph unicode="&#x09;" horiz-adv-x="389" />
<glyph unicode="&#xa0;" horiz-adv-x="389" />
<glyph unicode="!" horiz-adv-x="540" d="M12 147q0 72 53.5 121t124.5 49q70 0 116 -47t46 -112q0 -72 -54 -121t-126 -49q-70 0 -115 45.5t-45 113.5zM141 422l138 835l40 177h320l-41 -177l-268 -835h-189z" />
<glyph unicode="&#x22;" horiz-adv-x="755" d="M207 975l22 309l35 150h279l-35 -150l-125 -309h-176zM578 975l22 309l35 150h278l-34 -150l-125 -309h-176z" />
<glyph unicode="#" horiz-adv-x="1032" d="M23 410l51 223h166l57 217h-158l54 223h165l97 361h202l-96 -361h187l96 361h203l-97 -361h160l-53 -223h-168l-58 -217h160l-51 -223h-172l-111 -410h-202l110 410h-186l-111 -410h-202l110 410h-153zM442 633h187l57 217h-186z" />
<glyph unicode="$" horiz-adv-x="1073" d="M-14 143l47 207h106q84 -113 213 -141l97 418q-295 121 -295 379q0 203 141 322.5t367 121.5l26 115h182l-30 -133q152 -31 260 -117l-45 -193h-105q-74 78 -159 103l-93 -400q154 -61 237 -148t83 -235q0 -211 -145.5 -332.5t-391.5 -125.5l-43 -193h-182l47 207 q-192 32 -317 145zM420 1044q0 -51 25.5 -84.5t86.5 -64.5l80 344q-82 -12 -137 -61.5t-55 -133.5zM532 203q199 33 199 209q0 51 -26.5 83.5t-90.5 63.5z" />
<glyph unicode="%" horiz-adv-x="1679" d="M123 -70l1288 1563h223l-1288 -1563h-223zM133 989q0 186 120 323.5t300 137.5q141 0 229 -84t88 -225q0 -182 -120.5 -319.5t-298.5 -137.5q-141 0 -229.5 85t-88.5 220zM362 983q0 -129 107 -131q55 0 97 52t58.5 116.5t16.5 126.5q0 135 -104 135q-57 0 -99.5 -53 t-59 -119t-16.5 -127zM893 287q0 186 120 324.5t300 138.5q141 0 228 -84t87 -226q0 -182 -119.5 -319t-298.5 -137q-141 0 -229 84t-88 219zM1122 283q0 -131 107 -131q82 0 127 96t45 198q0 135 -105 136q-82 0 -128 -98.5t-46 -200.5z" />
<glyph unicode="&#x26;" horiz-adv-x="1392" d="M18 383q0 152 105.5 270.5t275.5 175.5q-33 86 -32 170q0 195 139 323t377 128q197 0 323 -84l-45 -229h-110q-74 80 -181 80q-88 0 -144 -54.5t-56 -146.5q0 -86 80 -195l225 -309q115 207 137 336h250v-66q-68 -236 -242 -469l164 -231l6 -82h-309l-80 111 q-184 -129 -405 -129q-203 0 -340.5 100t-137.5 301zM340 412q0 -96 62.5 -150.5t162.5 -54.5q119 0 211 72l-287 391q-149 -84 -149 -258z" />
<glyph unicode="'" horiz-adv-x="385" d="M209 975l20 309l35 150h279l-35 -150l-123 -309h-176z" />
<glyph unicode="(" horiz-adv-x="690" d="M88 522q0 348 192.5 632t516.5 364h82l-50 -205q-207 -76 -334.5 -295t-127.5 -502q0 -332 182 -420l-45 -196h-64q-154 61 -253 216.5t-99 405.5z" />
<glyph unicode=")" horiz-adv-x="690" d="M-100 -100l49 204q207 76 335 295t128 502q0 332 -183 420l45 197h64q154 -61 253 -217t99 -406q0 -348 -192.5 -631.5t-515.5 -363.5h-82z" />
<glyph unicode="*" horiz-adv-x="782" d="M168 1124l108 205l84 -37l111 -106l-14 153l22 95h232l-27 -111l-80 -152l148 78l92 19l26 -219l-96 -19l-151 17l106 -107l37 -80l-213 -106l-39 82l-20 157l-99 -157l-71 -70l-148 160l74 67l147 76l-145 18z" />
<glyph unicode="+" horiz-adv-x="1042" d="M45 590l55 235h365l88 385h250l-88 -385h362l-55 -235h-363l-88 -385h-249l88 385h-365z" />
<glyph unicode="," horiz-adv-x="417" d="M-133 -225l29 131q68 6 110.5 30.5t42.5 57.5q0 8 -2 13t-6 9t-8 7.5t-14 9.5l-15 10q-51 35 -51 102q0 76 50 124t122 48t120 -47t48 -123q0 -170 -114.5 -266t-311.5 -106z" />
<glyph unicode="-" horiz-adv-x="579" d="M43 487l57 244h473l-57 -244h-473z" />
<glyph unicode="." horiz-adv-x="415" d="M-45 147q0 72 53 121t125 49q70 0 116 -47t46 -112q0 -72 -54.5 -121t-125.5 -49q-70 0 -115 45.5t-45 113.5z" />
<glyph unicode="/" horiz-adv-x="720" d="M-109 -39l799 1557h223v-62l-800 -1556h-222v61z" />
<glyph unicode="0" horiz-adv-x="1368" d="M90 522q0 231 84 439t260 348.5t410 140.5q242 0 382 -148.5t140 -398.5q0 -172 -49 -333.5t-140.5 -294t-236.5 -212t-322 -79.5q-242 0 -385 146t-143 392zM408 518q0 -150 51 -230.5t180 -80.5q104 0 188 75.5t129 190.5t69 228.5t24 209.5q0 313 -220 314 q-109 0 -194.5 -78t-132.5 -193.5t-70.5 -229.5t-23.5 -206z" />
<glyph unicode="1" horiz-adv-x="778" d="M147 999l52 222l407 213h213l-330 -1434h-319l250 1090l-191 -91h-82z" />
<glyph unicode="2" horiz-adv-x="1095" d="M-78 0l58 252l495 377q150 113 239 218t89 212q0 154 -193 153q-147 0 -311 -96h-100l53 232q182 102 412 102q207 0 333.5 -94t126.5 -287q0 -160 -108.5 -290t-339.5 -296l-324 -233h617l-58 -250h-989z" />
<glyph unicode="3" horiz-adv-x="1069" d="M-29 137l49 211h115q94 -131 279 -135h8q111 0 182 53q74 55 74 156q0 197 -229 196h-97l51 224h123q117 0 191 53t74 160q0 86 -52.5 127t-132.5 43h-7q-142 0 -267 -82h-117l49 215q168 94 387 94q84 0 157 -18.5t137.5 -58.5t102 -114.5t37.5 -179.5q0 -141 -86 -234 t-231 -126v-8q100 -27 158.5 -106t58.5 -191q0 -199 -159.5 -315.5t-401.5 -116.5q-289 -1 -453 153z" />
<glyph unicode="4" horiz-adv-x="1214" d="M4 303l62 266l847 865h304l-209 -908h172l-52 -223h-172l-69 -303h-314l70 303h-639zM301 526h393l121 525h-8l-506 -516v-9z" />
<glyph unicode="5" horiz-adv-x="1116" d="M-16 121l49 209h121q88 -119 268 -119q129 0 220 81t91 216q0 88 -52 136t-134 48q-137 0 -230 -96h-182l193 838h846l-58 -250h-616l-78 -334h6q92 70 238 70q174 0 281.5 -103.5t107.5 -290.5q0 -250 -180.5 -396t-446.5 -146q-290 0 -444 137z" />
<glyph unicode="6" horiz-adv-x="1243" d="M90 494q0 342 166 598q233 356 655 356q227 0 361 -94l-51 -211h-117q-74 80 -203 80q-240 0 -373 -222q-57 -94 -86 -215q147 121 338 121q174 0 284 -102.5t110 -296.5q0 -219 -160 -371.5t-416 -152.5q-233 0 -370.5 133t-137.5 377zM403 467q0 -276 207 -277 q117 0 187.5 86t70.5 226q0 92 -51 143t-153 51q-129 0 -252 -78q-9 -67 -9 -151z" />
<glyph unicode="7" horiz-adv-x="1069" d="M137 0v125l781 1051v8h-721l57 250h969l-64 -273l-706 -1161h-316z" />
<glyph unicode="8" horiz-adv-x="1220" d="M23 371q0 164 100 264t262 137v8q-76 37 -119 102.5t-43 143.5q0 197 151.5 310.5t381.5 113.5q217 0 343 -98.5t126 -268.5q0 -135 -78 -218t-207 -113v-9q207 -88 207 -303q0 -217 -163 -337.5t-433 -120.5q-70 0 -137.5 10t-140 36.5t-127 68.5t-89 113t-34.5 161z M332 389q0 -92 65.5 -145.5t161.5 -53.5q131 0 205 74t74 187q0 94 -56.5 152.5t-169.5 58.5q-129 0 -204.5 -78t-75.5 -195zM524 1022q0 -78 53.5 -119t129.5 -41q94 0 156.5 54.5t62.5 152.5q0 76 -48.5 121t-134.5 45q-96 0 -157.5 -56.5t-61.5 -156.5z" />
<glyph unicode="9" horiz-adv-x="1243" d="M37 74l49 207h117q78 -74 213 -74q223 0 344 147q90 109 129 279q-139 -111 -346 -111q-178 0 -285.5 98.5t-107.5 270.5q0 238 166.5 396.5t418.5 158.5q225 0 364.5 -132t139.5 -364q0 -424 -213 -696q-217 -272 -618 -272q-224 0 -371 92zM446 922q0 -184 211 -185 q143 0 261 68q8 74 8 172q0 117 -48.5 189.5t-152.5 72.5q-123 0 -201 -87t-78 -230z" />
<glyph unicode=":" horiz-adv-x="415" d="M-49 147q0 72 53 121t125 49q70 0 116 -47t46 -112q0 -72 -54.5 -121t-125.5 -49q-70 0 -115 45.5t-45 113.5zM86 741q0 72 53.5 121t124.5 49q70 0 116 -47t46 -112q0 -72 -54.5 -121t-125.5 -49q-70 0 -115 45.5t-45 113.5z" />
<glyph unicode=";" horiz-adv-x="415" d="M-137 -225l28 131q68 6 111 30.5t43 57.5q0 8 -2 13t-6 9t-8 7.5t-14 9.5l-15 10q-51 35 -51 102q0 76 51 124t123 48q70 0 118 -47t48 -123q0 -170 -114.5 -266t-311.5 -106zM86 741q0 72 53.5 121t124.5 49q70 0 116 -47t46 -112q0 -72 -54.5 -121t-125.5 -49 q-70 0 -115 45.5t-45 113.5z" />
<glyph unicode="&#x3c;" horiz-adv-x="892" d="M45 582l45 198l840 389h69l-55 -233l-579 -266v-6l454 -271l-49 -213h-70z" />
<glyph unicode="=" horiz-adv-x="997" d="M-10 311l55 236h916l-56 -236h-915zM90 741l53 236h916l-53 -236h-916z" />
<glyph unicode="&#x3e;" horiz-adv-x="892" d="M-41 180l53 234l580 266v6l-453 270l49 213h70l655 -401l-45 -199l-839 -389h-70z" />
<glyph unicode="?" horiz-adv-x="919" d="M117 147q0 72 53 121t125 49q70 0 116 -47t46 -112q0 -72 -54.5 -121t-126.5 -49q-70 0 -114.5 45.5t-44.5 113.5zM184 1147l52 223q139 82 342 82q180 0 296.5 -80t116.5 -256q0 -236 -293 -407q-129 -76 -186 -133.5t-74 -153.5h-213q12 137 54.5 221t164.5 176 q12 10 49 36l54.5 39t47.5 40t44 48.5t25.5 52t11.5 61.5q0 123 -152 123q-119 0 -223 -72h-117z" />
<glyph unicode="@" horiz-adv-x="1775" d="M51 477q0 205 83 377t216 281.5t295 170t324 60.5q338 0 560 -177t222 -493q0 -272 -143.5 -416.5t-354.5 -144.5q-223 0 -270 129q-109 -129 -266 -129q-119 0 -188.5 75t-69.5 218q0 195 127 353.5t332 158.5q127 0 208 -82q57 70 148 70h94l-113 -498q-5 -26 -5 -46 q0 -71 67 -71q100 0 160.5 96.5t60.5 286.5q0 231 -151.5 359.5t-417.5 128.5q-131 0 -253 -45t-220.5 -130t-157.5 -223.5t-59 -308.5q0 -297 164.5 -433t445.5 -136q291 0 524 137h72l-43 -190q-219 -129 -553 -129q-166 0 -312.5 43t-266.5 130t-189.5 235t-69.5 343z M723 428q0 -106 86 -106q92 0 166 79l78 334q-45 16 -99 17q-102 0 -166.5 -96.5t-64.5 -227.5z" />
<glyph unicode="A" horiz-adv-x="1361" d="M-70 0v84l762 1350h342l178 -1350v-84h-313l-41 379h-477l-199 -379h-252zM496 598h338l-56 528h-4z" />
<glyph unicode="B" horiz-adv-x="1245" d="M8 0l330 1434h422q223 0 348 -90.5t125 -260.5q0 -270 -307 -342v-8q233 -49 233 -284q0 -223 -170 -336t-432 -113h-549zM373 225h205q123 0 193.5 58.5t70.5 179.5q0 84 -50.5 131t-146.5 47h-176zM520 852h154q252 0 252 205q0 152 -187 151h-139z" />
<glyph unicode="C" horiz-adv-x="1263" d="M92 561q0 168 55.5 325.5t157 283.5t260 203t348.5 77q246 0 398 -102l-49 -213h-113q-94 84 -250 84q-127 0 -224 -64.5t-150.5 -168t-80 -212t-26.5 -217.5q0 -348 313 -348q152 0 285 92h121l-54 -231q-150 -86 -368 -86q-285 0 -454 145t-169 432z" />
<glyph unicode="D" horiz-adv-x="1417" d="M8 0l330 1434h440q293 0 457 -153t164 -433q0 -164 -51.5 -313.5t-147.5 -270.5t-252.5 -192.5t-349.5 -71.5h-590zM379 225h209q133 0 232.5 59.5t151.5 157t75.5 198.5t23.5 208q0 356 -299 356h-168z" />
<glyph unicode="E" horiz-adv-x="1153" d="M8 0l330 1434h913l-53 -232h-594l-84 -364h438l-51 -220h-438l-90 -393h641l-51 -225h-961z" />
<glyph unicode="F" horiz-adv-x="1116" d="M8 0l330 1434h932l-53 -232h-613l-92 -395h483l-49 -219h-483l-135 -588h-320z" />
<glyph unicode="G" horiz-adv-x="1368" d="M92 547q0 172 54.5 332.5t155.5 288.5t262 205t356 77q260 0 421 -107l-51 -219h-108q-102 94 -283 95q-125 0 -222 -63.5t-151.5 -167t-82 -218.5t-27.5 -231q0 -336 319 -336q80 0 139 18l74 320h-198l47 207h512l-154 -670q-158 -94 -434 -94q-283 0 -456 139 t-173 424z" />
<glyph unicode="H" horiz-adv-x="1419" d="M8 0l330 1434h319l-135 -590h527l135 590h319l-329 -1434h-320l143 618h-528l-141 -618h-320z" />
<glyph unicode="I" horiz-adv-x="587" d="M14 0l330 1434h322l-330 -1434h-322z" />
<glyph unicode="J" horiz-adv-x="935" d="M-57 78l49 213h104q61 -78 178 -78q82 0 127 42t64 126l242 1053h321l-254 -1100q-82 -350 -485 -350q-215 0 -346 94z" />
<glyph unicode="K" horiz-adv-x="1337" d="M8 0l330 1434h319l-151 -660l651 660h270v-86l-532 -519l301 -743v-86h-299l-244 614l-235 -225l-90 -389h-320z" />
<glyph unicode="L" horiz-adv-x="1093" d="M8 0l330 1434h319l-278 -1209h577l-51 -225h-897z" />
<glyph unicode="M" horiz-adv-x="1710" d="M8 0l330 1434h416l80 -953h6l514 953h440l-330 -1434h-315l250 1085h-6l-592 -1085h-193l-86 1085h-6l-250 -1085h-258z" />
<glyph unicode="N" horiz-adv-x="1404" d="M8 0l330 1434h362l301 -918h7l213 918h268l-330 -1434h-291l-348 1042h-6l-240 -1042h-266z" />
<glyph unicode="O" horiz-adv-x="1495" d="M92 590q0 225 92 419.5t270.5 317.5t405.5 123q281 0 449 -168t168 -438q0 -219 -87 -411.5t-267.5 -320.5t-415.5 -128q-283 0 -449 167t-166 439zM418 582q0 -170 72.5 -273.5t226.5 -103.5q109 0 195.5 62.5t137 161.5t76 207.5t25.5 213.5q0 164 -69.5 271.5 t-227.5 107.5q-111 0 -198 -64.5t-137 -165t-75.5 -209t-25.5 -208.5z" />
<glyph unicode="P" horiz-adv-x="1220" d="M8 0l330 1434h424q500 0 500 -406q0 -254 -167 -382t-470 -128h-179l-118 -518h-320zM496 733h145q313 0 313 305q0 82 -49 124t-166 42h-135z" />
<glyph unicode="Q" horiz-adv-x="1495" d="M92 590q0 225 92 419.5t270.5 317.5t405.5 123q281 0 449 -168t168 -438q0 -283 -129 -490t-373 -282v-6l422 -72l-56 -242h-122l-588 193q-272 90 -405.5 243.5t-133.5 401.5zM418 582q0 -379 303 -379q109 0 196 62.5t136 162.5t73.5 208.5t24.5 213.5 q0 164 -69.5 271.5t-227.5 107.5q-111 0 -198 -64.5t-137 -165t-75.5 -209t-25.5 -208.5z" />
<glyph unicode="R" horiz-adv-x="1286" d="M8 0l330 1434h434q498 0 498 -412q0 -154 -93.5 -264.5t-252.5 -161.5l215 -512v-84h-289l-221 561h-172l-129 -561h-320zM506 776h164q293 0 293 262q0 166 -213 166h-146z" />
<glyph unicode="S" horiz-adv-x="1085" d="M-16 137l49 219h106q113 -145 328 -145q104 0 176 47t72 152q0 39 -13.5 65.5t-54.5 52t-69.5 38t-108.5 42.5q-152 57 -228.5 147.5t-76.5 235.5q0 215 140 337t378 122q254 0 428 -137l-49 -207h-105q-123 117 -292 117q-92 0 -153.5 -44t-61.5 -135q0 -72 47 -107.5 t190 -90.5q162 -61 245 -147.5t83 -239.5q0 -227 -150.5 -351t-408.5 -124q-301 -1 -471 153z" />
<glyph unicode="T" horiz-adv-x="1169" d="M199 1208l51 226h1085l-51 -226h-383l-278 -1208h-320l279 1208h-383z" />
<glyph unicode="U" horiz-adv-x="1363" d="M129 580l197 854h319l-207 -893q-13 -57 -13 -105q0 -74 31 -128q50 -89 206 -89q131 0 205.5 69.5t111.5 229.5l211 916h266l-215 -934q-57 -248 -200.5 -382t-405.5 -134q-291 0 -431 158q-96 108 -96 272q0 77 21 166z" />
<glyph unicode="V" horiz-adv-x="1306" d="M231 1350v84h306l94 -1065h4l573 1065h250v-84l-756 -1350h-327z" />
<glyph unicode="W" horiz-adv-x="1878" d="M238 1350v84h299l8 -1041h4l473 1041h270l6 -1041h5l454 1041h264v-84l-632 -1350h-355l8 938h-4l-415 -938h-357z" />
<glyph unicode="X" horiz-adv-x="1331" d="M-31 0v90l539 658l-244 595v91h303l193 -508l385 508h258v-91l-496 -618l258 -635v-90h-303l-209 549l-426 -549h-258z" />
<glyph unicode="Y" horiz-adv-x="1212" d="M219 1343v91h297l180 -594h4l430 594h244v-91l-590 -798l-125 -545h-319l133 575z" />
<glyph unicode="Z" horiz-adv-x="1142" d="M-63 0l55 242l870 956v8h-596l53 228h967l-57 -248l-873 -957v-8h650l-50 -221h-1019z" />
<glyph unicode="[" horiz-adv-x="692" d="M0 -100l375 1618h485l-47 -197h-207l-282 -1225h206l-45 -196h-485z" />
<glyph unicode="\" horiz-adv-x="720" d="M197 1456v62h227l186 -1557v-61h-227z" />
<glyph unicode="]" horiz-adv-x="692" d="M-80 -100l45 196h207l283 1225h-207l47 197h485l-374 -1618h-486z" />
<glyph unicode="^" horiz-adv-x="862" d="M139 926v69l379 439h215l195 -439v-69h-221l-121 264h-6l-228 -264h-213z" />
<glyph unicode="_" horiz-adv-x="763" d="M-199 -332l45 191h770l-45 -191h-770z" />
<glyph unicode="`" horiz-adv-x="819" d="M301 1348v86h283l78 -220v-63h-181z" />
<glyph unicode="a" horiz-adv-x="1042" d="M6 276q0 174 126 272.5t341 98.5q113 0 186 -24l9 39q10 44 10 79q0 136 -152 136q-150 0 -264 -66h-86l49 213q164 68 353 68q233 0 334 -114q66 -75 67 -201q0 -66 -18 -146l-146 -631h-96q-115 0 -148 102q-111 -115 -274 -114q-131 0 -211 75.5t-80 212.5zM287 297 q0 -123 119 -123q86 0 169 80l46 205q-66 16 -129 16q-98 0 -151.5 -49t-53.5 -129z" />
<glyph unicode="b" horiz-adv-x="1189" d="M-8 0l327 1434h183q63 0 82 -31q9 -15 8 -46q0 -35 -10 -91l-72 -312q137 137 321 138q131 0 218.5 -96.5t87.5 -288.5q0 -332 -156 -526.5t-406 -194.5q-184 0 -292 127q-86 -113 -207 -113h-84zM350 248q63 -68 168 -68q156 0 239 143.5t83 364.5q0 88 -37 135t-98 47 q-96 0 -234 -92z" />
<glyph unicode="c" horiz-adv-x="991" d="M55 428q0 291 185.5 477.5t461.5 186.5q197 0 316 -91l-45 -192h-109q-55 66 -170 65q-154 0 -249 -126.5t-95 -317.5q0 -231 211 -231q115 0 209 63h111l-47 -203q-117 -74 -295 -73q-240 0 -362 117.5t-122 324.5z" />
<glyph unicode="d" horiz-adv-x="1189" d="M49 379q0 301 163 506t409 205q166 0 251 -101l103 445h180q63 0 82 -31q9 -15 9 -46q0 -35 -11 -91l-289 -1266h-74q-150 0 -172 131q-121 -147 -305 -147q-156 0 -251 96t-95 299zM346 391q0 -102 36 -151.5t118 -49.5q98 0 211 86l118 527q-68 63 -161 63 q-147 0 -234.5 -134t-87.5 -341z" />
<glyph unicode="e" horiz-adv-x="1054" d="M49 426q0 274 158 470t416 196q190 0 289 -104q97 -101 98 -276q0 -114 -35 -241h-635v-41q0 -125 51 -180t156 -55q143 0 264 75h96l-47 -207q-141 -78 -346 -77q-223 0 -344 112.5t-121 327.5zM365 651h378q8 39 9 80q0 84 -39 127t-109 43q-86 0 -147 -66.5 t-92 -183.5z" />
<glyph unicode="f" horiz-adv-x="686" d="M45 0l191 874h-127l43 201h127l18 82q68 297 375 297q119 0 184 -29l-39 -178h-63q-74 0 -111 -20.5t-49 -79.5l-16 -72h184l-43 -201h-187l-196 -874h-291z" />
<glyph unicode="g" horiz-adv-x="1177" d="M-20 -254l49 207h90q82 -88 252 -88q244 0 288 205l27 116q-135 -141 -315 -141q-139 0 -230.5 91t-91.5 267q0 293 162 491t412 198q166 0 282 -121q82 104 201 104h84l-234 -1012q-53 -227 -196.5 -321t-384.5 -94q-245 0 -395 98zM346 416q0 -162 133 -162 q119 0 246 102l106 469q-70 70 -167 70q-154 0 -236 -142t-82 -337z" />
<glyph unicode="h" horiz-adv-x="1171" d="M-8 0l327 1434h181q63 0 81.5 -31t-1.5 -137l-72 -318q186 143 383 144q129 0 193.5 -99.5t27.5 -263.5l-168 -729h-199q-53 0 -68 27.5t1 105.5l133 596q27 125 -74 125q-113 0 -274 -98l-172 -756h-299z" />
<glyph unicode="i" horiz-adv-x="532" d="M-6 0l246 1075h163q76 0 96 -34q9 -15 8 -48q0 -42 -13 -114l-201 -879h-299zM274 1313q0 68 50.5 115t119.5 47q66 0 110 -44.5t44 -107.5q0 -70 -51 -116t-121 -46q-66 0 -109 44.5t-43 107.5z" />
<glyph unicode="j" horiz-adv-x="528" d="M-242 -315l39 165h37q76 0 106.5 24t47.5 99l252 1102h163q76 0 96 -34q9 -15 8 -48q0 -42 -13 -114l-211 -924q-37 -164 -121 -231.5t-225 -67.5q-101 0 -179 29zM274 1313q0 68 50.5 115t119.5 47q66 0 110 -44.5t44 -107.5q0 -70 -51 -116t-121 -46q-66 0 -109 44.5 t-43 107.5z" />
<glyph unicode="k" horiz-adv-x="1073" d="M-8 0l327 1434h181q63 0 81.5 -31t-1.5 -137l-138 -598l414 407h260v-78l-407 -374l247 -541v-82h-276l-199 434l-116 -110l-74 -324h-299z" />
<glyph unicode="l" horiz-adv-x="538" d="M-6 0l328 1434h180q63 0 81.5 -31t-1.5 -137l-289 -1266h-299z" />
<glyph unicode="m" horiz-adv-x="1736" d="M-8 0l246 1075h94q156 0 160 -147q190 164 362 164q84 0 142.5 -43t78.5 -123q201 166 387 166q131 0 192.5 -97.5t22.5 -265.5l-170 -729h-198q-53 0 -68.5 27.5t0.5 105.5l133 596q27 125 -65 125q-82 0 -234 -92l-6 -33l-170 -729h-297l164 729q27 125 -66 125 q-86 0 -233 -94l-174 -760h-301z" />
<glyph unicode="n" horiz-adv-x="1171" d="M-8 0l246 1075h98q150 0 156 -139q195 156 399 156q129 0 193.5 -99.5t27.5 -263.5l-168 -729h-199q-53 0 -68 27.5t1 105.5l133 596q27 125 -74 125q-113 0 -274 -98l-172 -756h-299z" />
<glyph unicode="o" d="M55 438q0 291 171 472.5t415 181.5q221 0 345 -125t124 -336q0 -293 -166 -468t-418 -175q-223 0 -347 120.5t-124 329.5zM348 432q0 -238 189 -237q131 0 205.5 130t74.5 312q0 242 -184 242q-127 0 -206 -134.5t-79 -312.5z" />
<glyph unicode="p" horiz-adv-x="1179" d="M-82 -332l320 1407h98q150 0 160 -137q139 154 323 154q141 0 229.5 -98.5t88.5 -299.5q0 -319 -153 -500.5t-400 -181.5q-166 0 -265 90l-98 -434h-303zM358 270q68 -59 168 -59q152 0 233 130t81 347q0 88 -37 135t-98 47q-104 0 -230 -88z" />
<glyph unicode="q" horiz-adv-x="1189" d="M49 375q0 313 168 514t416 201q172 0 274 -121q84 106 203 106h84l-322 -1407h-301l107 465q-121 -121 -299 -121q-141 0 -235.5 90.5t-94.5 272.5zM346 395q0 -180 139 -180q113 0 234 100l115 502q-63 55 -175 55q-139 0 -226 -139t-87 -338z" />
<glyph unicode="r" horiz-adv-x="794" d="M-8 0l246 1075h94q170 0 160 -178q135 188 311 188q31 0 61 -10l-55 -252h-37q-190 0 -315 -106l-164 -717h-301z" />
<glyph unicode="s" horiz-adv-x="888" d="M-37 90l47 203h96q80 -94 238 -94q172 0 172 106q0 41 -30.5 63.5t-110.5 51.5q-145 51 -212 117.5t-67 185.5q0 168 117 265t319 97q205 0 345 -100l-46 -188h-90q-88 80 -221 80q-156 0 -155 -103q0 -37 31.5 -59.5t115.5 -52.5q141 -49 211 -113t70 -182 q0 -176 -123 -277.5t-334 -101.5q-236 0 -373 102z" />
<glyph unicode="t" horiz-adv-x="710" d="M106 334l125 540h-116l43 201h118l66 287h299l-66 -287h193l-43 -201h-197l-125 -546q-6 -26 -6 -47q0 -36 18 -58q28 -35 109 -35h51l-38 -178q-70 -27 -166 -26q-166 0 -234 92q-44 60 -44 150q0 49 13 108z" />
<glyph unicode="u" d="M61 346l170 729h199q53 0 69 -27q7 -13 7 -39q0 -27 -8 -67l-133 -596q-6 -27 -6 -48q0 -79 79 -79q104 0 252 92l174 764h299l-245 -1075h-78q-156 0 -170 141q-195 -158 -375 -157q-143 0 -209 95q-40 59 -40 146q-1 55 15 121z" />
<glyph unicode="v" horiz-adv-x="1060" d="M127 997v78h285l86 -729h4l366 729h246v-78l-545 -997h-299z" />
<glyph unicode="w" horiz-adv-x="1576" d="M133 997v78h281l41 -678h4l317 678h230l65 -678h4l301 678h240v-78l-488 -997h-258l-71 670h-4l-314 -670h-266z" />
<glyph unicode="x" horiz-adv-x="1069" d="M-51 0v78l409 485l-184 434v78h285l129 -327l268 327h246v-78l-383 -444l213 -475v-78h-285l-155 367l-297 -367h-246z" />
<glyph unicode="y" horiz-adv-x="1060" d="M35 -252l248 367l-156 882v78h281l98 -641h4l358 641h246v-78l-807 -1329h-272v80z" />
<glyph unicode="z" horiz-adv-x="970" d="M-70 0l47 207l646 657h-463l49 211h817l-47 -209l-651 -655h485l-49 -211h-834z" />
<glyph unicode="{" horiz-adv-x="751" d="M66 631l47 196h47q113 0 139 113l74 315q31 133 101.5 198t213.5 65h232l-48 -197h-151q-53 0 -70 -64l-71 -315q-43 -182 -236 -219v-6q138 -39 138 -168q0 -32 -9 -70l-74 -319q-3 -13 -3 -24q0 -40 48 -40h146l-45 -196h-150q-166 0 -234 73q-46 50 -47 129 q0 38 11 82l78 334q5 23 5 41q0 72 -85 72h-57z" />
<glyph unicode="|" horiz-adv-x="512" d="M184 -100l2 1618h236l-2 -1618h-236z" />
<glyph unicode="}" horiz-adv-x="751" d="M-80 -100l47 196h152q53 0 69 64l76 336q43 182 236 219v6q-172 49 -129 237l69 299q16 63 -45 64h-145l45 197h149q166 0 235 -74t36 -211l-74 -313q-27 -113 80 -113h57l-47 -197h-47q-113 0 -139 -112l-78 -336q-31 -133 -101.5 -197.5t-213.5 -64.5h-232z" />
<glyph unicode="~" horiz-adv-x="806" d="M49 440v92q27 98 91.5 158t158.5 60q61 0 145 -28t101 -28q57 0 80 62h166v-92q-27 -100 -91.5 -159t-158.5 -59q-53 0 -140.5 28t-105.5 28q-57 0 -80 -62h-166z" />
<glyph unicode="&#xa1;" horiz-adv-x="540" d="M-47 -147l41 176l268 835h189l-138 -835l-41 -176h-319zM240 1128q0 72 54 121t126 49q70 0 115 -46t45 -113q0 -72 -53.5 -121t-125.5 -49q-70 0 -115.5 46.5t-45.5 112.5z" />
<glyph unicode="&#xa2;" horiz-adv-x="1058" d="M55 436q0 270 177.5 453.5t443.5 200.5l26 116h183l-29 -123q123 -16 213 -82l-45 -192h-109q-41 43 -108 57l-154 -663q94 10 168 59h111l-47 -203q-104 -66 -283 -73l-45 -197h-182l47 209q-180 33 -273.5 148.5t-93.5 289.5zM350 442q0 -174 123 -225l150 643 q-129 -35 -201 -150.5t-72 -267.5z" />
<glyph unicode="&#xa3;" horiz-adv-x="1044" d="M-66 0l48 211q78 27 139 91.5t82 150.5q16 72 16 159h-145l47 209h90q-1 29 -1 57q0 100 17 179q45 195 191.5 294t365.5 99q244 0 375 -117l-47 -213h-108q-94 90 -230 90q-82 0 -148.5 -45t-86.5 -133q-16 -68 -21 -211h342l-47 -209h-299q-6 -78 -20 -141 q-35 -137 -132 -221h613l-57 -250h-984z" />
<glyph unicode="&#xa5;" horiz-adv-x="1191" d="M63 322l41 178h345l24 112h-342l41 179h254l-188 552v91h288l168 -549h4l392 549h245v-91l-420 -552h261l-41 -179h-347l-24 -112h344l-41 -178h-344l-74 -322h-315l74 322h-345z" />
<glyph unicode="&#xa6;" horiz-adv-x="509" d="M184 -100v731h236v-731h-236zM184 805v713h236v-713h-236z" />
<glyph unicode="&#xa7;" horiz-adv-x="1073" d="M-16 -158l47 201h100q100 -100 244 -100q180 0 180 106q0 51 -48 88t-169 82q-152 55 -222.5 132t-70.5 192q0 238 279 309q-76 76 -76 217q0 166 130 273.5t341 107.5q203 0 354 -92l-45 -201h-106q-94 74 -207 74q-88 0 -140.5 -32t-52.5 -85t38 -85t159 -73 q174 -59 253 -132.5t79 -200.5q0 -104 -68 -190.5t-213 -125.5q84 -78 84 -196q0 -174 -126 -276.5t-359 -102.5q-217 -1 -385 110zM326 606q0 -90 157 -147q123 -51 125 -51q158 43 158 149q0 53 -41 87t-133 67q-66 20 -105 39q-80 -12 -120.5 -51.5t-40.5 -92.5z" />
<glyph unicode="&#xa8;" horiz-adv-x="819" d="M242 1305q0 66 48 110.5t113 44.5q63 0 104.5 -43t41.5 -102q0 -66 -49 -111t-115 -45q-63 0 -103 42.5t-40 103.5zM635 1305q0 66 48 110.5t114 44.5q63 0 104 -43t41 -102q0 -66 -49 -111t-115 -45q-63 0 -103 42.5t-40 103.5z" />
<glyph unicode="&#xa9;" horiz-adv-x="1597" d="M109 717q0 340 213 536.5t522 196.5t522 -196.5t213 -536.5t-213 -536.5t-522 -196.5t-522 196.5t-213 536.5zM236 717q0 -293 173 -461t435 -168t435 168t173 461t-173 461t-435 168t-435 -168t-173 -461zM459 719q0 186 117.5 296.5t300.5 110.5q139 0 245 -53v-172 h-92q-61 57 -153 57q-86 0 -135.5 -62t-49.5 -179q0 -233 180 -234q106 0 170 60h82v-156q-111 -72 -258 -72q-193 0 -300 107t-107 297z" />
<glyph unicode="&#xaa;" horiz-adv-x="915" d="M119 764q0 154 112.5 233.5t298.5 79.5q90 0 172 -20l7 22q7 32 7 59q0 113 -136 113q-133 0 -236 -59h-82l47 197q143 61 326 61q205 0 296 -96q61 -64 61 -177q0 -55 -15 -122l-121 -527h-86q-117 0 -141 101q-92 -111 -258 -111q-119 0 -185.5 66.5t-66.5 179.5z M385 784q0 -94 92 -94q74 0 158 66l35 151q-55 16 -117 17q-80 0 -124 -36t-44 -104z" />
<glyph unicode="&#xab;" horiz-adv-x="1054" d="M61 489l27 117l326 377h241v-65l-331 -398v-6l139 -367v-65h-238zM494 489l26 117l326 377h241v-65l-331 -398v-6l139 -367v-65h-238z" />
<glyph unicode="&#xad;" horiz-adv-x="579" d="M43 487l57 244h473l-57 -244h-473z" />
<glyph unicode="&#xae;" horiz-adv-x="790" d="M143 1083q0 168 111 267.5t266 99.5q154 0 265.5 -99.5t111.5 -267.5q0 -166 -111.5 -266t-265.5 -100q-156 0 -266.5 100t-110.5 266zM229 1083.5q0 -141.5 82 -217t209 -75.5t209 75.5t82 217t-82 217t-209 75.5t-209 -75.5t-82 -217zM369 903v379h163q156 0 156 -125 q0 -68 -59 -100l67 -117v-37h-110l-66 129h-35v-129h-116zM485 1108h37q49 0 49 51q0 47 -49 47h-37v-98z" />
<glyph unicode="&#xaf;" horiz-adv-x="819" d="M299 1196l47 201h533l-48 -201h-532z" />
<glyph unicode="&#xb0;" horiz-adv-x="712" d="M190 1145q0 135 94.5 218t223.5 83q123 0 204 -79t81 -198q0 -137 -94.5 -219t-223.5 -82q-123 0 -204 79t-81 198zM352 1147q0 -63 36 -102t95 -39q66 0 109 44t43 117q0 61 -37 101.5t-98 40.5q-66 0 -107 -43t-41 -119z" />
<glyph unicode="&#xb2;" horiz-adv-x="688" d="M80 645l41 178l244 176q174 123 174 201q0 72 -88 72q-84 0 -152 -53h-78l39 170q102 57 239.5 57t209 -59.5t71.5 -159.5q0 -90 -63.5 -164t-200.5 -162l-131 -84h311l-41 -172h-575z" />
<glyph unicode="&#xb3;" horiz-adv-x="677" d="M88 721l33 143h80q63 -74 157 -73q53 0 87 24.5t34 65.5q0 86 -112 86h-66l35 147h88q53 0 84 23.5t31 62.5q0 80 -103 80q-61 0 -135 -41h-78l35 154q94 55 225 55q127 0 201 -52.5t74 -160.5q0 -160 -193 -199v-4q135 -33 135 -164q0 -109 -93 -172t-240 -63 q-173 0 -279 88z" />
<glyph unicode="&#xb4;" horiz-adv-x="819" d="M471 1151v63l107 220h290v-86l-235 -197h-162z" />
<glyph unicode="&#xb6;" horiz-adv-x="1212" d="M156 963q0 133 52 229t143 146.5t196.5 73t232.5 22.5h516l-374 -1620h-213l327 1411h-145l-328 -1411h-213l187 807h-7q-164 0 -269 92t-105 250z" />
<glyph unicode="&#xb7;" horiz-adv-x="415" d="M55 600q0 72 53.5 121t124.5 49q70 0 116 -47t46 -113q0 -72 -54 -121t-126 -49q-70 0 -115 46t-45 114z" />
<glyph unicode="&#xb8;" horiz-adv-x="819" d="M61 -317l27 114h59q18 -29 72 -28q63 0 64 38q0 37 -66 37h-53l37 156h141l-12 -49q66 -2 99.5 -39t33.5 -94q0 -94 -65.5 -135t-166.5 -41q-111 0 -170 41z" />
<glyph unicode="&#xb9;" horiz-adv-x="538" d="M190 1143l41 176l244 115h174l-182 -789h-240l127 553l-118 -55h-46z" />
<glyph unicode="&#xba;" horiz-adv-x="1064" d="M152 905q0 244 155.5 394.5t370.5 150.5q186 0 309 -103.5t123 -285.5q0 -244 -158.5 -394.5t-371.5 -150.5q-193 0 -310.5 107.5t-117.5 281.5zM428 897q0 -92 44 -139t118 -47q96 0 170 98t74 260q0 88 -41 140.5t-121 52.5q-94 0 -169 -97.5t-75 -267.5z" />
<glyph unicode="&#xbb;" horiz-adv-x="1054" d="M-27 82v65l332 398v6l-139 367v65h237l164 -408l-26 -116l-326 -377h-242zM406 82v65l331 398v6l-139 367v65h238l163 -408l-26 -116l-326 -377h-241z" />
<glyph unicode="&#xbc;" horiz-adv-x="1486" d="M14 -70l1289 1563h223l-1288 -1563h-224zM188 1143l41 176l244 115h174l-182 -789h-240l127 553l-119 -55h-45zM705 162l40 174l463 452h217l-110 -477h82l-35 -149h-82l-37 -162h-217l37 162h-358zM905 311h195l57 244h-6l-246 -240v-4z" />
<glyph unicode="&#xbd;" horiz-adv-x="1583" d="M14 -70l1289 1563h223l-1288 -1563h-224zM188 1143l41 176l244 115h174l-182 -789h-240l127 553l-119 -55h-45zM825 0l41 178l244 176q174 123 174 201q0 72 -88 72q-84 0 -152 -54h-77l39 170q102 57 239 57.5t209 -59t72 -159.5q0 -90 -64.5 -163t-204.5 -163l-131 -84 h316l-41 -172h-576z" />
<glyph unicode="&#xbe;" horiz-adv-x="1581" d="M98 721l33 143h80q63 -74 156 -73q51 0 82.5 23.5t31.5 66.5q0 86 -108 86h-62l35 147h84q53 0 82 23.5t29 62.5q0 80 -95 80q-61 0 -135 -41h-78l35 154q94 55 226 55q127 0 200.5 -52.5t73.5 -160.5q0 -160 -193 -199v-4q135 -33 136 -164q0 -109 -93.5 -172 t-240.5 -63q-173 0 -279 88zM121 -70l1288 1563h223l-1288 -1563h-223zM799 162l41 174l463 452h217l-111 -477h82l-35 -149h-82l-37 -162h-217l37 162h-358zM999 311h195l57 244h-6l-246 -240v-4z" />
<glyph unicode="&#xbf;" horiz-adv-x="919" d="M-10 170q0 236 293 408q129 76 186 133t74 153h213q-12 -137 -54.5 -221t-164.5 -176q-12 -10 -49 -35.5t-54.5 -39t-47.5 -40t-44 -48t-25.5 -52.5t-11.5 -62q0 -123 152 -122q119 0 223 71h117l-52 -223q-139 -82 -342 -82q-180 0 -296.5 80t-116.5 256zM524 1128 q0 72 54.5 121t126.5 49q70 0 114.5 -46t44.5 -113q0 -72 -53 -121t-125 -49q-70 0 -116 46.5t-46 112.5z" />
<glyph unicode="&#xc0;" horiz-adv-x="1361" d="M-70 0v84l762 1350h342l178 -1350v-84h-313l-41 379h-477l-199 -379h-252zM496 598h338l-56 528h-4zM614 1655v86h283l70 -199v-63h-181z" />
<glyph unicode="&#xc1;" horiz-adv-x="1361" d="M-70 0v84l762 1350h342l178 -1350v-84h-313l-41 379h-477l-199 -379h-252zM496 598h338l-56 528h-4zM766 1479v63l96 199h291v-86l-225 -176h-162z" />
<glyph unicode="&#xc2;" horiz-adv-x="1361" d="M-70 0v84l762 1350h342l178 -1350v-84h-313l-41 379h-477l-199 -379h-252zM496 598h338l-56 528h-4zM569 1479v75l215 195h205l150 -195v-75h-168l-107 86l-143 -86h-152z" />
<glyph unicode="&#xc3;" horiz-adv-x="1361" d="M-70 0v84l762 1350h342l178 -1350v-84h-313l-41 379h-477l-199 -379h-252zM496 598h338l-56 528h-4zM541 1479v77q66 193 225 193q53 0 124 -26.5t91 -26.5q45 0 72 55h153v-78q-66 -193 -225 -192q-53 0 -123 28.5t-90 28.5q-51 0 -74 -59h-153z" />
<glyph unicode="&#xc4;" horiz-adv-x="1361" d="M-70 0v84l762 1350h342l178 -1350v-84h-313l-41 379h-477l-199 -379h-252zM496 598h338l-56 528h-4zM539 1624q0 66 48 111t113 45q63 0 104.5 -43t41.5 -103q0 -66 -49 -110.5t-115 -44.5q-63 0 -103 42t-40 103zM932 1624q0 66 48 111t114 45q63 0 104 -43t41 -103 q0 -66 -49 -110.5t-115 -44.5q-63 0 -103 42t-40 103z" />
<glyph unicode="&#xc5;" horiz-adv-x="1361" d="M-70 0v84l762 1350h342l178 -1350v-84h-313l-41 379h-477l-199 -379h-252zM496 598h338l-56 528h-4zM694 1675q0 96 66.5 157.5t157.5 61.5q88 0 147 -53t59 -143q0 -96 -65.5 -155.5t-157.5 -59.5q-88 0 -147.5 52t-59.5 140zM836 1677q0 -68 67 -67q35 0 58.5 23.5 t23.5 62.5q0 33 -19.5 52t-52.5 19q-35 0 -56 -24.5t-21 -65.5z" />
<glyph unicode="&#xc6;" horiz-adv-x="1908" d="M-88 0v84l958 1350h1137l-53 -232h-594l-84 -364h438l-51 -220h-438l-90 -393h641l-52 -225h-960l88 383h-426l-262 -383h-252zM578 602h323l139 600h-49z" />
<glyph unicode="&#xc7;" horiz-adv-x="1263" d="M92 561q0 168 55.5 325.5t157 283.5t260 203t348.5 77q246 0 398 -102l-49 -213h-113q-94 84 -250 84q-127 0 -224 -64.5t-150.5 -168t-80 -212t-26.5 -217.5q0 -348 313 -348q152 0 285 92h121l-54 -231q-150 -86 -368 -86q-12 0 -35 1t-33 1l-8 -35q66 -2 99.5 -39 t33.5 -94q0 -94 -65.5 -135t-165.5 -41q-111 0 -170 41l26 114h60q18 -29 71 -28q63 0 64 38q0 37 -66 37h-53l37 160q-197 47 -307.5 186.5t-110.5 370.5z" />
<glyph unicode="&#xc8;" horiz-adv-x="1153" d="M8 0l330 1434h913l-53 -232h-594l-84 -364h438l-51 -220h-438l-90 -393h641l-51 -225h-961zM549 1655v86h282l70 -199v-63h-180z" />
<glyph unicode="&#xc9;" horiz-adv-x="1153" d="M8 0l330 1434h913l-53 -232h-594l-84 -364h438l-51 -220h-438l-90 -393h641l-51 -225h-961zM700 1479v63l97 199h290v-86l-225 -176h-162z" />
<glyph unicode="&#xca;" horiz-adv-x="1153" d="M8 0l330 1434h913l-53 -232h-594l-84 -364h438l-51 -220h-438l-90 -393h641l-51 -225h-961zM504 1479v75l215 195h205l149 -195v-75h-168l-106 86l-144 -86h-151z" />
<glyph unicode="&#xcb;" horiz-adv-x="1153" d="M8 0l330 1434h913l-53 -232h-594l-84 -364h438l-51 -220h-438l-90 -393h641l-51 -225h-961zM473 1624q0 66 48 111t114 45q63 0 104 -43t41 -103q0 -66 -49 -110.5t-115 -44.5q-63 0 -103 42t-40 103zM866 1624q0 66 48.5 111t113.5 45q63 0 104.5 -43t41.5 -103 q0 -66 -49.5 -110.5t-114.5 -44.5q-63 0 -103.5 42t-40.5 103z" />
<glyph unicode="&#xcc;" horiz-adv-x="587" d="M14 0l330 1434h322l-330 -1434h-322zM264 1655v86h283l69 -199v-63h-180z" />
<glyph unicode="&#xcd;" horiz-adv-x="587" d="M14 0l330 1434h322l-330 -1434h-322zM416 1479v63l96 199h291v-86l-225 -176h-162z" />
<glyph unicode="&#xce;" horiz-adv-x="587" d="M14 0l330 1434h322l-330 -1434h-322zM219 1479v75l215 195h205l149 -195v-75h-167l-107 86l-143 -86h-152z" />
<glyph unicode="&#xcf;" horiz-adv-x="587" d="M14 0l330 1434h322l-330 -1434h-322zM188 1624q0 66 48.5 111t113.5 45q63 0 104.5 -43t41.5 -103q0 -66 -49.5 -110.5t-114.5 -44.5q-63 0 -103.5 42t-40.5 103zM582 1624q0 66 48 111t113 45q63 0 104.5 -43t41.5 -103q0 -66 -49 -110.5t-115 -44.5q-63 0 -103 42 t-40 103z" />
<glyph unicode="&#xd0;" horiz-adv-x="1421" d="M8 0l139 604h-124l49 219h125l141 611h440q293 0 457 -153t164 -433q0 -164 -51.5 -313.5t-147.5 -270.5t-252.5 -192.5t-349.5 -71.5h-590zM379 225h209q133 0 232.5 59.5t151.5 157t75.5 198.5t23.5 208q0 356 -299 356h-168l-88 -381h305l-49 -219h-307z" />
<glyph unicode="&#xd1;" horiz-adv-x="1404" d="M8 0l330 1434h362l301 -918h7l213 918h268l-330 -1434h-291l-348 1042h-6l-240 -1042h-266zM645 1479v77q66 193 225 193q53 0 124 -26.5t91 -26.5q45 0 72 55h154v-78q-66 -193 -226 -192q-53 0 -122.5 28.5t-90.5 28.5q-51 0 -73 -59h-154z" />
<glyph unicode="&#xd2;" horiz-adv-x="1495" d="M92 590q0 225 92 419.5t270.5 317.5t405.5 123q281 0 449 -168t168 -438q0 -219 -87 -411.5t-267.5 -320.5t-415.5 -128q-283 0 -449 167t-166 439zM418 582q0 -170 72.5 -273.5t226.5 -103.5q109 0 195.5 62.5t137 161.5t76 207.5t25.5 213.5q0 164 -69.5 271.5 t-227.5 107.5q-111 0 -198 -64.5t-137 -165t-75.5 -209t-25.5 -208.5zM645 1655v86h283l69 -199v-63h-180z" />
<glyph unicode="&#xd3;" horiz-adv-x="1495" d="M92 590q0 225 92 419.5t270.5 317.5t405.5 123q281 0 449 -168t168 -438q0 -219 -87 -411.5t-267.5 -320.5t-415.5 -128q-283 0 -449 167t-166 439zM418 582q0 -170 72.5 -273.5t226.5 -103.5q109 0 195.5 62.5t137 161.5t76 207.5t25.5 213.5q0 164 -69.5 271.5 t-227.5 107.5q-111 0 -198 -64.5t-137 -165t-75.5 -209t-25.5 -208.5zM797 1479v63l96 199h291v-86l-226 -176h-161z" />
<glyph unicode="&#xd4;" horiz-adv-x="1495" d="M92 590q0 225 92 419.5t270.5 317.5t405.5 123q281 0 449 -168t168 -438q0 -219 -87 -411.5t-267.5 -320.5t-415.5 -128q-283 0 -449 167t-166 439zM418 582q0 -170 72.5 -273.5t226.5 -103.5q109 0 195.5 62.5t137 161.5t76 207.5t25.5 213.5q0 164 -69.5 271.5 t-227.5 107.5q-111 0 -198 -64.5t-137 -165t-75.5 -209t-25.5 -208.5zM600 1479v75l215 195h205l149 -195v-75h-168l-106 86l-143 -86h-152z" />
<glyph unicode="&#xd5;" horiz-adv-x="1495" d="M92 590q0 225 92 419.5t270.5 317.5t405.5 123q281 0 449 -168t168 -438q0 -219 -87 -411.5t-267.5 -320.5t-415.5 -128q-283 0 -449 167t-166 439zM418 582q0 -170 72.5 -273.5t226.5 -103.5q109 0 195.5 62.5t137 161.5t76 207.5t25.5 213.5q0 164 -69.5 271.5 t-227.5 107.5q-111 0 -198 -64.5t-137 -165t-75.5 -209t-25.5 -208.5zM584 1479v77q66 193 225 193q53 0 124 -26.5t91 -26.5q45 0 72 55h153v-78q-66 -193 -225 -192q-53 0 -123 28.5t-90 28.5q-51 0 -74 -59h-153z" />
<glyph unicode="&#xd6;" horiz-adv-x="1495" d="M92 590q0 225 92 419.5t270.5 317.5t405.5 123q281 0 449 -168t168 -438q0 -219 -87 -411.5t-267.5 -320.5t-415.5 -128q-283 0 -449 167t-166 439zM418 582q0 -170 72.5 -273.5t226.5 -103.5q109 0 195.5 62.5t137 161.5t76 207.5t25.5 213.5q0 164 -69.5 271.5 t-227.5 107.5q-111 0 -198 -64.5t-137 -165t-75.5 -209t-25.5 -208.5zM569 1624q0 66 48.5 111t113.5 45q63 0 104.5 -43t41.5 -103q0 -66 -49.5 -110.5t-114.5 -44.5q-63 0 -103.5 42t-40.5 103zM963 1624q0 66 48 111t113 45q63 0 104.5 -43t41.5 -103q0 -66 -49.5 -110.5 t-114.5 -44.5q-63 0 -103 42t-40 103z" />
<glyph unicode="&#xd7;" horiz-adv-x="1050" d="M57 397l355 303l-236 304l182 147l230 -299l350 299l129 -160l-352 -303l233 -303l-178 -147l-231 299l-349 -299z" />
<glyph unicode="&#xd8;" horiz-adv-x="1495" d="M39 16l174 193q-121 162 -121 381q0 225 92 419.5t270.5 317.5t405.5 123q211 0 367 -107l102 113h199v-55l-166 -187q115 -156 115 -370q0 -219 -87 -411.5t-266.5 -320.5t-416.5 -128q-207 0 -359 100l-110 -123h-199v55zM412 582q0 -84 10 -138l637 711 q-74 74 -205 74q-111 0 -199 -64.5t-139 -165t-77.5 -209t-26.5 -208.5zM512 266q74 -63 209 -63q109 0 197 63.5t138 162.5t75.5 207.5t25.5 213.5q0 57 -10 125z" />
<glyph unicode="&#xd9;" horiz-adv-x="1363" d="M129 580l197 854h319l-207 -893q-13 -57 -13 -105q0 -74 31 -128q50 -89 206 -89q131 0 205.5 69.5t111.5 229.5l211 916h266l-215 -934q-57 -248 -200.5 -382t-405.5 -134q-291 0 -431 158q-96 108 -96 272q0 77 21 166zM670 1655v86h282l70 -199v-63h-180z" />
<glyph unicode="&#xda;" horiz-adv-x="1363" d="M129 580l197 854h319l-207 -893q-13 -57 -13 -105q0 -74 31 -128q50 -89 206 -89q131 0 205.5 69.5t111.5 229.5l211 916h266l-215 -934q-57 -248 -200.5 -382t-405.5 -134q-291 0 -431 158q-96 108 -96 272q0 77 21 166zM821 1479v63l97 199h290v-86l-225 -176h-162z " />
<glyph unicode="&#xdb;" horiz-adv-x="1363" d="M129 580l197 854h319l-207 -893q-13 -57 -13 -105q0 -74 31 -128q50 -89 206 -89q131 0 205.5 69.5t111.5 229.5l211 916h266l-215 -934q-57 -248 -200.5 -382t-405.5 -134q-291 0 -431 158q-96 108 -96 272q0 77 21 166zM625 1479v75l215 195h204l150 -195v-75h-168 l-106 86l-144 -86h-151z" />
<glyph unicode="&#xdc;" horiz-adv-x="1363" d="M129 580l197 854h319l-207 -893q-13 -57 -13 -105q0 -74 31 -128q50 -89 206 -89q131 0 205.5 69.5t111.5 229.5l211 916h266l-215 -934q-57 -248 -200.5 -382t-405.5 -134q-291 0 -431 158q-96 108 -96 272q0 77 21 166zM569 1624q0 66 48.5 111t113.5 45 q63 0 104.5 -43t41.5 -103q0 -66 -49.5 -110.5t-114.5 -44.5q-63 0 -103.5 42t-40.5 103zM963 1624q0 66 48 111t113 45q63 0 104.5 -43t41.5 -103q0 -66 -49.5 -110.5t-114.5 -44.5q-63 0 -103 42t-40 103z" />
<glyph unicode="&#xdd;" horiz-adv-x="1212" d="M219 1343v91h297l180 -594h4l430 594h244v-91l-590 -798l-125 -545h-319l133 575zM735 1479v63l96 199h291v-86l-225 -176h-162z" />
<glyph unicode="&#xde;" horiz-adv-x="1210" d="M8 0l330 1434h319l-61 -265h109q246 0 372.5 -101t126.5 -290q0 -242 -168 -368.5t-469 -126.5h-176l-63 -283h-320zM440 498h144q313 0 313 290q0 76 -49 114t-166 38h-139z" />
<glyph unicode="&#xdf;" horiz-adv-x="1230" d="M-8 0l241 1055q39 180 175.5 289.5t379.5 109.5q180 0 298 -80t118 -215q0 -92 -44 -153.5t-148 -128.5q-47 -31 -69 -47l-52 -38q-31 -24 -44 -43.5t-13 -35.5q0 -27 22.5 -46.5t95.5 -62.5q109 -63 157 -130.5t48 -160.5q0 -152 -109.5 -238.5t-302.5 -86.5 q-182 0 -299 82l46 200h90q47 -66 170 -65q66 0 98.5 24.5t32.5 55.5q0 37 -23.5 58.5t-87.5 55.5q-12 6 -18 11q-100 55 -143.5 110t-43.5 135q0 84 49.5 150.5t145.5 148.5q68 57 90.5 78t42.5 51.5t20 59.5q0 43 -38.5 72.5t-108.5 29.5q-193 0 -238 -201l-239 -1044 h-299z" />
<glyph unicode="&#xe0;" horiz-adv-x="1042" d="M6 276q0 174 126 272.5t341 98.5q113 0 186 -24l9 39q10 44 10 79q0 136 -152 136q-150 0 -264 -66h-86l49 213q164 68 353 68q233 0 334 -114q66 -75 67 -201q0 -66 -18 -146l-146 -631h-96q-115 0 -148 102q-111 -115 -274 -114q-131 0 -211 75.5t-80 212.5zM287 297 q0 -123 119 -123q86 0 169 80l46 205q-66 16 -129 16q-98 0 -151.5 -49t-53.5 -129zM360 1348v86h283l78 -220v-63h-180z" />
<glyph unicode="&#xe1;" horiz-adv-x="1042" d="M6 276q0 174 126 272.5t341 98.5q113 0 186 -24l9 39q10 44 10 79q0 136 -152 136q-150 0 -264 -66h-86l49 213q164 68 353 68q233 0 334 -114q66 -75 67 -201q0 -66 -18 -146l-146 -631h-96q-115 0 -148 102q-111 -115 -274 -114q-131 0 -211 75.5t-80 212.5zM287 297 q0 -123 119 -123q86 0 169 80l46 205q-66 16 -129 16q-98 0 -151.5 -49t-53.5 -129zM530 1151v63l107 220h291v-86l-236 -197h-162z" />
<glyph unicode="&#xe2;" horiz-adv-x="1042" d="M6 276q0 174 126 272.5t341 98.5q113 0 186 -24l9 39q10 44 10 79q0 136 -152 136q-150 0 -264 -66h-86l49 213q164 68 353 68q233 0 334 -114q66 -75 67 -201q0 -66 -18 -146l-146 -631h-96q-115 0 -148 102q-111 -115 -274 -114q-131 0 -211 75.5t-80 212.5zM287 297 q0 -123 119 -123q86 0 169 80l46 205q-66 16 -129 16q-98 0 -151.5 -49t-53.5 -129zM338 1151v76l217 207h205l147 -207v-76h-168l-104 96l-146 -96h-151z" />
<glyph unicode="&#xe3;" horiz-adv-x="1042" d="M6 276q0 174 126 272.5t341 98.5q113 0 186 -24l9 39q10 44 10 79q0 136 -152 136q-150 0 -264 -66h-86l49 213q164 68 353 68q233 0 334 -114q66 -75 67 -201q0 -66 -18 -146l-146 -631h-96q-115 0 -148 102q-111 -115 -274 -114q-131 0 -211 75.5t-80 212.5zM287 297 q0 -123 119 -123q86 0 169 80l46 205q-66 16 -129 16q-98 0 -151.5 -49t-53.5 -129zM319 1155v78q66 193 226 192q53 0 123.5 -26.5t91.5 -26.5q45 0 71 55h154v-77q-66 -193 -225 -193q-53 0 -123 28.5t-90 28.5q-51 0 -74 -59h-154z" />
<glyph unicode="&#xe4;" horiz-adv-x="1042" d="M6 276q0 174 126 272.5t341 98.5q113 0 186 -24l9 39q10 44 10 79q0 136 -152 136q-150 0 -264 -66h-86l49 213q164 68 353 68q233 0 334 -114q66 -75 67 -201q0 -66 -18 -146l-146 -631h-96q-115 0 -148 102q-111 -115 -274 -114q-131 0 -211 75.5t-80 212.5zM287 297 q0 -123 119 -123q86 0 169 80l46 205q-66 16 -129 16q-98 0 -151.5 -49t-53.5 -129zM301 1305q0 66 48 110.5t114 44.5q63 0 104 -43t41 -102q0 -66 -49 -111t-115 -45q-63 0 -103 42.5t-40 103.5zM694 1305q0 66 48.5 110.5t113.5 44.5q63 0 104 -43t41 -102 q0 -66 -49 -111t-114 -45q-63 0 -103.5 42.5t-40.5 103.5z" />
<glyph unicode="&#xe5;" horiz-adv-x="1042" d="M6 276q0 174 126 272.5t341 98.5q113 0 186 -24l9 39q10 44 10 79q0 136 -152 136q-150 0 -264 -66h-86l49 213q164 68 353 68q233 0 334 -114q66 -75 67 -201q0 -66 -18 -146l-146 -631h-96q-115 0 -148 102q-111 -115 -274 -114q-131 0 -211 75.5t-80 212.5zM287 297 q0 -123 119 -123q86 0 169 80l46 205q-66 16 -129 16q-98 0 -151.5 -49t-53.5 -129zM444 1352q0 96 67 157.5t157 61.5q88 0 147 -53.5t59 -143.5q0 -96 -65.5 -155.5t-157.5 -59.5q-88 0 -147.5 52.5t-59.5 140.5zM586 1354q0 -68 67 -68q35 0 58.5 23.5t23.5 62.5 q0 33 -19.5 52.5t-51.5 19.5q-35 0 -56.5 -24.5t-21.5 -65.5z" />
<glyph unicode="&#xe6;" horiz-adv-x="1638" d="M6 276q0 174 127 274.5t340 100.5h193l2 11q10 44 10 79q0 136 -152 136q-150 0 -264 -66h-86l49 213q164 68 353 68q227 0 305 -123q150 123 340 123q186 0 279 -104q91 -101 91 -276q0 -114 -34 -241h-635v-41q0 -127 50 -181t156 -54q143 0 265 75h96l-45 -200 q-160 -84 -348 -84q-274 0 -393 172q-141 -170 -381 -170q-150 0 -234 74.5t-84 213.5zM287 297q0 -123 119 -123q141 0 239 127q-12 59 -12 125v45h-141q-98 0 -151.5 -47t-53.5 -127zM948 651h379q8 39 8 80q0 170 -135 170q-92 0 -156.5 -66.5t-95.5 -183.5z" />
<glyph unicode="&#xe7;" horiz-adv-x="991" d="M55 428q0 291 185.5 477.5t461.5 186.5q197 0 316 -91l-45 -192h-109q-55 66 -170 65q-154 0 -249 -126.5t-95 -317.5q0 -231 211 -231q115 0 209 63h111l-47 -203q-117 -74 -295 -73h-31l-8 -35q66 -2 99.5 -39t33.5 -94q0 -94 -65.5 -135t-166.5 -41q-111 0 -170 41 l27 114h59q18 -29 72 -28q63 0 64 38q0 37 -66 37h-53l37 160q-158 37 -237 147.5t-79 276.5z" />
<glyph unicode="&#xe8;" horiz-adv-x="1054" d="M49 426q0 274 158 470t416 196q190 0 289 -104q97 -101 98 -276q0 -114 -35 -241h-635v-41q0 -125 51 -180t156 -55q143 0 264 75h96l-47 -207q-141 -78 -346 -77q-223 0 -344 112.5t-121 327.5zM365 651h378q8 39 9 80q0 84 -39 127t-109 43q-86 0 -147 -66.5 t-92 -183.5zM373 1348v86h282l78 -220v-63h-180z" />
<glyph unicode="&#xe9;" horiz-adv-x="1054" d="M49 426q0 274 158 470t416 196q190 0 289 -104q97 -101 98 -276q0 -114 -35 -241h-635v-41q0 -125 51 -180t156 -55q143 0 264 75h96l-47 -207q-141 -78 -346 -77q-223 0 -344 112.5t-121 327.5zM365 651h378q8 39 9 80q0 84 -39 127t-109 43q-86 0 -147 -66.5 t-92 -183.5zM543 1151v63l106 220h291v-86l-235 -197h-162z" />
<glyph unicode="&#xea;" horiz-adv-x="1054" d="M49 426q0 274 158 470t416 196q190 0 289 -104q97 -101 98 -276q0 -114 -35 -241h-635v-41q0 -125 51 -180t156 -55q143 0 264 75h96l-47 -207q-141 -78 -346 -77q-223 0 -344 112.5t-121 327.5zM356 1151v76l217 207h205l148 -207v-76h-168l-105 96l-145 -96h-152z M365 651h378q8 39 9 80q0 84 -39 127t-109 43q-86 0 -147 -66.5t-92 -183.5z" />
<glyph unicode="&#xeb;" horiz-adv-x="1054" d="M49 426q0 274 158 470t416 196q190 0 289 -104q97 -101 98 -276q0 -114 -35 -241h-635v-41q0 -125 51 -180t156 -55q143 0 264 75h96l-47 -207q-141 -78 -346 -77q-223 0 -344 112.5t-121 327.5zM313 1305q0 66 48.5 110.5t113.5 44.5q63 0 104.5 -43t41.5 -102 q0 -66 -49.5 -111t-114.5 -45q-63 0 -103.5 42.5t-40.5 103.5zM365 651h378q8 39 9 80q0 84 -39 127t-109 43q-86 0 -147 -66.5t-92 -183.5zM707 1305q0 66 48 110.5t113 44.5q63 0 104.5 -43t41.5 -102q0 -66 -49.5 -111t-114.5 -45q-63 0 -103 42.5t-40 103.5z" />
<glyph unicode="&#xec;" horiz-adv-x="532" d="M-6 0l246 1075h163q76 0 96 -34q9 -15 8 -48q0 -42 -13 -114l-201 -879h-299zM125 1348v86h283l77 -220v-63h-180z" />
<glyph unicode="&#xed;" horiz-adv-x="532" d="M-6 0l246 1075h163q76 0 96 -34q9 -15 8 -48q0 -42 -13 -114l-201 -879h-299zM295 1151v63l106 220h291v-86l-235 -197h-162z" />
<glyph unicode="&#xee;" horiz-adv-x="532" d="M-6 0l246 1075h163q76 0 96 -34q9 -15 8 -48q0 -42 -13 -114l-201 -879h-299zM102 1151v76l217 207h205l148 -207v-76h-168l-105 96l-145 -96h-152z" />
<glyph unicode="&#xef;" horiz-adv-x="532" d="M-6 0l246 1075h163q76 0 96 -34q9 -15 8 -48q0 -42 -13 -114l-201 -879h-299zM66 1305q0 66 48 110.5t113 44.5q63 0 104.5 -43t41.5 -102q0 -66 -49.5 -111t-114.5 -45q-63 0 -103 42.5t-40 103.5zM459 1305q0 66 48 110.5t114 44.5q63 0 104 -43t41 -102 q0 -66 -49 -111t-115 -45q-63 0 -103 42.5t-40 103.5z" />
<glyph unicode="&#xf0;" horiz-adv-x="1167" d="M55 438q0 258 150.5 428t341.5 170q152 0 225 -90q-39 104 -135 180l-51 -43h-178v50l92 77q-57 23 -97 33l46 191h100q78 -20 149 -56l62 54h176v-50l-100 -86q276 -213 276 -600q0 -342 -162 -525t-424 -183q-223 0 -347 121.5t-124 328.5zM348 422q0 -227 189 -227 q133 0 206.5 127t73.5 292q0 106 -52 163t-142 57q-131 0 -203 -120t-72 -292z" />
<glyph unicode="&#xf1;" horiz-adv-x="1171" d="M-8 0l246 1075h98q150 0 156 -139q195 156 399 156q129 0 193 -100q41 -63 41 -152q0 -51 -13 -111l-168 -729h-199q-53 0 -68 28q-7 13 -8 38q0 27 9 67l133 596q6 26 6 47q0 78 -80 78q-113 0 -274 -98l-172 -756h-299zM395 1155v78q66 193 226 192q53 0 123.5 -26.5 t91.5 -26.5q45 0 71 55h154v-77q-66 -193 -225 -193q-53 0 -123 28.5t-90 28.5q-51 0 -74 -59h-154z" />
<glyph unicode="&#xf2;" d="M55 438q0 291 171 472.5t415 181.5q221 0 345 -125t124 -336q0 -293 -166 -468t-418 -175q-223 0 -347 120.5t-124 329.5zM348 432q0 -238 189 -237q131 0 205.5 130t74.5 312q0 242 -184 242q-127 0 -206 -134.5t-79 -312.5zM410 1348v86h282l78 -220v-63h-180z" />
<glyph unicode="&#xf3;" d="M55 438q0 291 171 472.5t415 181.5q221 0 345 -125t124 -336q0 -293 -166 -468t-418 -175q-223 0 -347 120.5t-124 329.5zM348 432q0 -238 189 -237q131 0 205.5 130t74.5 312q0 242 -184 242q-127 0 -206 -134.5t-79 -312.5zM580 1151v63l106 220h291v-86l-236 -197 h-161z" />
<glyph unicode="&#xf4;" d="M55 438q0 291 171 472.5t415 181.5q221 0 345 -125t124 -336q0 -293 -166 -468t-418 -175q-223 0 -347 120.5t-124 329.5zM348 432q0 -238 189 -237q131 0 205.5 130t74.5 312q0 242 -184 242q-127 0 -206 -134.5t-79 -312.5zM387 1151v76l217 207h205l147 -207v-76h-168 l-104 96l-145 -96h-152z" />
<glyph unicode="&#xf5;" d="M55 438q0 291 171 472.5t415 181.5q221 0 345 -125t124 -336q0 -293 -166 -468t-418 -175q-223 0 -347 120.5t-124 329.5zM348 432q0 -238 189 -237q131 0 205.5 130t74.5 312q0 242 -184 242q-127 0 -206 -134.5t-79 -312.5zM369 1155v78q66 193 225 192 q53 0 123.5 -26.5t91.5 -26.5q45 0 72 55h153v-77q-66 -193 -225 -193q-53 0 -123 28.5t-90 28.5q-51 0 -74 -59h-153z" />
<glyph unicode="&#xf6;" d="M55 438q0 291 171 472.5t415 181.5q221 0 345 -125t124 -336q0 -293 -166 -468t-418 -175q-223 0 -347 120.5t-124 329.5zM348 432q0 -238 189 -237q131 0 205.5 130t74.5 312q0 242 -184 242q-127 0 -206 -134.5t-79 -312.5zM350 1305q0 66 48 110.5t114 44.5 q63 0 104 -43t41 -102q0 -66 -49 -111t-114 -45q-63 0 -103.5 42.5t-40.5 103.5zM743 1305q0 66 48.5 110.5t113.5 44.5q63 0 104.5 -43t41.5 -102q0 -66 -49.5 -111t-114.5 -45q-63 0 -103.5 42.5t-40.5 103.5z" />
<glyph unicode="&#xf7;" horiz-adv-x="1042" d="M45 590l55 235h977l-55 -235h-977zM324 336q0 72 53 121t125 49q70 0 116 -47t46 -113q0 -72 -54.5 -121t-126.5 -49q-70 0 -114.5 46t-44.5 114zM457 1069q0 72 53 121t125 49q70 0 116 -47t46 -113q0 -72 -54.5 -121t-126.5 -49q-70 0 -114.5 46t-44.5 114z" />
<glyph unicode="&#xf8;" d="M18 4l125 143q-88 117 -88 291q0 291 171 472.5t415 181.5q154 0 262 -64l72 82h172v-55l-119 -137q82 -117 82 -287q0 -293 -166 -468t-418 -175q-152 0 -256 55l-82 -94h-170v55zM338 432q0 -39 2 -55l408 471q-45 33 -115 33q-131 0 -213 -135.5t-82 -313.5zM422 219 q45 -27 115 -26q135 0 211.5 131t76.5 313q0 8 -1 23.5t-1 21.5z" />
<glyph unicode="&#xf9;" d="M61 346l170 729h199q53 0 69 -27q7 -13 7 -39q0 -27 -8 -67l-133 -596q-6 -27 -6 -48q0 -79 79 -79q104 0 252 92l174 764h299l-245 -1075h-78q-156 0 -170 141q-195 -158 -375 -157q-143 0 -209 95q-40 59 -40 146q-1 55 15 121zM438 1348v86h283l78 -220v-63h-181z" />
<glyph unicode="&#xfa;" d="M61 346l170 729h199q53 0 69 -27q7 -13 7 -39q0 -27 -8 -67l-133 -596q-6 -27 -6 -48q0 -79 79 -79q104 0 252 92l174 764h299l-245 -1075h-78q-156 0 -170 141q-195 -158 -375 -157q-143 0 -209 95q-40 59 -40 146q-1 55 15 121zM608 1151v63l107 220h291v-86l-236 -197 h-162z" />
<glyph unicode="&#xfb;" d="M61 346l170 729h199q53 0 69 -27q7 -13 7 -39q0 -27 -8 -67l-133 -596q-6 -27 -6 -48q0 -79 79 -79q104 0 252 92l174 764h299l-245 -1075h-78q-156 0 -170 141q-195 -158 -375 -157q-143 0 -209 95q-40 59 -40 146q-1 55 15 121zM416 1151v76l217 207h205l147 -207v-76 h-168l-104 96l-146 -96h-151z" />
<glyph unicode="&#xfc;" d="M61 346l170 729h199q53 0 69 -27q7 -13 7 -39q0 -27 -8 -67l-133 -596q-6 -27 -6 -48q0 -79 79 -79q104 0 252 92l174 764h299l-245 -1075h-78q-156 0 -170 141q-195 -158 -375 -157q-143 0 -209 95q-40 59 -40 146q-1 55 15 121zM379 1305q0 66 48 110.5t114 44.5 q63 0 104 -43t41 -102q0 -66 -49 -111t-115 -45q-63 0 -103 42.5t-40 103.5zM772 1305q0 66 48 110.5t114 44.5q63 0 104 -43t41 -102q0 -66 -49 -111t-115 -45q-63 0 -103 42.5t-40 103.5z" />
<glyph unicode="&#xfd;" horiz-adv-x="1060" d="M35 -252l248 367l-156 882v78h281l98 -641h4l358 641h246v-78l-807 -1329h-272v80zM541 1151v63l106 220h291v-86l-236 -197h-161z" />
<glyph unicode="&#xfe;" horiz-adv-x="1179" d="M-82 -332l401 1766h183q63 0 82 -31q9 -15 8 -46q0 -35 -10 -91l-70 -310q139 135 328 136q127 0 212 -99.5t85 -298.5q0 -319 -153 -500.5t-400 -181.5q-166 0 -265 90l-98 -434h-303zM356 272q66 -61 170 -61q152 0 233 130t81 347q0 88 -37 135t-98 47 q-102 0 -234 -92z" />
<glyph unicode="&#xff;" horiz-adv-x="1060" d="M35 -252l248 367l-156 882v78h281l98 -641h4l358 641h246v-78l-807 -1329h-272v80zM311 1305q0 66 48.5 110.5t113.5 44.5q63 0 104 -43t41 -102q0 -66 -49 -111t-114 -45q-63 0 -103.5 42.5t-40.5 103.5zM705 1305q0 66 48 110.5t113 44.5q63 0 104.5 -43t41.5 -102 q0 -66 -49.5 -111t-114.5 -45q-63 0 -103 42.5t-40 103.5z" />
<glyph unicode="&#x152;" horiz-adv-x="1976" d="M92 571q0 164 51.5 315.5t147.5 275.5t252.5 198t349.5 74h1182l-54 -232h-594l-84 -364h439l-51 -220h-439l-90 -393h641l-51 -225h-1057q-330 0 -486.5 142t-156.5 429zM420 571q0 -168 66.5 -257t254.5 -89h142l225 979h-207q-133 0 -232.5 -61.5t-150.5 -160.5 t-74.5 -202t-23.5 -209z" />
<glyph unicode="&#x153;" horiz-adv-x="1804" d="M55 438q0 291 171 472.5t415 181.5q254 0 354 -193q145 193 394 193q186 0 279 -104q91 -101 91 -276q0 -114 -35 -241h-634v-41q0 -127 50 -181t156 -54q143 0 265 75h96l-45 -200q-160 -84 -348 -84q-264 0 -359 182q-150 -180 -379 -180q-223 0 -347 120.5t-124 329.5 zM348 432q0 -238 189 -237q131 0 205.5 130t74.5 312q0 242 -184 242q-127 0 -206 -134.5t-79 -312.5zM1114 651h379q8 39 8 80q0 170 -135 170q-92 0 -156.5 -66.5t-95.5 -183.5z" />
<glyph unicode="&#x178;" horiz-adv-x="1212" d="M219 1343v91h297l180 -594h4l430 594h244v-91l-590 -798l-125 -545h-319l133 575zM508 1624q0 66 48 111t114 45q63 0 104 -43t41 -103q0 -66 -49 -110.5t-115 -44.5q-63 0 -103 42t-40 103zM901 1624q0 66 48 111t114 45q63 0 104 -43t41 -103q0 -66 -49 -110.5 t-115 -44.5q-63 0 -103 42t-40 103z" />
<glyph unicode="&#x2c6;" horiz-adv-x="819" d="M287 1151v76l217 207h205l147 -207v-76h-168l-104 96l-146 -96h-151z" />
<glyph unicode="&#x2dc;" horiz-adv-x="819" d="M238 1155v78q66 193 225 192q53 0 123.5 -26.5t91.5 -26.5q45 0 72 55h153v-77q-66 -193 -225 -193q-53 0 -123 28.5t-90 28.5q-51 0 -74 -59h-153z" />
<glyph unicode="&#x2013;" horiz-adv-x="935" d="M82 463l53 231h739l-53 -231h-739z" />
<glyph unicode="&#x2014;" horiz-adv-x="1570" d="M82 463l53 231h1374l-53 -231h-1374z" />
<glyph unicode="&#x2018;" horiz-adv-x="374" d="M160 1087q0 162 108.5 253.5t292.5 99.5l-31 -133q-141 -14 -141 -74q0 -6 1 -11t3 -8.5t6 -7.5t7.5 -6t11.5 -6t12 -8q49 -33 49 -96q0 -70 -48 -116t-114 -46q-68 0 -112.5 43.5t-44.5 115.5z" />
<glyph unicode="&#x2019;" horiz-adv-x="374" d="M117 936l28 133q143 14 144 74q0 6 -1 11t-3 8t-6.5 7.5t-7.5 6.5t-11 6t-12 8q-49 33 -49 96q0 70 48 116t113 46q68 0 113 -44t45 -116q0 -162 -108.5 -253t-292.5 -99z" />
<glyph unicode="&#x201a;" horiz-adv-x="374" d="M-131 -203l31 133q141 14 141 74q0 6 -1 11t-3 8.5t-6 7.5t-7.5 6t-11.5 6t-12 8q-49 33 -49 96q0 70 48 116t114 46q68 0 112.5 -44t44.5 -115q0 -162 -108.5 -253.5t-292.5 -99.5z" />
<glyph unicode="&#x201c;" horiz-adv-x="794" d="M160 1087q0 162 108.5 253.5t292.5 99.5l-31 -133q-141 -14 -141 -74q0 -6 1 -11t3 -8.5t6 -7.5t7.5 -6t11.5 -6t12 -8q49 -33 49 -96q0 -70 -48 -116t-114 -46q-68 0 -112.5 43.5t-44.5 115.5zM559 1087q0 162 108.5 253.5t293.5 99.5l-31 -133q-141 -14 -142 -74 q0 -6 1.5 -11t3.5 -8.5t6 -7.5t7 -6t11 -6t12 -8q49 -33 50 -96q0 -70 -48.5 -116t-113.5 -46q-68 0 -113 43.5t-45 115.5z" />
<glyph unicode="&#x201d;" horiz-adv-x="774" d="M117 936l30 133q141 14 142 74q0 6 -1 11t-3 8t-6.5 7.5t-7.5 6.5t-11 6t-12 8q-49 33 -49 96q0 70 48 116t113 46q68 0 113 -44t45 -116q0 -162 -108.5 -253t-292.5 -99zM516 936l31 133q141 14 141 74q0 6 -1 11t-3 8t-6 7.5t-7 6.5t-11.5 6t-12.5 8q-49 33 -49 96 q0 70 48 116t114 46q68 0 113 -44t45 -116q0 -162 -109 -253t-293 -99z" />
<glyph unicode="&#x201e;" horiz-adv-x="774" d="M-131 -203l31 133q141 14 141 74q0 6 -1 11t-3 8.5t-6 7.5t-7.5 6t-11.5 6t-12 8q-49 33 -49 96q0 70 48 116t114 46q68 0 112.5 -44t44.5 -115q0 -162 -108.5 -253.5t-292.5 -99.5zM268 -203l31 133q141 14 141 74q0 6 -1 11t-3 8.5t-6 7.5t-7 6t-11.5 6t-12.5 8 q-49 33 -49 96q0 70 48 116t114 46q68 0 113 -44t45 -115q0 -162 -109 -253.5t-293 -99.5z" />
<glyph unicode="&#x2022;" horiz-adv-x="655" d="M51 547q0 135 90 219t219 84q111 0 186 -68.5t75 -181.5q0 -137 -87.5 -220t-220.5 -83q-111 0 -186.5 68.5t-75.5 181.5z" />
<glyph unicode="&#x2026;" horiz-adv-x="1345" d="M-45 151.5q0 69.5 49 117.5t119 48t119 -48t49 -117.5t-49 -116.5t-119 -47q-72 0 -120 47t-48 116.5zM422 151.5q0 69.5 49 117.5t118.5 48t119 -48t49.5 -117.5t-49.5 -116.5t-118.5 -47q-72 0 -120 47t-48 116.5zM889 151.5q0 69.5 49 117.5t118.5 48t119 -48 t49.5 -117.5t-49.5 -116.5t-118.5 -47q-72 0 -120 47t-48 116.5z" />
<glyph unicode="&#x2039;" horiz-adv-x="622" d="M61 489l27 117l326 377h241v-65l-331 -398v-6l139 -367v-65h-238z" />
<glyph unicode="&#x203a;" horiz-adv-x="622" d="M-27 82v65l332 398v6l-139 367v65h237l164 -408l-26 -116l-326 -377h-242z" />
<glyph unicode="&#x20ac;" horiz-adv-x="1222" d="M37 483l41 179h100q8 66 21 112h-95l41 178h111q96 223 280.5 360.5t440.5 137.5q225 0 360 -88l-49 -211h-114q-80 70 -216 70q-260 0 -387 -269h400l-66 -178h-395q-12 -53 -18 -112h368l-65 -179h-312q4 -145 68.5 -209.5t196.5 -64.5q152 0 276 92h104l-49 -223 q-158 -94 -362 -94q-240 0 -390.5 126t-158.5 373h-131z" />
<glyph unicode="&#x2122;" horiz-adv-x="1400" d="M233 1311l29 123h500l-29 -123h-166l-104 -451h-170l104 451h-164zM711 860l133 574h252l18 -312h2l164 312h260l-133 -574h-166l102 436h-2l-235 -436h-121l-29 436h-2l-102 -436h-141z" />
<glyph unicode="&#xe000;" horiz-adv-x="1075" d="M0 1075h1075v-1075h-1075v1075z" />
<glyph unicode="&#xfb01;" horiz-adv-x="1189" d="M45 0l191 874h-127l43 201h127l18 82q68 297 375 297q102 0 166 -24l-39 -183h-45q-74 0 -111 -20.5t-49 -79.5l-16 -72h184l-43 -201h-187l-196 -874h-291zM651 0l246 1075h164q76 0 95 -34q9 -15 9 -48q0 -42 -14 -114l-201 -879h-299zM938 1313q0 68 50 115t120 47 q66 0 110 -44.5t44 -107.5q0 -70 -51.5 -116t-120.5 -46q-66 0 -109 44.5t-43 107.5z" />
<glyph unicode="&#xfb02;" horiz-adv-x="1196" d="M45 0l191 874h-127l43 201h127l18 82q68 297 375 297q102 0 166 -24l-39 -183h-45q-74 0 -111 -20.5t-49 -79.5l-16 -72h184l-43 -201h-187l-196 -874h-291zM651 0l328 1434h180q63 0 82 -31q9 -15 9 -46q0 -35 -11 -91l-289 -1266h-299z" />
<glyph unicode="&#xfb03;" horiz-adv-x="1904" d="M45 0l191 874h-127l43 201h127l18 82q68 297 375 297q119 0 184 -29l-39 -178h-63q-74 0 -111 -20.5t-49 -79.5l-16 -72h184l-43 -201h-187l-196 -874h-291zM731 0l191 874h-127l43 201h127l18 82q68 297 375 297q119 0 184 -29l-39 -178h-63q-74 0 -111 -20.5t-49 -79.5 l-16 -72h184l-43 -201h-186l-197 -874h-291zM1366 0l246 1075h164q76 0 95 -34q9 -15 8 -48q0 -42 -13 -114l-201 -879h-299zM1647 1313q0 68 50 115t120 47q66 0 109.5 -44.5t43.5 -107.5q0 -70 -51 -116t-121 -46q-66 0 -108.5 44.5t-42.5 107.5z" />
<glyph unicode="&#xfb04;" horiz-adv-x="1910" d="M45 0l191 874h-127l43 201h127l18 82q68 297 375 297q119 0 184 -29l-39 -178h-63q-74 0 -111 -20.5t-49 -79.5l-16 -72h184l-43 -201h-187l-196 -874h-291zM731 0l191 874h-127l43 201h127l18 82q68 297 375 297q119 0 184 -29l-39 -178h-63q-74 0 -111 -20.5t-49 -79.5 l-16 -72h184l-43 -201h-186l-197 -874h-291zM1366 0l328 1434h180q63 0 82 -31q9 -15 9 -46q0 -35 -11 -91l-289 -1266h-299z" />
</font>
</defs>
</svg>
