<?xml version="1.0" standalone="no"?>
<!DOCTYPE svg PUBLIC "-//W3C//DTD SVG 1.1//EN" "http://www.w3.org/Graphics/SVG/1.1/DTD/svg11.dtd" >
<svg xmlns="http://www.w3.org/2000/svg">
<metadata>
This is a custom SVG webfont generated by Font Squirrel.
Copyright   : Copyright c Christian Schwartz 2007 All rights reserved
Designer    : Christian Schwartz
Foundry     : Schwartzco Inc
Foundry URL : httpchristianschwartzcom
</metadata>
<defs>
<font id="StagSansSemiboldItalic" horiz-adv-x="1523" >
<font-face units-per-em="2048" ascent="1638" descent="-410" />
<missing-glyph horiz-adv-x="362" />
<glyph unicode=" "  horiz-adv-x="362" />
<glyph unicode="&#x09;" horiz-adv-x="362" />
<glyph unicode="&#xa0;" horiz-adv-x="362" />
<glyph unicode="!" horiz-adv-x="591" d="M23 164q0 82 59 138t145 56q80 0 132.5 -52t52.5 -126q0 -82 -60.5 -138t-144.5 -56q-80 0 -132 52t-52 126zM152 446l108 773l49 215h393l-51 -215l-266 -773h-233z" />
<glyph unicode="&#x22;" horiz-adv-x="833" d="M199 938l22 322l41 174h324l-41 -174l-129 -322h-217zM604 938l25 322l41 174h321l-39 -174l-129 -322h-219z" />
<glyph unicode="#" horiz-adv-x="1073" d="M23 391l57 254h162l51 193h-154l60 254h163l93 342h235l-92 -342h164l92 342h236l-93 -342h150l-60 -254h-159l-51 -193h151l-57 -254h-166l-105 -391h-235l104 391h-163l-105 -391h-235l104 391h-147zM477 645h164l51 193h-164z" />
<glyph unicode="$" horiz-adv-x="1114" d="M-18 141l53 234h147q78 -98 199 -125l78 336q-156 55 -236 145t-80 240q0 223 149.5 348t391.5 129l29 123h182l-33 -137q168 -29 287 -119l-53 -225h-144q-72 70 -147 92l-74 -326q166 -57 251 -145t85 -240q0 -219 -152.5 -348t-412.5 -135l-45 -197h-183l48 209 q-205 28 -340 141zM475 1036q0 -70 86 -112l64 270q-150 -27 -150 -158zM561 248q152 27 152 166q0 70 -88 108z" />
<glyph unicode="%" horiz-adv-x="1763" d="M133 987q0 195 127 329t311 134q150 0 243 -86t93 -231q0 -188 -127 -323.5t-311 -135.5q-150 0 -243 85t-93 228zM156 -70l1288 1563h244l-1289 -1563h-243zM397 977q0 -113 90 -113q51 0 88 51.5t52.5 113t15.5 116.5q0 115 -88 115q-76 0 -117 -95.5t-41 -187.5z M944 297q0 193 127 328t311 135q150 0 243 -85t93 -233q0 -188 -127 -324t-309 -136q-152 0 -245 86t-93 229zM1208 287q0 -113 90 -113q74 0 115 93t41 186q0 117 -88 116q-74 0 -116 -95t-42 -187z" />
<glyph unicode="&#x26;" horiz-adv-x="1458" d="M16 381q0 162 106.5 277.5t280.5 168.5q-31 82 -30 162q0 203 146.5 333t393.5 130q219 0 359 -90l-51 -248h-148q-61 66 -155 66q-74 0 -121 -45t-47 -121q0 -78 75 -183l197 -274q109 184 131 297h274v-98q-72 -221 -241 -432l162 -234l4 -90h-377l-68 96 q-178 -115 -395 -114q-219 0 -357.5 103t-138.5 296zM393 426q0 -86 54.5 -135t146.5 -49q94 0 170 55l-250 346q-121 -74 -121 -217z" />
<glyph unicode="'" horiz-adv-x="425" d="M199 938l22 322l41 174h324l-41 -174l-127 -322h-219z" />
<glyph unicode="(" horiz-adv-x="724" d="M82 520q0 346 191.5 626.5t517.5 371.5h122l-53 -232q-197 -78 -317.5 -298t-120.5 -486q0 -297 168 -383l-49 -219h-105q-156 68 -255 222t-99 398z" />
<glyph unicode=")" horiz-adv-x="724" d="M-102 -100l53 231q197 76 317.5 297t120.5 487q0 297 -168 383l51 220h105q156 -68 254 -221.5t98 -399.5q0 -346 -189.5 -626.5t-514.5 -370.5h-127z" />
<glyph unicode="*" horiz-adv-x="827" d="M160 1096l123 237l88 -41l110 -112l-22 157l20 97h266l-26 -119l-86 -150l147 86l99 21l32 -256l-100 -19l-154 21l115 -105l41 -84l-242 -127l-43 89l-16 161l-88 -161l-76 -72l-174 180l76 72l149 71l-151 13z" />
<glyph unicode="+" horiz-adv-x="1069" d="M45 565l66 285h346l84 369h305l-84 -369h344l-66 -285h-344l-84 -368h-305l84 368h-346z" />
<glyph unicode="," horiz-adv-x="456" d="M-135 -236l33 152q74 8 116.5 31.5t42.5 54.5q0 10 -4 17.5t-9 11.5t-17.5 12t-18.5 14q-57 43 -57 117q0 80 56 132t138 52q84 0 139.5 -53t55.5 -141q0 -182 -126 -286t-349 -114z" />
<glyph unicode="-" horiz-adv-x="602" d="M33 459l65 280h504l-65 -280h-504z" />
<glyph unicode="." horiz-adv-x="454" d="M-45 164q0 82 59.5 138t145.5 56q80 0 132 -52t52 -126q0 -82 -60.5 -138t-146.5 -56q-80 0 -131 52t-51 126z" />
<glyph unicode="/" horiz-adv-x="757" d="M-109 -29l801 1547h260v-72l-802 -1546h-259v71z" />
<glyph unicode="0" horiz-adv-x="1400" d="M82 535q0 236 87 440.5t267 340.5t420 136q254 0 401.5 -151.5t147.5 -409.5q0 -174 -51 -335t-145.5 -290t-243 -206.5t-330.5 -77.5q-248 0 -400.5 149.5t-152.5 403.5zM467 516q0 -129 43 -198.5t152 -69.5q90 0 161.5 71.5t112.5 178t61.5 214t20.5 197.5 q0 264 -180 265q-92 0 -167 -72t-117 -179.5t-64.5 -214t-22.5 -192.5z" />
<glyph unicode="1" horiz-adv-x="819" d="M139 958l64 279l401 197h279l-330 -1434h-393l239 1044l-178 -86h-82z" />
<glyph unicode="2" horiz-adv-x="1128" d="M-76 0l68 301l463 344q150 111 232.5 201t82.5 184q0 131 -170 131q-137 0 -272 -88h-140l64 279q197 100 432 100q211 0 347 -94t136 -291q0 -168 -108.5 -296t-329.5 -279l-280 -197h563l-68 -295h-1020z" />
<glyph unicode="3" horiz-adv-x="1101" d="M-41 127l57 240h144q86 -111 252 -115q104 0 168.5 47t64.5 133q0 164 -203 164h-104l59 256h121q106 0 171 46t65 134q0 141 -170 146q-133 0 -246 -70h-141l59 256q174 90 406 90q96 0 176 -19.5t146.5 -61.5t103 -115.5t36.5 -174.5q0 -147 -87 -240t-236 -126v-8 q111 -29 169 -104t58 -189q0 -199 -164 -317.5t-422 -118.5q-305 0 -483 147z" />
<glyph unicode="4" horiz-adv-x="1249" d="M0 299l70 299l825 836h373l-203 -879h156l-60 -256h-155l-68 -299h-387l67 299h-618zM348 555h338l105 455h-9l-434 -447v-8z" />
<glyph unicode="5" horiz-adv-x="1142" d="M-33 115l58 239h151q88 -100 248 -100q117 0 193.5 67.5t76.5 182.5q0 74 -45 114.5t-117 40.5q-121 0 -202 -81h-215l198 856h889l-67 -295h-613l-69 -295h6q104 76 250 76q174 0 279.5 -102.5t105.5 -285.5q0 -258 -186.5 -404t-463.5 -146q-313 0 -477 133z" />
<glyph unicode="6" horiz-adv-x="1282" d="M82 510q0 180 57.5 348t163.5 293q233 301 637 301q246 0 389 -98l-59 -254h-150q-66 70 -190 69q-219 0 -336 -184q-51 -78 -88 -190q150 117 334 116q172 0 279.5 -102t107.5 -291q0 -229 -169 -382.5t-435 -153.5q-256 0 -398.5 136t-142.5 392zM457 457 q0 -227 172 -228q96 0 157.5 75t61.5 196q0 166 -180 166q-109 0 -201 -58q-10 -63 -10 -151z" />
<glyph unicode="7" horiz-adv-x="1095" d="M111 0v123l753 999v8h-682l70 304h999l-75 -324l-676 -1110h-389z" />
<glyph unicode="8" horiz-adv-x="1263" d="M18 377q0 309 357 395v8q-76 37 -118 102.5t-42 145.5q0 195 156.5 309.5t402.5 114.5q231 0 367.5 -101.5t136.5 -273.5q0 -133 -78 -215t-207 -114v-9q205 -86 205 -297q0 -215 -166 -338.5t-452 -123.5q-100 0 -192.5 19t-178.5 61t-138.5 124t-52.5 193zM397 397 q0 -78 54.5 -124t136.5 -46q109 0 172 69t63 171q0 80 -46 129t-140 49q-109 0 -174.5 -72t-65.5 -176zM573 1008q0 -66 44.5 -102t109.5 -36q80 0 133 51.5t53 137.5q0 63 -39.5 102t-111.5 39q-82 0 -135.5 -52t-53.5 -140z" />
<glyph unicode="9" horiz-adv-x="1286" d="M29 76l57 248h143q74 -63 203 -64q217 0 320 133q74 88 112 238q-139 -113 -342 -113q-174 0 -280.5 97.5t-106.5 269.5q0 248 178.5 406.5t440.5 158.5q244 0 388 -136t144 -382q0 -424 -227 -692q-223 -260 -631 -260q-247 0 -399 96zM506 922q0 -158 184 -158 q104 0 207 51q8 111 8 166q0 217 -166 217q-102 0 -167.5 -74.5t-65.5 -201.5z" />
<glyph unicode=":" horiz-adv-x="456" d="M-47 164q0 82 59.5 138t143.5 56q80 0 132 -52t52 -126q0 -82 -60.5 -138t-144.5 -56q-78 0 -130 52t-52 126zM84 745q0 82 59.5 138.5t143.5 56.5q78 0 131 -52t53 -126q0 -82 -60.5 -138.5t-144.5 -56.5q-80 0 -131 51t-51 127z" />
<glyph unicode=";" horiz-adv-x="456" d="M-135 -236l33 152q74 8 116.5 31.5t42.5 54.5q0 10 -4 17.5t-9 11.5t-17.5 12t-18.5 14q-57 43 -57 117q0 80 57.5 132t138.5 52q84 0 138.5 -53t54.5 -141q0 -182 -126 -286t-349 -114zM82 745q0 82 59.5 138.5t143.5 56.5q78 0 131 -52t53 -126q0 -82 -60.5 -138.5 t-144.5 -56.5q-80 0 -131 51t-51 127z" />
<glyph unicode="&#x3c;" horiz-adv-x="911" d="M43 563l57 248l840 369h76l-68 -291l-508 -217v-6l404 -230l-62 -266h-77z" />
<glyph unicode="=" horiz-adv-x="1007" d="M-14 287l63 272h922l-62 -272h-923zM86 717l61 272h922l-61 -272h-922z" />
<glyph unicode="&#x3e;" horiz-adv-x="911" d="M-39 170l68 291l506 217v6l-402 227l62 269h77l662 -394l-57 -249l-838 -367h-78z" />
<glyph unicode="?" horiz-adv-x="954" d="M117 164q0 82 59.5 138t142.5 56q80 0 132.5 -52t52.5 -126q0 -82 -60.5 -138t-144.5 -56q-78 0 -130 52t-52 126zM172 1110l59 258q150 86 371 86q197 0 314.5 -84t117.5 -254q0 -252 -311 -416q-113 -61 -167 -114.5t-69 -139.5h-264q6 135 50 220.5t159 167.5 q16 12 58 40.5t62.5 44t47.5 41t38 53t11 58.5q0 102 -133 103q-109 0 -205 -64h-139z" />
<glyph unicode="@" horiz-adv-x="1792" d="M49 473q0 207 85 381t220 282.5t299 169t328 60.5q342 0 565 -178t223 -492q0 -274 -149.5 -417.5t-368.5 -143.5q-227 0 -282 129q-111 -127 -269 -127q-115 0 -182 76t-67 217q0 197 124.5 351.5t323.5 154.5q125 0 207 -86q55 74 147 74h140l-111 -488q-6 -27 -6 -47 q0 -63 57 -63q94 0 157.5 94t63.5 276q0 229 -152.5 357.5t-426.5 128.5q-131 0 -254 -45t-222.5 -130t-159.5 -223.5t-60 -308.5q0 -289 166.5 -427t449.5 -138q285 0 518 137h76l-45 -192q-217 -129 -557 -129q-168 0 -314.5 44t-266.5 131t-188.5 234.5t-68.5 337.5z M756 444q0 -98 78 -98q70 0 127 57l71 310q-37 12 -80 12q-86 0 -141 -84t-55 -197z" />
<glyph unicode="A" horiz-adv-x="1417" d="M-70 0v92l750 1342h434l164 -1342v-92h-387l-29 334h-454l-172 -334h-306zM545 600h295l-41 481h-4z" />
<glyph unicode="B" horiz-adv-x="1292" d="M-2 0l330 1434h473q240 0 365.5 -90.5t125.5 -256.5q0 -274 -309 -346v-8q238 -49 238 -278q0 -154 -88.5 -259.5t-227.5 -150.5t-321 -45h-586zM440 254h162q106 0 169 53t63 164q0 72 -43 112t-127 40h-138zM582 858h120q219 0 220 189q0 131 -160 131h-109z" />
<glyph unicode="C" horiz-adv-x="1298" d="M82 565q0 172 57.5 330t163 283t271 199.5t368.5 74.5q260 0 424 -102l-59 -256h-150q-86 80 -233 80q-115 0 -204 -60.5t-138.5 -156t-74 -198t-24.5 -202.5q0 -305 281 -305q141 0 264 90h154l-62 -272q-164 -88 -397 -88q-291 0 -466 144t-175 439z" />
<glyph unicode="D" horiz-adv-x="1458" d="M-2 0l330 1434h489q301 0 466 -152t165 -430q0 -231 -91 -420.5t-285.5 -310.5t-463.5 -121h-610zM451 264h161q117 0 205 54.5t137.5 143.5t72 188.5t22.5 205.5q0 305 -263 305h-129z" />
<glyph unicode="E" horiz-adv-x="1185" d="M-2 0l330 1434h960l-61 -275h-570l-71 -305h413l-61 -258h-412l-75 -330h612l-62 -266h-1003z" />
<glyph unicode="F" horiz-adv-x="1153" d="M-2 0l330 1434h975l-64 -275h-582l-79 -342h454l-57 -262h-457l-127 -555h-393z" />
<glyph unicode="G" horiz-adv-x="1398" d="M82 547q0 178 57.5 340t164 289t274 201.5t372.5 74.5q281 0 451 -106l-60 -261h-153q-98 88 -260 89q-115 0 -204 -60.5t-140.5 -158t-77 -206t-25.5 -219.5q0 -289 269 -288q72 0 120 16l62 268h-170l53 238h545l-158 -690q-184 -92 -467 -92q-297 0 -475 138t-178 427 z" />
<glyph unicode="H" horiz-adv-x="1460" d="M-2 0l330 1434h393l-131 -566h440l129 566h393l-329 -1434h-394l138 590h-443l-133 -590h-393z" />
<glyph unicode="I" horiz-adv-x="641" d="M4 0l330 1434h395l-330 -1434h-395z" />
<glyph unicode="J" horiz-adv-x="995" d="M-61 86l57 248h139q57 -70 162 -70q139 0 174 148l234 1022h395l-246 -1067q-90 -385 -547 -385q-241 0 -368 104z" />
<glyph unicode="K" horiz-adv-x="1409" d="M-2 0l330 1434h393l-141 -613l583 613h348v-88l-522 -521l281 -737v-88h-377l-217 571l-197 -184l-88 -387h-393z" />
<glyph unicode="L" horiz-adv-x="1126" d="M-2 0l330 1434h393l-268 -1164h548l-61 -270h-942z" />
<glyph unicode="M" horiz-adv-x="1775" d="M-2 0l330 1434h493l64 -850h6l450 850h529l-330 -1434h-383l229 1001h-6l-536 -1001h-226l-71 1001h-6l-230 -1001h-313z" />
<glyph unicode="N" horiz-adv-x="1439" d="M-2 0l330 1434h422l262 -834h6l192 834h324l-330 -1434h-360l-301 944h-6l-218 -944h-321z" />
<glyph unicode="O" d="M82 582q0 229 94 425.5t280.5 321.5t426.5 125q291 0 460.5 -168t169.5 -440q0 -166 -55 -319.5t-154.5 -275.5t-254 -195.5t-338.5 -73.5q-283 0 -456 162t-173 438zM479 569q0 -143 60.5 -231t187.5 -88q98 0 176 61.5t123 155.5t67.5 195.5t22.5 195.5 q0 141 -58.5 231.5t-187.5 90.5q-131 0 -224 -108.5t-130 -242t-37 -260.5z" />
<glyph unicode="P" horiz-adv-x="1273" d="M-2 0l330 1434h473q522 0 522 -408q0 -262 -173 -396t-488 -134h-158l-113 -496h-393zM559 750h123q264 0 264 274q0 145 -178 145h-113z" />
<glyph unicode="Q" d="M82 582q0 229 94 425.5t280.5 321.5t426.5 125q291 0 460.5 -167t169.5 -435q0 -274 -128 -470t-361 -269v-7l408 -63l-66 -287h-127l-588 185q-283 88 -426 238.5t-143 402.5zM479 569q0 -326 252 -325q98 0 176 61.5t121 157.5t65.5 198.5t22.5 196.5 q0 141 -58.5 231.5t-187.5 90.5q-131 0 -224 -108.5t-130 -242t-37 -260.5z" />
<glyph unicode="R" horiz-adv-x="1341" d="M-2 0l330 1434h489q520 0 520 -412q0 -156 -88 -268.5t-241 -169.5l200 -492v-92h-360l-201 535h-133l-123 -535h-393zM567 780h140q123 0 187 62.5t64 177.5q0 145 -178 145h-123z" />
<glyph unicode="S" horiz-adv-x="1132" d="M-23 129l56 250h149q106 -125 301 -125q211 0 211 158q0 59 -47 88.5t-178 77.5q-158 55 -236.5 145t-78.5 242q0 236 152.5 362.5t410.5 126.5q274 0 457 -135l-58 -242h-145q-111 104 -275 105q-82 0 -133 -35t-51 -107q0 -59 42 -88.5t171 -77.5q176 -57 262 -147 t86 -242q0 -240 -160.5 -371.5t-439.5 -131.5q-320 0 -496 147z" />
<glyph unicode="T" horiz-adv-x="1210" d="M193 1161l63 273h1114l-61 -273h-361l-268 -1161h-393l268 1161h-362z" />
<glyph unicode="U" horiz-adv-x="1404" d="M125 594l192 840h394l-205 -889q-13 -56 -13 -101q0 -178 203 -178q115 0 178.5 59.5t94.5 196.5l211 912h325l-215 -932q-59 -256 -208.5 -387t-419.5 -131q-305 0 -457 153q-103 104 -103 278q0 82 23 179z" />
<glyph unicode="V" horiz-adv-x="1368" d="M225 1341v93h383l76 -988h4l520 988h316v-93l-746 -1341h-416z" />
<glyph unicode="W" horiz-adv-x="1937" d="M231 1341v93h377l-2 -945h4l424 945h312l6 -945h4l405 945h326v-93l-627 -1341h-411l2 842h-4l-377 -842h-412z" />
<glyph unicode="X" horiz-adv-x="1390" d="M-41 0v96l522 647l-225 594v97h381l166 -473l350 473h326v-97l-484 -606l242 -635v-96h-383l-182 514l-389 -514h-324z" />
<glyph unicode="Y" horiz-adv-x="1277" d="M215 1337v97h367l157 -549h6l388 549h309v-97l-594 -813l-121 -524h-393l127 553z" />
<glyph unicode="Z" horiz-adv-x="1183" d="M-61 0l65 285l805 868v8h-557l63 273h1012l-70 -295l-804 -863v-8h604l-60 -268h-1058z" />
<glyph unicode="[" horiz-adv-x="706" d="M-16 -100l374 1618h523l-56 -236h-188l-266 -1147h190l-55 -235h-522z" />
<glyph unicode="\" horiz-adv-x="770" d="M203 1446v72h266l186 -1547v-71h-268z" />
<glyph unicode="]" horiz-adv-x="706" d="M-88 -100l55 235h189l266 1147h-191l56 236h522l-375 -1618h-522z" />
<glyph unicode="^" horiz-adv-x="897" d="M135 924v77l373 433h266l195 -433v-77h-269l-104 225h-6l-199 -225h-256z" />
<glyph unicode="_" horiz-adv-x="782" d="M-197 -332l52 223h790l-53 -223h-789z" />
<glyph unicode="`" horiz-adv-x="819" d="M274 1352v88h332l80 -223v-68h-223z" />
<glyph unicode="a" horiz-adv-x="1101" d="M0 268q0 184 129 279.5t350 95.5q98 0 180 -22l7 22q10 40 9 71q0 122 -145 122q-141 0 -245 -58h-115l59 248q170 70 389 70q250 0 360 -113q74 -76 74 -206q0 -63 -18 -140l-147 -637h-146q-129 0 -163 111q-119 -125 -285 -125q-131 0 -212 74.5t-81 207.5zM348 303 q0 -102 98 -102q72 0 132 55l43 190q-51 14 -105 15q-82 0 -125 -43t-43 -115z" />
<glyph unicode="b" horiz-adv-x="1232" d="M-20 0l327 1434h219q82 0 108 -38q13 -19 12 -56q0 -39 -13 -99l-66 -289q137 143 322 144q133 0 219 -95.5t86 -289.5q0 -324 -153.5 -525.5t-411.5 -201.5q-199 0 -297 131q-86 -115 -205 -115h-147zM410 266q51 -51 135 -51q133 0 204.5 128t71.5 325q0 160 -129 159 q-72 0 -168 -61z" />
<glyph unicode="c" horiz-adv-x="1019" d="M47 428q0 297 192.5 482.5t483.5 185.5q209 0 334 -88l-53 -230h-132q-49 57 -151 58q-137 0 -222 -115t-85 -283q0 -205 186 -205q104 0 188 62h132l-56 -236q-117 -76 -311 -75q-252 0 -379 118.5t-127 325.5z" />
<glyph unicode="d" horiz-adv-x="1232" d="M41 377q0 299 158.5 508t402.5 209q170 0 262 -107l103 447h217q82 0 107 -38q13 -19 13 -56q0 -39 -14 -99l-284 -1241h-129q-162 0 -183 137q-121 -156 -309 -155q-152 0 -248 96t-96 299zM412 399q0 -172 139 -172q76 0 151 54v2l115 497q-55 47 -131 47 q-127 0 -200.5 -124t-73.5 -304z" />
<glyph unicode="e" horiz-adv-x="1105" d="M210 903.5q167 192.5 441 192.5q199 0 311 -104q110 -102 109 -291v-7q-4 -123 -37 -235h-633v-23q0 -111 48.5 -160t148.5 -49q135 0 254 68h117l-51 -227q-154 -84 -373 -84q-244 0 -374 113q-128 112 -128 326q0 288 167 480.5zM426 651h317q8 33 9 72q0 145 -123 145 q-144 0 -203 -217z" />
<glyph unicode="f" horiz-adv-x="720" d="M31 0l186 842h-117l54 237h116l15 64q37 166 139 240.5t274 74.5q121 0 199 -31l-45 -204h-55q-70 0 -102.5 -18.5t-45.5 -74.5l-12 -51h170l-53 -237h-170l-191 -842h-362z" />
<glyph unicode="g" horiz-adv-x="1224" d="M-33 -258l58 242h114q80 -76 238 -76q238 0 278 178l25 104q-123 -133 -309 -133q-139 0 -232.5 91.5t-93.5 271.5q0 285 158.5 480.5t404.5 195.5q178 0 287 -133q84 117 215 116h141l-231 -1005q-51 -227 -206 -323.5t-421 -96.5q-264 0 -426 88zM416 438 q0 -147 123 -147q90 0 180 67l100 439q-55 51 -133 51q-131 0 -200.5 -124t-69.5 -286z" />
<glyph unicode="h" horiz-adv-x="1220" d="M-20 0l327 1434h219q82 0 105.5 -35t-0.5 -158l-70 -299q182 154 383 154q133 0 199.5 -96.5t27.5 -270.5l-167 -729h-256q-59 0 -77 31.5t1 118.5l121 538q27 119 -78 119q-84 0 -199 -64l-168 -743h-368z" />
<glyph unicode="i" horiz-adv-x="573" d="M-16 0l247 1079h207q90 0 114 -38q12 -19 11 -59q0 -43 -12 -110l-199 -872h-368zM266 1305q0 80 58.5 133t142.5 53q80 0 130 -46t50 -116q0 -80 -59.5 -131t-143.5 -51q-78 0 -128 44t-50 114z" />
<glyph unicode="j" horiz-adv-x="571" d="M-246 -313l45 194h39q72 0 99.5 20.5t42.5 86.5l251 1091h207q90 0 114 -38q12 -19 11 -59q0 -43 -12 -110l-207 -903q-39 -172 -132 -243.5t-251 -71.5q-123 0 -207 33zM266 1305q0 80 58.5 133t142.5 53q80 0 130 -46t50 -116q0 -80 -59.5 -131t-143.5 -51 q-78 0 -128 44t-50 114z" />
<glyph unicode="k" horiz-adv-x="1150" d="M-20 0l327 1434h219q82 0 105.5 -35t-0.5 -158l-123 -541l371 379h317v-88l-389 -370l227 -533v-88h-346l-168 399l-104 -100l-68 -299h-368z" />
<glyph unicode="l" horiz-adv-x="575" d="M-18 0l327 1434h217q82 0 107.5 -38t-0.5 -155l-285 -1241h-366z" />
<glyph unicode="m" horiz-adv-x="1800" d="M-20 0l247 1079h146q88 0 129 -39t43 -120q187 176 373 176q88 0 147 -46t78 -132q195 178 393 178q131 0 194.5 -96.5t22.5 -270.5l-170 -729h-256q-59 0 -76.5 31.5t0.5 118.5l121 538q27 119 -65 119q-68 0 -168 -59l-4 -19l-170 -729h-365l156 688q25 119 -68 119 q-68 0 -168 -59l-172 -748h-368z" />
<glyph unicode="n" horiz-adv-x="1218" d="M-20 0l247 1079h148q166 0 168 -153q190 170 401 170q133 0 199.5 -96.5t27.5 -270.5l-167 -729h-256q-59 0 -77 31.5t1 118.5l121 538q27 119 -78 119q-84 0 -199 -64l-168 -743h-368z" />
<glyph unicode="o" horiz-adv-x="1200" d="M47 442q0 285 174 469.5t443 184.5q231 0 363 -125t132 -340q0 -287 -170 -466t-446 -179q-233 0 -364.5 121.5t-131.5 334.5zM406 418q0 -195 151 -195q111 0 175.5 128t64.5 296q0 199 -146 199q-109 0 -177 -132t-68 -296z" />
<glyph unicode="p" horiz-adv-x="1226" d="M-96 -332l323 1411h148q162 0 172 -145q147 162 332 162q141 0 228 -97.5t87 -298.5q0 -311 -152.5 -500.5t-406.5 -189.5q-166 0 -262 86l-99 -428h-370zM416 287q59 -45 135 -45q129 0 199.5 116.5t70.5 309.5q0 160 -129 159q-76 0 -166 -57v-4z" />
<glyph unicode="q" horiz-adv-x="1232" d="M41 379q0 305 163 510t412 205q178 0 281 -131q84 117 217 116h141l-323 -1411h-369l105 463q-115 -121 -293 -121q-141 0 -237.5 90.5t-96.5 278.5zM412 403q0 -160 127 -159q86 0 170 65l110 482q-55 43 -137 43q-123 0 -196.5 -128.5t-73.5 -302.5z" />
<glyph unicode="r" horiz-adv-x="847" d="M-20 0l247 1079h146q182 0 170 -188q147 197 319 196q25 0 62 -8l-68 -307h-39q-178 0 -311 -82l-158 -690h-368z" />
<glyph unicode="s" horiz-adv-x="933" d="M-43 88l51 225h127q76 -86 232 -86q145 0 145 84q0 33 -29.5 51.5t-115.5 47.5q-145 47 -213 113.5t-68 189.5q0 182 127 280.5t342 98.5q225 0 375 -97l-49 -213h-123q-82 74 -211 74q-131 0 -131 -82q0 -31 29.5 -50t115.5 -46q145 -43 218 -107.5t73 -189.5 q0 -186 -130 -290.5t-357 -104.5q-258 0 -408 102z" />
<glyph unicode="t" horiz-adv-x="751" d="M100 346l115 496h-111l54 237h110l64 275h368l-63 -275h180l-53 -237h-182l-113 -488q-7 -28 -7 -49q0 -33 15 -52q25 -32 101 -32h51l-47 -213q-88 -27 -191 -26q-180 0 -257 90q-49 58 -49 154q0 54 15 120z" />
<glyph unicode="u" horiz-adv-x="1214" d="M51 350l168 729h256q59 0 77 -31q8 -15 8 -45t-9 -75l-123 -547q-5 -25 -5 -45q0 -76 81 -76q82 0 184 59l174 760h367l-246 -1079h-133q-170 0 -184 152q-188 -170 -377 -170q-143 0 -212 95q-42 59 -42 148q-1 56 16 125z" />
<glyph unicode="v" horiz-adv-x="1124" d="M129 995v84h354l68 -665h4l330 665h307v-84l-555 -995h-367z" />
<glyph unicode="w" horiz-adv-x="1644" d="M133 993v86h352l25 -622h4l291 622h270l47 -622h4l275 622h297v-86l-494 -993h-323l-56 596h-4l-284 -596h-328z" />
<glyph unicode="x" horiz-adv-x="1142" d="M-59 0v86l401 483l-178 424v86h356l113 -309l239 309h302v-86l-365 -436l203 -471v-86h-357l-135 340l-268 -340h-311z" />
<glyph unicode="y" horiz-adv-x="1124" d="M41 -248l240 350l-152 893v84h350l80 -587h4l322 587h307v-84l-807 -1327h-344v84z" />
<glyph unicode="z" horiz-adv-x="1013" d="M-72 0l58 248l596 577h-439l60 254h878l-57 -254l-600 -575h457l-58 -250h-895z" />
<glyph unicode="{" horiz-adv-x="774" d="M61 610l56 236h45q113 0 139 112l66 281q33 145 111.5 212t234.5 67h235l-57 -236h-129q-51 0 -68 -61l-61 -277q-43 -180 -244 -223v-6q144 -36 144 -165q0 -32 -9 -71l-65 -282q-2 -11 -2 -20q0 -42 47 -42h123l-54 -235h-165q-166 0 -240 81q-50 55 -50 140 q0 40 11 88l66 283q5 20 4 37q0 28 -13 49q-20 33 -73 32h-52z" />
<glyph unicode="|" horiz-adv-x="552" d="M184 -100l2 1618h275v-1618h-277z" />
<glyph unicode="}" horiz-adv-x="774" d="M-88 -100l57 235h129q51 0 68 62l65 295q43 178 244 221v6q-178 47 -137 237l63 265q12 61 -45 61h-123l54 236h166q166 0 239.5 -81t38.5 -229l-61 -264q-27 -119 80 -119h53l-55 -235h-46q-115 0 -141 -113l-67 -299q-33 -145 -112 -211.5t-235 -66.5h-235z" />
<glyph unicode="~" horiz-adv-x="835" d="M41 530q29 109 99.5 174.5t168.5 65.5q59 0 144.5 -25.5t103.5 -25.5q55 0 78 57h188v-108q-31 -111 -100.5 -175.5t-167.5 -64.5q-55 0 -142 26.5t-108 26.5q-53 0 -76 -59h-188v108z" />
<glyph unicode="&#xa1;" horiz-adv-x="591" d="M-55 -141l51 215l266 772h234l-109 -772l-49 -215h-393zM236 1112q0 82 60 138.5t144 56.5q80 0 132.5 -52.5t52.5 -126.5q0 -82 -59.5 -138t-145.5 -56q-80 0 -132 52t-52 126z" />
<glyph unicode="&#xa2;" horiz-adv-x="1069" d="M47 434q0 281 184.5 463t462.5 197l29 125h182l-31 -132q135 -20 222 -79l-54 -230h-131q-33 37 -96 51l-137 -593q80 10 149 59h131l-55 -236q-102 -66 -289 -73l-43 -197h-184l47 205q-190 31 -288.5 146.5t-98.5 293.5zM414 446q0 -137 86 -186l129 555 q-102 -39 -158.5 -139.5t-56.5 -229.5z" />
<glyph unicode="&#xa3;" horiz-adv-x="1095" d="M-70 0l58 246q78 27 137 89t80 146q10 49 14 111h-149l55 239h88q-2 36 -2 70q0 92 16 162q45 188 195.5 288.5t384.5 100.5q264 0 405 -117l-57 -256h-147q-80 80 -205 80q-74 0 -131.5 -40t-75.5 -120q-14 -68 -18 -168h333l-55 -239h-291q-2 -29 -14 -86 q-31 -129 -129 -211h604l-68 -295h-1028z" />
<glyph unicode="&#xa5;" horiz-adv-x="1245" d="M55 309l45 193h336l23 96h-336l45 195h244l-183 544v97h363l139 -502h6l344 502h314v-97l-412 -544h246l-45 -195h-338l-23 -96h338l-45 -193h-338l-69 -309h-387l71 309h-338z" />
<glyph unicode="&#xa6;" horiz-adv-x="550" d="M184 -100v731h277v-731h-277zM184 799v719h277v-719h-277z" />
<glyph unicode="&#xa7;" horiz-adv-x="1130" d="M-10 -158l51 219h125q90 -94 246 -94q152 0 151 86q0 43 -41 73t-153 71q-170 57 -248 136t-78 199q0 238 272 316q-70 78 -69 205q0 178 135 288.5t362 110.5q223 0 383 -94l-49 -221h-131q-90 74 -211 73q-76 0 -119 -24.5t-43 -67.5t35 -69.5t142 -61.5 q190 -63 276 -140t86 -212q0 -109 -68.5 -194t-207.5 -124q76 -80 75 -192q0 -184 -132 -289.5t-371 -105.5q-248 -1 -418 112zM367 623q0 -41 33.5 -72t121.5 -64q59 -20 144 -57q117 35 116 121q0 47 -38.5 76.5t-133.5 64.5q-76 27 -127 49q-116 -26 -116 -118z" />
<glyph unicode="&#xa8;" horiz-adv-x="819" d="M211 1298q0 76 52 125.5t132 49.5q72 0 118 -43.5t46 -108.5q0 -78 -54 -126t-132 -48q-72 0 -117 42.5t-45 108.5zM631 1298q0 76 52 125.5t130 49.5q74 0 119 -43.5t45 -108.5q0 -78 -54.5 -126t-131.5 -48q-72 0 -116 41.5t-44 109.5z" />
<glyph unicode="&#xa9;" horiz-adv-x="1603" d="M104 717q0 340 216.5 536.5t525.5 196.5t525 -196.5t216 -536.5t-216 -536.5t-525 -196.5t-525.5 196.5t-216.5 536.5zM242 716.5q0 -284.5 173 -451.5t431 -167t431 167t173 451.5t-173 451.5t-431 167t-431 -167t-173 -451.5zM446 717q0 190 121 301.5t318 111.5 q145 0 256 -55v-194h-107q-53 49 -137 49q-78 0 -121 -54.5t-43 -160.5q0 -209 160 -209q90 0 151 53h99v-176q-111 -74 -273 -74q-201 0 -312.5 106.5t-111.5 301.5z" />
<glyph unicode="&#xaa;" horiz-adv-x="950" d="M109 756q0 160 112.5 237.5t302.5 77.5q76 0 164 -18l2 10q7 32 7 57q0 40 -18 63q-30 36 -110 36q-127 0 -217 -52h-100l51 222q150 61 348 61q215 0 312 -96q66 -66 65 -179q0 -53 -14 -116l-123 -531h-125q-127 0 -152 103q-96 -115 -256 -115q-117 0 -183 64.5 t-66 175.5zM420 788q0 -82 78 -81q57 0 120 49l35 145q-53 12 -96 12q-66 0 -101.5 -33t-35.5 -92z" />
<glyph unicode="&#xab;" horiz-adv-x="1093" d="M57 489l29 129l305 365h279v-74l-314 -381v-6l142 -366v-74h-275zM514 483l29 129l307 371h278v-74l-315 -387v-6l137 -360v-74h-276z" />
<glyph unicode="&#xad;" horiz-adv-x="602" d="M33 459l65 280h504l-65 -280h-504z" />
<glyph unicode="&#xae;" horiz-adv-x="790" d="M143 1083q0 168 111 267.5t268 99.5q154 0 266.5 -99.5t112.5 -267.5q0 -166 -112.5 -266t-266.5 -100q-156 0 -267.5 99t-111.5 267zM236 1083.5q0 -137.5 80.5 -212t205.5 -74.5t205 74.5t80 212t-80 212t-205 74.5t-205.5 -74.5t-80.5 -212zM367 903v375h168 q158 0 157 -127q0 -63 -53 -96l61 -113v-39h-118l-60 123h-28v-123h-127zM492 1106h30q45 0 45 47q0 45 -45 45h-30v-92z" />
<glyph unicode="&#xaf;" horiz-adv-x="819" d="M287 1186l53 221h555l-53 -221h-555z" />
<glyph unicode="&#xb0;" horiz-adv-x="720" d="M186 1143q0 137 95.5 220t226.5 83q127 0 213 -81t86 -206q0 -137 -95.5 -221t-226.5 -84q-127 0 -213 81t-86 208zM369 1143q0 -59 32.5 -96t90.5 -37q59 0 98 41t39 106q0 59 -35 96t-92 37q-59 0 -96 -39.5t-37 -107.5z" />
<glyph unicode="&#xb2;" horiz-adv-x="716" d="M74 631l47 203l250 178q150 102 149 168q0 61 -76 61q-72 0 -131 -47h-102l45 197q109 57 256 57q143 0 220 -58.5t77 -164.5q0 -92 -60.5 -164t-197.5 -158l-113 -72h289l-47 -200h-606z" />
<glyph unicode="&#xb3;" horiz-adv-x="706" d="M84 707l37 159h96q63 -63 148 -63q47 0 76.5 21.5t29.5 56.5q0 72 -96 71h-74l37 162h88q47 0 74.5 19.5t27.5 54.5q0 68 -94 67q-57 0 -123 -34h-96l39 174q102 53 242 53q137 0 216 -53.5t79 -161.5q0 -160 -193 -201v-4q137 -35 137 -166q0 -113 -95 -179.5 t-255 -66.5q-184 1 -301 91z" />
<glyph unicode="&#xb4;" horiz-adv-x="819" d="M451 1149v68l106 223h340v-88l-242 -203h-204z" />
<glyph unicode="&#xb6;" horiz-adv-x="1212" d="M152 963q0 170 89 279.5t220 150.5t301 41h547l-375 -1620h-234l322 1386h-131l-322 -1386h-233l184 800h-4q-160 0 -262 93.5t-102 255.5z" />
<glyph unicode="&#xb7;" horiz-adv-x="454" d="M49 596q0 82 60.5 137t144.5 55q80 0 132 -52t52 -126q0 -80 -60.5 -136t-146.5 -56q-80 0 -131 51t-51 127z" />
<glyph unicode="&#xb8;" horiz-adv-x="819" d="M49 -317l29 120h63q18 -27 66 -26q57 0 57 35q0 33 -55 32h-47l37 156h155l-12 -49q68 -6 101.5 -41t33.5 -90q0 -94 -69.5 -136t-174.5 -42q-114 0 -184 41z" />
<glyph unicode="&#xb9;" horiz-adv-x="569" d="M182 1118l47 205l250 111h209l-186 -803h-283l123 538l-111 -51h-49z" />
<glyph unicode="&#xba;" horiz-adv-x="1081" d="M150 905q0 240 154.5 392.5t385.5 152.5q195 0 319 -103.5t124 -287.5q0 -240 -157 -392.5t-388 -152.5q-199 0 -318.5 106.5t-119.5 284.5zM473 883q0 -154 129 -154q82 0 144.5 100.5t62.5 243.5q0 74 -33 117t-96 43q-82 0 -144.5 -99t-62.5 -251z" />
<glyph unicode="&#xbb;" horiz-adv-x="1093" d="M-25 82v74l316 387v6l-137 360v74h276l160 -401l-29 -129l-307 -371h-279zM434 82v74l314 381v6l-142 366v74h275l166 -408l-29 -129l-305 -364h-279z" />
<glyph unicode="&#xbc;" horiz-adv-x="1587" d="M49 -70l1288 1563h244l-1288 -1563h-244zM180 1118l47 205l248 111h211l-186 -803h-283l123 538l-113 -51h-47zM762 160l47 194l461 449h262l-109 -473h80l-39 -170h-80l-36 -160h-269l37 160h-354zM991 328h172l51 217h-4l-219 -213v-4z" />
<glyph unicode="&#xbd;" horiz-adv-x="1671" d="M47 -70l1288 1563h244l-1288 -1563h-244zM180 1118l47 205l248 111h211l-186 -803h-283l123 538l-113 -51h-47zM881 0l47 201l252 178q76 53 112.5 92t36.5 78q0 59 -78 59q-76 0 -131 -45h-102l45 195q109 57 256 57q143 0 221 -57.5t78 -163.5q0 -92 -62.5 -165 t-199.5 -157l-115 -71h293l-47 -201h-606z" />
<glyph unicode="&#xbe;" horiz-adv-x="1665" d="M90 707l37 159h96q57 -63 146 -63q47 0 74.5 21.5t27.5 56.5q0 72 -94 71h-72l39 162h84q100 0 100 74q0 68 -88 67q-61 0 -123 -34h-96l39 174q102 53 239.5 53t217.5 -53.5t80 -161.5q0 -160 -195 -201v-4q139 -35 139 -166q0 -113 -95 -179.5t-255 -66.5 q-188 1 -301 91zM147 -70l1289 1563h243l-1288 -1563h-244zM840 160l47 194l461 449h262l-109 -473h80l-39 -170h-80l-37 -160h-268l37 160h-354zM1069 328h172l51 217h-4l-219 -213v-4z" />
<glyph unicode="&#xbf;" horiz-adv-x="954" d="M-18 176q0 252 311 416q113 61 167 114.5t68 139.5h265q-6 -135 -50.5 -220t-158.5 -167q-16 -12 -58.5 -41t-63 -44.5t-47 -41t-37.5 -53t-11 -58.5q0 -102 133 -102q109 0 205 63h139l-60 -258q-150 -86 -370 -86q-197 0 -314.5 84t-117.5 254zM512 1112 q0 82 60.5 138.5t144.5 56.5q78 0 130 -51.5t52 -127.5q0 -82 -59.5 -138t-143.5 -56q-80 0 -132 52t-52 126z" />
<glyph unicode="&#xc0;" horiz-adv-x="1417" d="M-70 0v92l750 1342h434l164 -1342v-92h-387l-29 334h-454l-172 -334h-306zM545 600h295l-41 481h-4zM616 1671v86h332l74 -209v-67h-221z" />
<glyph unicode="&#xc1;" horiz-adv-x="1417" d="M-70 0v92l750 1342h434l164 -1342v-92h-387l-29 334h-454l-172 -334h-306zM545 600h295l-41 481h-4zM774 1481v67l103 209h337v-86l-235 -190h-205z" />
<glyph unicode="&#xc2;" horiz-adv-x="1417" d="M-70 0v92l750 1342h434l164 -1342v-92h-387l-29 334h-454l-172 -334h-306zM545 600h295l-41 481h-4zM582 1481v78l223 204h242l151 -204v-78h-203l-96 80l-131 -80h-186z" />
<glyph unicode="&#xc3;" horiz-adv-x="1417" d="M-70 0v92l750 1342h434l164 -1342v-92h-387l-29 334h-454l-172 -334h-306zM545 600h295l-41 481h-4zM555 1481v82q68 211 246 211q53 0 123.5 -25t89.5 -25q45 0 67 50h179v-82q-68 -211 -242 -211q-57 0 -127 26.5t-88 26.5q-51 0 -70 -53h-178z" />
<glyph unicode="&#xc4;" horiz-adv-x="1417" d="M-70 0v92l750 1342h434l164 -1342v-92h-387l-29 334h-454l-172 -334h-306zM545 600h295l-41 481h-4zM547 1630q0 76 52 125t130 49q74 0 119 -43t45 -108q0 -78 -54.5 -126t-131.5 -48q-72 0 -116 41.5t-44 109.5zM965 1630q0 76 53 125t131 49q72 0 118 -43t46 -108 q0 -78 -54.5 -126t-132.5 -48q-72 0 -116.5 42.5t-44.5 108.5z" />
<glyph unicode="&#xc5;" horiz-adv-x="1417" d="M-70 0v92l750 1342h434l164 -1342v-92h-387l-29 334h-454l-172 -334h-306zM545 600h295l-41 481h-4zM725 1675q0 98 68.5 160.5t160.5 62.5q88 0 148.5 -54t60.5 -144q0 -98 -67.5 -158.5t-161.5 -60.5q-90 0 -149.5 53t-59.5 141zM877 1679q0 -63 61 -63q35 0 55.5 22.5 t20.5 59.5q0 31 -18.5 48t-47.5 17q-33 0 -52 -22.5t-19 -61.5z" />
<glyph unicode="&#xc6;" horiz-adv-x="1949" d="M-90 0v92l936 1342h1208l-63 -275h-566l-71 -305h409l-59 -258h-410l-75 -330h608l-62 -266h-999l78 338h-408l-227 -338h-299zM614 602h289l129 557h-43z" />
<glyph unicode="&#xc7;" horiz-adv-x="1298" d="M82 565q0 172 57.5 330t163 283t271 199.5t368.5 74.5q260 0 424 -102l-59 -256h-150q-86 80 -233 80q-115 0 -204 -60.5t-138.5 -156t-74 -198t-24.5 -202.5q0 -305 281 -305q141 0 264 90h154l-62 -272q-164 -88 -397 -88q-10 0 -32.5 1t-35.5 1l-6 -33 q68 -6 101.5 -41t33.5 -90q0 -94 -69.5 -136t-173.5 -42q-115 0 -185 41l29 120h64q18 -27 65 -26q57 0 57 35q0 33 -55 32h-47l37 160q-199 47 -311.5 187.5t-112.5 373.5z" />
<glyph unicode="&#xc8;" horiz-adv-x="1185" d="M-2 0l330 1434h960l-61 -275h-570l-71 -305h413l-61 -258h-412l-75 -330h612l-62 -266h-1003zM532 1671v86h332l74 -209v-67h-221z" />
<glyph unicode="&#xc9;" horiz-adv-x="1185" d="M-2 0l330 1434h960l-61 -275h-570l-71 -305h413l-61 -258h-412l-75 -330h612l-62 -266h-1003zM690 1481v67l103 209h337v-86l-235 -190h-205z" />
<glyph unicode="&#xca;" horiz-adv-x="1185" d="M-2 0l330 1434h960l-61 -275h-570l-71 -305h413l-61 -258h-412l-75 -330h612l-62 -266h-1003zM502 1481v78l223 204h242l151 -204v-78h-203l-96 80l-131 -80h-186z" />
<glyph unicode="&#xcb;" horiz-adv-x="1185" d="M-2 0l330 1434h960l-61 -275h-570l-71 -305h413l-61 -258h-412l-75 -330h612l-62 -266h-1003zM463 1630q0 76 52 125t130 49q74 0 119 -43t45 -108q0 -78 -54.5 -126t-131.5 -48q-72 0 -116 41.5t-44 109.5zM881 1630q0 76 53 125t131 49q72 0 118 -43t46 -108 q0 -78 -54.5 -126t-132.5 -48q-72 0 -116.5 42.5t-44.5 108.5z" />
<glyph unicode="&#xcc;" horiz-adv-x="641" d="M4 0l330 1434h395l-330 -1434h-395zM260 1671v86h332l74 -209v-67h-222z" />
<glyph unicode="&#xcd;" horiz-adv-x="641" d="M4 0l330 1434h395l-330 -1434h-395zM418 1481v67l102 209h338v-86l-235 -190h-205z" />
<glyph unicode="&#xce;" horiz-adv-x="641" d="M4 0l330 1434h395l-330 -1434h-395zM229 1481v78l224 204h241l152 -204v-78h-203l-96 80l-131 -80h-187z" />
<glyph unicode="&#xcf;" horiz-adv-x="641" d="M4 0l330 1434h395l-330 -1434h-395zM190 1630q0 76 52.5 125t130.5 49q74 0 119 -43t45 -108q0 -78 -54.5 -126t-132.5 -48q-72 0 -116 41.5t-44 109.5zM608 1630q0 76 53.5 125t131.5 49q72 0 117.5 -43t45.5 -108q0 -78 -54 -126t-132 -48q-72 0 -117 42.5t-45 108.5z " />
<glyph unicode="&#xd0;" horiz-adv-x="1464" d="M0 0l135 590h-115l58 252h115l137 592h489q301 0 466 -152t165 -430q0 -231 -91 -420.5t-285.5 -310.5t-463.5 -121h-610zM453 264h161q117 0 205 54.5t137.5 143.5t72 188.5t22.5 205.5q0 305 -263 305h-129l-73 -319h256l-58 -252h-258z" />
<glyph unicode="&#xd1;" horiz-adv-x="1439" d="M-2 0l330 1434h422l262 -834h6l192 834h324l-330 -1434h-360l-301 944h-6l-218 -944h-321zM635 1481v82q68 211 246 211q53 0 123.5 -25t89.5 -25q45 0 67 50h178v-82q-68 -211 -241 -211q-57 0 -127 26.5t-88 26.5q-51 0 -70 -53h-178z" />
<glyph unicode="&#xd2;" d="M82 582q0 229 94 425.5t280.5 321.5t426.5 125q291 0 460.5 -168t169.5 -440q0 -166 -55 -319.5t-154.5 -275.5t-254 -195.5t-338.5 -73.5q-283 0 -456 162t-173 438zM479 569q0 -143 60.5 -231t187.5 -88q98 0 176 61.5t123 155.5t67.5 195.5t22.5 195.5 q0 141 -58.5 231.5t-187.5 90.5q-131 0 -224 -108.5t-130 -242t-37 -260.5zM643 1671v86h332l74 -209v-67h-222z" />
<glyph unicode="&#xd3;" d="M82 582q0 229 94 425.5t280.5 321.5t426.5 125q291 0 460.5 -168t169.5 -440q0 -166 -55 -319.5t-154.5 -275.5t-254 -195.5t-338.5 -73.5q-283 0 -456 162t-173 438zM479 569q0 -143 60.5 -231t187.5 -88q98 0 176 61.5t123 155.5t67.5 195.5t22.5 195.5 q0 141 -58.5 231.5t-187.5 90.5q-131 0 -224 -108.5t-130 -242t-37 -260.5zM801 1481v67l102 209h338v-86l-235 -190h-205z" />
<glyph unicode="&#xd4;" d="M82 582q0 229 94 425.5t280.5 321.5t426.5 125q291 0 460.5 -168t169.5 -440q0 -166 -55 -319.5t-154.5 -275.5t-254 -195.5t-338.5 -73.5q-283 0 -456 162t-173 438zM479 569q0 -143 60.5 -231t187.5 -88q98 0 176 61.5t123 155.5t67.5 195.5t22.5 195.5 q0 141 -58.5 231.5t-187.5 90.5q-131 0 -224 -108.5t-130 -242t-37 -260.5zM612 1481v78l224 204h241l152 -204v-78h-203l-96 80l-131 -80h-187z" />
<glyph unicode="&#xd5;" d="M82 582q0 229 94 425.5t280.5 321.5t426.5 125q291 0 460.5 -168t169.5 -440q0 -166 -55 -319.5t-154.5 -275.5t-254 -195.5t-338.5 -73.5q-283 0 -456 162t-173 438zM479 569q0 -143 60.5 -231t187.5 -88q98 0 176 61.5t123 155.5t67.5 195.5t22.5 195.5 q0 141 -58.5 231.5t-187.5 90.5q-131 0 -224 -108.5t-130 -242t-37 -260.5zM594 1481v82q68 211 246 211q53 0 123.5 -25t89.5 -25q45 0 67 50h178v-82q-68 -211 -241 -211q-57 0 -127 26.5t-88 26.5q-51 0 -70 -53h-178z" />
<glyph unicode="&#xd6;" d="M82 582q0 229 94 425.5t280.5 321.5t426.5 125q291 0 460.5 -168t169.5 -440q0 -166 -55 -319.5t-154.5 -275.5t-254 -195.5t-338.5 -73.5q-283 0 -456 162t-173 438zM479 569q0 -143 60.5 -231t187.5 -88q98 0 176 61.5t123 155.5t67.5 195.5t22.5 195.5 q0 141 -58.5 231.5t-187.5 90.5q-131 0 -224 -108.5t-130 -242t-37 -260.5zM573 1630q0 76 52.5 125t130.5 49q74 0 119 -43t45 -108q0 -78 -54.5 -126t-132.5 -48q-72 0 -116 41.5t-44 109.5zM991 1630q0 76 53.5 125t131.5 49q72 0 117.5 -43t45.5 -108q0 -78 -54 -126 t-132 -48q-72 0 -117 42.5t-45 108.5z" />
<glyph unicode="&#xd7;" horiz-adv-x="1079" d="M49 416l340 284l-223 287l225 184l219 -284l340 284l158 -194l-340 -285l221 -284l-221 -187l-221 285l-338 -285z" />
<glyph unicode="&#xd8;" d="M41 12l170 187q-129 162 -129 383q0 229 94 425.5t280.5 321.5t426.5 125q213 0 372 -104l103 112h196v-57l-163 -180q123 -162 122 -379q0 -223 -92 -418t-278.5 -320.5t-431.5 -125.5q-207 0 -361 96l-112 -123h-197v57zM469 571q0 -57 4 -84l571 629q-66 66 -174 66 q-100 0 -180 -62.5t-126 -159t-70.5 -198t-24.5 -191.5zM553 303q66 -59 178 -59q98 0 178 61.5t125 156.5t68.5 197.5t23.5 196.5q0 25 -4 74z" />
<glyph unicode="&#xd9;" horiz-adv-x="1404" d="M125 594l192 840h394l-205 -889q-13 -56 -13 -101q0 -178 203 -178q115 0 178.5 59.5t94.5 196.5l211 912h325l-215 -932q-59 -256 -208.5 -387t-419.5 -131q-305 0 -457 153q-103 104 -103 278q0 82 23 179zM662 1671v86h331l74 -209v-67h-221z" />
<glyph unicode="&#xda;" horiz-adv-x="1404" d="M125 594l192 840h394l-205 -889q-13 -56 -13 -101q0 -178 203 -178q115 0 178.5 59.5t94.5 196.5l211 912h325l-215 -932q-59 -256 -208.5 -387t-419.5 -131q-305 0 -457 153q-103 104 -103 278q0 82 23 179zM819 1481v67l103 209h338v-86l-236 -190h-205z" />
<glyph unicode="&#xdb;" horiz-adv-x="1404" d="M125 594l192 840h394l-205 -889q-13 -56 -13 -101q0 -178 203 -178q115 0 178.5 59.5t94.5 196.5l211 912h325l-215 -932q-59 -256 -208.5 -387t-419.5 -131q-305 0 -457 153q-103 104 -103 278q0 82 23 179zM631 1481v78l223 204h242l151 -204v-78h-203l-96 80l-131 -80 h-186z" />
<glyph unicode="&#xdc;" horiz-adv-x="1404" d="M125 594l192 840h394l-205 -889q-13 -56 -13 -101q0 -178 203 -178q115 0 178.5 59.5t94.5 196.5l211 912h325l-215 -932q-59 -256 -208.5 -387t-419.5 -131q-305 0 -457 153q-103 104 -103 278q0 82 23 179zM561 1630q0 76 52.5 125t129.5 49q74 0 119 -43t45 -108 q0 -78 -54 -126t-132 -48q-72 0 -116 41.5t-44 109.5zM979 1630q0 76 53 125t131 49q72 0 118 -43t46 -108q0 -78 -54 -126t-132 -48q-72 0 -117 42.5t-45 108.5z" />
<glyph unicode="&#xdd;" horiz-adv-x="1277" d="M215 1337v97h367l157 -549h6l388 549h309v-97l-594 -813l-121 -524h-393l127 553zM745 1481v67l103 209h338v-86l-236 -190h-205z" />
<glyph unicode="&#xde;" horiz-adv-x="1265" d="M-2 0l330 1434h393l-59 -250h90q516 0 516 -396q0 -250 -173 -382t-487 -132h-155l-62 -274h-393zM506 520h119q129 0 196.5 67.5t67.5 198.5q0 133 -178 134h-111z" />
<glyph unicode="&#xdf;" horiz-adv-x="1312" d="M-20 0l237 1036q94 420 602 420q215 0 342 -82t127 -217q0 -94 -45 -155.5t-147 -129.5q-129 -84 -150 -114q-10 -16 -10 -31q0 -23 20.5 -40t87.5 -56q106 -63 154.5 -130t48.5 -165q0 -162 -114.5 -256t-321.5 -94q-201 0 -328 84l49 219h119q47 -59 152 -60 q53 0 79.5 19.5t26.5 48.5q0 8 -1 14t-5 13.5t-7 11.5t-11 10t-12.5 10t-16.5 11.5t-18.5 10.5t-22.5 12t-24 13q-96 51 -140.5 108.5t-44.5 137.5q0 82 45 146.5t137 146.5q80 70 108 102.5t28 71.5q0 41 -34 65.5t-97 24.5q-96 0 -144.5 -48t-66.5 -134l-234 -1024h-368z " />
<glyph unicode="&#xe0;" horiz-adv-x="1101" d="M0 268q0 184 129 279.5t350 95.5q98 0 180 -22l7 22q10 40 9 71q0 122 -145 122q-141 0 -245 -58h-115l59 248q170 70 389 70q250 0 360 -113q74 -76 74 -206q0 -63 -18 -140l-147 -637h-146q-129 0 -163 111q-119 -125 -285 -125q-131 0 -212 74.5t-81 207.5zM348 303 q0 -102 98 -102q72 0 132 55l43 190q-51 14 -105 15q-82 0 -125 -43t-43 -115zM358 1352v88h332l80 -223v-68h-223z" />
<glyph unicode="&#xe1;" horiz-adv-x="1101" d="M0 268q0 184 129 279.5t350 95.5q98 0 180 -22l7 22q10 40 9 71q0 122 -145 122q-141 0 -245 -58h-115l59 248q170 70 389 70q250 0 360 -113q74 -76 74 -206q0 -63 -18 -140l-147 -637h-146q-129 0 -163 111q-119 -125 -285 -125q-131 0 -212 74.5t-81 207.5zM348 303 q0 -102 98 -102q72 0 132 55l43 190q-51 14 -105 15q-82 0 -125 -43t-43 -115zM535 1149v68l106 223h340v-88l-242 -203h-204z" />
<glyph unicode="&#xe2;" horiz-adv-x="1101" d="M0 268q0 184 129 279.5t350 95.5q98 0 180 -22l7 22q10 40 9 71q0 122 -145 122q-141 0 -245 -58h-115l59 248q170 70 389 70q250 0 360 -113q74 -76 74 -206q0 -63 -18 -140l-147 -637h-146q-129 0 -163 111q-119 -125 -285 -125q-131 0 -212 74.5t-81 207.5zM348 303 q0 -102 98 -102q72 0 132 55l43 190q-51 14 -105 15q-82 0 -125 -43t-43 -115zM350 1149v78l223 213h242l152 -213v-78h-203l-96 86l-131 -86h-187z" />
<glyph unicode="&#xe3;" horiz-adv-x="1101" d="M0 268q0 184 129 279.5t350 95.5q98 0 180 -22l7 22q10 40 9 71q0 122 -145 122q-141 0 -245 -58h-115l59 248q170 70 389 70q250 0 360 -113q74 -76 74 -206q0 -63 -18 -140l-147 -637h-146q-129 0 -163 111q-119 -125 -285 -125q-131 0 -212 74.5t-81 207.5zM332 1151 v82q66 213 243 213q55 0 126 -24.5t90 -24.5q45 0 67 49h178v-82q-68 -213 -243 -213q-57 0 -127 26.5t-88 26.5q-47 0 -70 -53h-176zM348 303q0 -102 98 -102q72 0 132 55l43 190q-51 14 -105 15q-82 0 -125 -43t-43 -115z" />
<glyph unicode="&#xe4;" horiz-adv-x="1101" d="M0 268q0 184 129 279.5t350 95.5q98 0 180 -22l7 22q10 40 9 71q0 122 -145 122q-141 0 -245 -58h-115l59 248q170 70 389 70q250 0 360 -113q74 -76 74 -206q0 -63 -18 -140l-147 -637h-146q-129 0 -163 111q-119 -125 -285 -125q-131 0 -212 74.5t-81 207.5zM303 1298 q0 76 52.5 125.5t131.5 49.5q72 0 118 -43.5t46 -108.5q0 -78 -54 -126t-132 -48q-72 0 -117 42.5t-45 108.5zM348 303q0 -102 98 -102q72 0 132 55l43 190q-51 14 -105 15q-82 0 -125 -43t-43 -115zM723 1298q0 76 52 125.5t130 49.5q74 0 119 -43.5t45 -108.5 q0 -78 -54 -126t-132 -48q-72 0 -116 41.5t-44 109.5z" />
<glyph unicode="&#xe5;" horiz-adv-x="1101" d="M0 268q0 184 129 279.5t350 95.5q98 0 180 -22l7 22q10 40 9 71q0 122 -145 122q-141 0 -245 -58h-115l59 248q170 70 389 70q250 0 360 -113q74 -76 74 -206q0 -63 -18 -140l-147 -637h-146q-129 0 -163 111q-119 -125 -285 -125q-131 0 -212 74.5t-81 207.5zM348 303 q0 -102 98 -102q72 0 132 55l43 190q-51 14 -105 15q-82 0 -125 -43t-43 -115zM477 1346q0 98 67.5 160.5t162.5 62.5q88 0 147 -54.5t59 -144.5q0 -98 -67.5 -158.5t-161.5 -60.5q-88 0 -147.5 53.5t-59.5 141.5zM627 1350q0 -63 63 -64q33 0 54.5 22.5t21.5 59.5 q0 66 -68 66q-33 0 -52 -22.5t-19 -61.5z" />
<glyph unicode="&#xe6;" horiz-adv-x="1695" d="M-4 272q0 182 130 278.5t351 96.5h187q8 35 7 64q0 125 -145 125q-137 0 -245 -58h-113l57 248q170 70 379 70q223 0 309 -111q150 111 338 111h8q191 0 297.5 -101.5t106.5 -292.5q0 -120 -37 -243h-633v-23q0 -111 47 -160t150 -49q137 0 252 68h119l-52 -223 q-164 -88 -372 -88q-297 0 -422 172q-145 -170 -398 -170q-152 0 -236.5 73.5t-84.5 212.5zM344 303q0 -102 102 -102q111 0 201 104q-12 59 -12 127v27h-119q-84 0 -128 -42t-44 -114zM1018 649h317q8 45 8 74q0 145 -114 145q-76 0 -130 -58.5t-81 -160.5z" />
<glyph unicode="&#xe7;" horiz-adv-x="1019" d="M47 428q0 297 192.5 482.5t483.5 185.5q209 0 334 -88l-53 -230h-132q-49 57 -151 58q-137 0 -222 -115t-85 -283q0 -205 186 -205q104 0 188 62h132l-56 -236q-117 -76 -311 -75h-35l-8 -33q68 -6 101.5 -41t33.5 -90q0 -94 -69.5 -136t-174.5 -42q-115 0 -184 41 l29 120h63q18 -27 66 -26q57 0 57 35q0 33 -55 32h-47l37 160q-160 39 -240 148.5t-80 275.5z" />
<glyph unicode="&#xe8;" horiz-adv-x="1105" d="M210 903.5q167 192.5 441 192.5q199 0 311 -104q110 -102 109 -291v-7q-4 -123 -37 -235h-633v-23q0 -111 48.5 -160t148.5 -49q135 0 254 68h117l-51 -227q-154 -84 -373 -84q-244 0 -374 113q-128 112 -128 326q0 288 167 480.5zM365 1352v88h331l80 -223v-68h-223z M426 651h317q8 33 9 72q0 145 -123 145q-144 0 -203 -217z" />
<glyph unicode="&#xe9;" horiz-adv-x="1105" d="M210 903.5q167 192.5 441 192.5q199 0 311 -104q110 -102 109 -291v-7q-4 -123 -37 -235h-633v-23q0 -111 48.5 -160t148.5 -49q135 0 254 68h117l-51 -227q-154 -84 -373 -84q-244 0 -374 113q-128 112 -128 326q0 288 167 480.5zM426 651h317q8 33 9 72q0 145 -123 145 q-144 0 -203 -217zM541 1149v68l106 223h340v-88l-242 -203h-204z" />
<glyph unicode="&#xea;" horiz-adv-x="1105" d="M210 903.5q167 192.5 441 192.5q199 0 311 -104q110 -102 109 -291v-7q-4 -123 -37 -235h-633v-23q0 -111 48.5 -160t148.5 -49q135 0 254 68h117l-51 -227q-154 -84 -373 -84q-244 0 -374 113q-128 112 -128 326q0 288 167 480.5zM360 1149v78l224 213h241l152 -213v-78 h-203l-96 86l-131 -86h-187zM426 651h317q8 33 9 72q0 145 -123 145q-144 0 -203 -217z" />
<glyph unicode="&#xeb;" horiz-adv-x="1105" d="M210 903.5q167 192.5 441 192.5q199 0 311 -104q110 -102 109 -291v-7q-4 -123 -37 -235h-633v-23q0 -111 48.5 -160t148.5 -49q135 0 254 68h117l-51 -227q-154 -84 -373 -84q-244 0 -374 113q-128 112 -128 326q0 288 167 480.5zM309 1298q0 76 52.5 125.5t132.5 49.5 q72 0 117.5 -43.5t45.5 -108.5q0 -78 -54 -126t-132 -48q-72 0 -117 42.5t-45 108.5zM426 651h317q8 33 9 72q0 145 -123 145q-144 0 -203 -217zM729 1298q0 76 52.5 125.5t129.5 49.5q74 0 119 -43.5t45 -108.5q0 -78 -54 -126t-132 -48q-72 0 -116 41.5t-44 109.5z" />
<glyph unicode="&#xec;" horiz-adv-x="573" d="M-16 0l247 1079h207q90 0 114 -38q12 -19 11 -59q0 -43 -12 -110l-199 -872h-368zM115 1352v88h331l80 -223v-68h-223z" />
<glyph unicode="&#xed;" horiz-adv-x="573" d="M-16 0l247 1079h207q90 0 114 -38q12 -19 11 -59q0 -43 -12 -110l-199 -872h-368zM293 1149v68l106 223h340v-88l-241 -203h-205z" />
<glyph unicode="&#xee;" horiz-adv-x="573" d="M-16 0l247 1079h207q90 0 114 -38q12 -19 11 -59q0 -43 -12 -110l-199 -872h-368zM109 1149v78l223 213h241l152 -213v-78h-203l-96 86l-131 -86h-186z" />
<glyph unicode="&#xef;" horiz-adv-x="573" d="M-16 0l247 1079h207q90 0 114 -38q12 -19 11 -59q0 -43 -12 -110l-199 -872h-368zM61 1298q0 76 52.5 125.5t132.5 49.5q72 0 118 -43.5t46 -108.5q0 -78 -54.5 -126t-132.5 -48q-72 0 -117 42.5t-45 108.5zM481 1298q0 76 52.5 125.5t130.5 49.5q74 0 118.5 -43.5 t44.5 -108.5q0 -78 -54 -126t-132 -48q-72 0 -116 41.5t-44 109.5z" />
<glyph unicode="&#xf0;" horiz-adv-x="1212" d="M47 440q0 256 149.5 423t348.5 167q154 0 233 -92q-35 96 -133 172l-53 -41h-197v57l92 70q-45 18 -96 31l49 207h144q96 -27 149 -50l62 48h194v-56l-100 -78q283 -203 282 -589q0 -342 -170 -532.5t-452 -190.5q-236 0 -369 121.5t-133 332.5zM406 410q0 -188 151 -189 q111 0 175.5 124t64.5 278q0 88 -41 135t-113 47q-111 0 -174 -118.5t-63 -276.5z" />
<glyph unicode="&#xf1;" horiz-adv-x="1218" d="M-20 0l247 1079h148q166 0 168 -153q190 170 401 170q133 0 200 -97q42 -61 42 -152q0 -54 -15 -118l-167 -729h-256q-59 0 -77 32q-8 15 -9 43q0 30 10 75l121 538q5 24 5 43q0 75 -83 76q-84 0 -199 -64l-168 -743h-368zM403 1151v82q66 213 244 213q55 0 126 -24.5 t89 -24.5q45 0 68 49h178v-82q-68 -213 -244 -213q-57 0 -126.5 26.5t-88.5 26.5q-47 0 -69 -53h-177z" />
<glyph unicode="&#xf2;" horiz-adv-x="1200" d="M47 442q0 285 174 469.5t443 184.5q231 0 363 -125t132 -340q0 -287 -170 -466t-446 -179q-233 0 -364.5 121.5t-131.5 334.5zM401 1352v88h332l80 -223v-68h-223zM406 418q0 -195 151 -195q111 0 175.5 128t64.5 296q0 199 -146 199q-109 0 -177 -132t-68 -296z" />
<glyph unicode="&#xf3;" horiz-adv-x="1200" d="M47 442q0 285 174 469.5t443 184.5q231 0 363 -125t132 -340q0 -287 -170 -466t-446 -179q-233 0 -364.5 121.5t-131.5 334.5zM406 418q0 -195 151 -195q111 0 175.5 128t64.5 296q0 199 -146 199q-109 0 -177 -132t-68 -296zM580 1149v68l106 223h340v-88l-242 -203 h-204z" />
<glyph unicode="&#xf4;" horiz-adv-x="1200" d="M47 442q0 285 174 469.5t443 184.5q231 0 363 -125t132 -340q0 -287 -170 -466t-446 -179q-233 0 -364.5 121.5t-131.5 334.5zM395 1149v78l223 213h242l152 -213v-78h-203l-96 86l-131 -86h-187zM406 418q0 -195 151 -195q111 0 175.5 128t64.5 296q0 199 -146 199 q-109 0 -177 -132t-68 -296z" />
<glyph unicode="&#xf5;" horiz-adv-x="1200" d="M47 442q0 285 174 469.5t443 184.5q231 0 363 -125t132 -340q0 -287 -170 -466t-446 -179q-233 0 -364.5 121.5t-131.5 334.5zM377 1151v82q66 213 244 213q55 0 125.5 -24.5t89.5 -24.5q45 0 67 49h178v-82q-68 -213 -243 -213q-57 0 -127 26.5t-88 26.5q-47 0 -70 -53 h-176zM406 418q0 -195 151 -195q111 0 175.5 128t64.5 296q0 199 -146 199q-109 0 -177 -132t-68 -296z" />
<glyph unicode="&#xf6;" horiz-adv-x="1200" d="M47 442q0 285 174 469.5t443 184.5q231 0 363 -125t132 -340q0 -287 -170 -466t-446 -179q-233 0 -364.5 121.5t-131.5 334.5zM348 1298q0 76 52.5 125.5t131.5 49.5q72 0 118 -43.5t46 -108.5q0 -78 -54 -126t-132 -48q-72 0 -117 42.5t-45 108.5zM406 418 q0 -195 151 -195q111 0 175.5 128t64.5 296q0 199 -146 199q-109 0 -177 -132t-68 -296zM768 1298q0 76 52 125.5t130 49.5q74 0 119 -43.5t45 -108.5q0 -78 -54 -126t-132 -48q-72 0 -116 41.5t-44 109.5z" />
<glyph unicode="&#xf7;" horiz-adv-x="1069" d="M45 565l66 285h995l-66 -285h-995zM315 305q0 82 58.5 137.5t142.5 55.5q78 0 130 -51.5t52 -124.5q0 -82 -60 -137.5t-142 -55.5q-78 0 -129.5 50t-51.5 126zM451 1094q0 80 59 136t141 56q80 0 132.5 -51t52.5 -125q0 -80 -60.5 -136t-144.5 -56q-78 0 -129 51t-51 125 z" />
<glyph unicode="&#xf8;" horiz-adv-x="1200" d="M18 0l127 141q-98 113 -98 301q0 285 174 469.5t443 184.5q166 0 280 -66l76 86h166v-53l-121 -135q94 -117 94 -297q0 -287 -170 -466t-446 -179q-160 0 -273 57l-86 -96h-166v53zM391 416l363 403q-39 33 -99 33q-117 0 -190.5 -133t-73.5 -295v-8zM453 246 q37 -29 102 -29q117 0 186.5 129t69.5 293v6z" />
<glyph unicode="&#xf9;" horiz-adv-x="1214" d="M51 350l168 729h256q59 0 77 -31q8 -15 8 -45t-9 -75l-123 -547q-5 -25 -5 -45q0 -76 81 -76q82 0 184 59l174 760h367l-246 -1079h-133q-170 0 -184 152q-188 -170 -377 -170q-143 0 -212 95q-42 59 -42 148q-1 56 16 125zM432 1352v88h332l80 -223v-68h-223z" />
<glyph unicode="&#xfa;" horiz-adv-x="1214" d="M51 350l168 729h256q59 0 77 -31q8 -15 8 -45t-9 -75l-123 -547q-5 -25 -5 -45q0 -76 81 -76q82 0 184 59l174 760h367l-246 -1079h-133q-170 0 -184 152q-188 -170 -377 -170q-143 0 -212 95q-42 59 -42 148q-1 56 16 125zM610 1149v68l107 223h340v-88l-242 -203h-205z " />
<glyph unicode="&#xfb;" horiz-adv-x="1214" d="M51 350l168 729h256q59 0 77 -31q8 -15 8 -45t-9 -75l-123 -547q-5 -25 -5 -45q0 -76 81 -76q82 0 184 59l174 760h367l-246 -1079h-133q-170 0 -184 152q-188 -170 -377 -170q-143 0 -212 95q-42 59 -42 148q-1 56 16 125zM420 1149v78l223 213h242l151 -213v-78h-202 l-97 86l-131 -86h-186z" />
<glyph unicode="&#xfc;" horiz-adv-x="1214" d="M51 350l168 729h256q59 0 77 -31q8 -15 8 -45t-9 -75l-123 -547q-5 -25 -5 -45q0 -76 81 -76q82 0 184 59l174 760h367l-246 -1079h-133q-170 0 -184 152q-188 -170 -377 -170q-143 0 -212 95q-42 59 -42 148q-1 56 16 125zM373 1298q0 76 52 125.5t132 49.5 q72 0 118 -43.5t46 -108.5q0 -78 -54.5 -126t-131.5 -48q-72 0 -117 42.5t-45 108.5zM793 1298q0 76 52 125.5t130 49.5q74 0 119 -43.5t45 -108.5q0 -78 -54.5 -126t-132.5 -48q-72 0 -115.5 41.5t-43.5 109.5z" />
<glyph unicode="&#xfd;" horiz-adv-x="1124" d="M41 -248l240 350l-152 893v84h350l80 -587h4l322 587h307v-84l-807 -1327h-344v84zM567 1149v68l107 223h340v-88l-242 -203h-205z" />
<glyph unicode="&#xfe;" horiz-adv-x="1226" d="M-96 -332l403 1766h219q82 0 108 -38q13 -19 12 -56q0 -39 -13 -99l-66 -289q137 143 328 144q129 0 214 -97.5t85 -296.5q0 -315 -152.5 -507.5t-408.5 -192.5q-172 0 -262 94l-97 -428h-370zM414 285q55 -47 137 -47q129 0 199.5 118.5t70.5 311.5q0 160 -129 159 q-78 0 -168 -61z" />
<glyph unicode="&#xff;" horiz-adv-x="1124" d="M41 -248l240 350l-152 893v84h350l80 -587h4l322 587h307v-84l-807 -1327h-344v84zM324 1298q0 76 52 125.5t132 49.5q72 0 118 -43.5t46 -108.5q0 -78 -54.5 -126t-132.5 -48q-72 0 -116.5 42.5t-44.5 108.5zM743 1298q0 76 52.5 125.5t130.5 49.5q74 0 119 -43.5 t45 -108.5q0 -78 -54.5 -126t-132.5 -48q-72 0 -116 41.5t-44 109.5z" />
<glyph unicode="&#x152;" horiz-adv-x="2000" d="M82 571q0 170 53 323t154.5 274.5t262.5 193.5t361 72h1190l-63 -275h-567l-72 -305h411l-59 -258h-412l-75 -330h612l-61 -266h-1088q-647 0 -647 571zM481 567q0 -147 59.5 -223t219.5 -76h112l207 897h-164q-117 0 -204.5 -55t-136 -145.5t-71 -191t-22.5 -206.5z" />
<glyph unicode="&#x153;" horiz-adv-x="1841" d="M47 442q0 285 174 469.5t443 184.5q242 0 350 -164q152 164 385 164h7q189 0 294.5 -101.5t105.5 -292.5q0 -116 -34 -243h-635v-23q0 -111 48 -160t148 -49q139 0 254 68h117l-51 -223q-164 -88 -367 -88q-262 0 -371 155q-150 -154 -372 -153q-233 0 -364.5 121.5 t-131.5 334.5zM406 418q0 -195 151 -195q111 0 175.5 128t64.5 296q0 199 -146 199q-109 0 -177 -132t-68 -296zM1163 651h316q8 33 8 72q0 145 -113 145q-152 0 -211 -217z" />
<glyph unicode="&#x178;" horiz-adv-x="1277" d="M215 1337v97h367l157 -549h6l388 549h309v-97l-594 -813l-121 -524h-393l127 553zM518 1630q0 76 52.5 125t129.5 49q74 0 119 -43t45 -108q0 -78 -54 -126t-132 -48q-72 0 -116 41.5t-44 109.5zM936 1630q0 76 53 125t131 49q72 0 118 -43t46 -108q0 -78 -54 -126 t-132 -48q-72 0 -117 42.5t-45 108.5z" />
<glyph unicode="&#x2c6;" horiz-adv-x="819" d="M266 1149v78l223 213h242l152 -213v-78h-203l-96 86l-131 -86h-187z" />
<glyph unicode="&#x2dc;" horiz-adv-x="819" d="M227 1151v82q66 213 244 213q55 0 126 -24.5t89 -24.5q45 0 68 49h178v-82q-68 -213 -244 -213q-57 0 -126.5 26.5t-88.5 26.5q-47 0 -70 -53h-176z" />
<glyph unicode="&#x2013;" horiz-adv-x="919" d="M59 442l64 271h758l-64 -271h-758z" />
<glyph unicode="&#x2014;" horiz-adv-x="1536" d="M59 442l64 271h1374l-63 -271h-1375z" />
<glyph unicode="&#x2018;" horiz-adv-x="430" d="M152 1059q0 174 120.5 274.5t333.5 108.5l-35 -152q-152 -16 -151 -76q0 -10 4 -17t9 -11t16.5 -12.5t17.5 -14.5q53 -35 53 -108q0 -76 -53 -126.5t-131 -50.5q-80 0 -132 50.5t-52 134.5z" />
<glyph unicode="&#x2019;" horiz-adv-x="430" d="M113 883l32 151q154 16 154 76q0 6 -2 11t-4 9.5t-7 8.5l-10 7q-4 3 -12 8l-14 9q-53 39 -53 111q0 76 54 126t132 50q80 0 131 -50t51 -134q0 -174 -119.5 -274.5t-332.5 -108.5z" />
<glyph unicode="&#x201a;" horiz-adv-x="430" d="M-129 -207l35 152q152 12 151 75q0 6 -2 11.5t-4 9.5t-7 8l-9 7l-12 9l-15 9q-53 39 -53 110q0 76 54 126t132 50q80 0 131.5 -50t51.5 -134q0 -174 -120 -274.5t-333 -108.5z" />
<glyph unicode="&#x201c;" horiz-adv-x="884" d="M152 1059q0 174 120.5 274.5t333.5 108.5l-35 -152q-152 -16 -151 -76q0 -10 4 -17t9 -11t16.5 -12.5t17.5 -14.5q53 -35 53 -108q0 -76 -53 -126.5t-131 -50.5q-80 0 -132 50.5t-52 134.5zM592 1059q0 174 119.5 274.5t332.5 108.5l-34 -152q-150 -16 -150 -76 q0 -10 4 -17t9.5 -11l16.5 -12.5t17 -14.5q53 -35 54 -108q0 -76 -53.5 -126.5t-131.5 -50.5q-80 0 -132 50.5t-52 134.5z" />
<glyph unicode="&#x201d;" horiz-adv-x="870" d="M113 883l34 151q152 16 152 76q0 6 -2 11t-4 9.5t-7 8.5l-10 7q-4 3 -12 8l-14 9q-53 39 -53 111q0 76 54 126t132 50q80 0 131 -50t51 -134q0 -174 -119.5 -274.5t-332.5 -108.5zM553 883l35 151q150 16 149 76q0 6 -2 11t-4 8.5t-7 8.5l-8 8q-3 3 -12.5 8t-13.5 9 q-53 39 -53 111q0 76 54 126t130 50q80 0 132.5 -50t52.5 -134q0 -174 -120 -274.5t-333 -108.5z" />
<glyph unicode="&#x201e;" horiz-adv-x="870" d="M-129 -207l35 152q152 12 151 75q0 6 -2 11.5t-4 9.5t-7 8l-9 7l-12 9l-15 9q-53 39 -53 110q0 76 54 126t132 50q80 0 131.5 -50t51.5 -134q0 -174 -120 -274.5t-333 -108.5zM311 -207l35 152q150 12 150 75q0 6 -2 11.5t-4.5 8.5t-7.5 8l-8 8q-3 3 -12 8.5t-13 9.5 q-53 39 -54 110q0 76 54.5 126t130.5 50q80 0 132 -50t52 -134q0 -174 -120 -274.5t-333 -108.5z" />
<glyph unicode="&#x2022;" horiz-adv-x="706" d="M55 549q0 145 95.5 234t232.5 89q121 0 203 -74.5t82 -199.5q0 -147 -93.5 -234.5t-234.5 -87.5q-123 0 -204 74t-81 199z" />
<glyph unicode="&#x2026;" horiz-adv-x="1445" d="M-45 168q0 80 57.5 135t139.5 55q78 0 133 -53t55 -129q0 -80 -57.5 -135t-139.5 -55q-80 0 -134 52t-54 130zM453 168q0 80 56 135t140 55q78 0 133.5 -53t55.5 -129q0 -80 -57.5 -135t-139.5 -55q-80 0 -134 52t-54 130zM950 168q0 80 56.5 135t140.5 55q78 0 133 -53 t55 -129q0 -80 -57 -135t-139 -55q-80 0 -134.5 52t-54.5 130z" />
<glyph unicode="&#x2039;" horiz-adv-x="636" d="M57 483l29 129l307 371h279v-74l-316 -389v-6l138 -358v-74h-277z" />
<glyph unicode="&#x203a;" horiz-adv-x="636" d="M-25 82v74l316 391v4l-137 358v74h276l160 -401l-29 -129l-307 -371h-279z" />
<glyph unicode="&#x20ac;" horiz-adv-x="1263" d="M35 477l43 191h98q8 66 17 96h-93l45 190h107q96 225 286.5 361.5t460.5 136.5q242 0 387 -94l-57 -250h-151q-74 66 -195 66q-217 0 -332 -220h357l-68 -190h-356q-12 -70 -17 -96h334l-67 -191h-277q6 -119 62.5 -171t168.5 -52q139 0 252 84h140l-60 -264 q-154 -92 -377 -92q-250 0 -407.5 124.5t-169.5 370.5h-131z" />
<glyph unicode="&#x2122;" horiz-adv-x="1454" d="M233 1290l35 144h516l-34 -144h-160l-98 -430h-199l100 430h-160zM727 860l133 574h277l16 -285h2l148 285h290l-133 -574h-194l92 395h-2l-211 -395h-135l-25 395h-2l-92 -395h-164z" />
<glyph unicode="&#xe000;" horiz-adv-x="1080" d="M0 1080h1080v-1080h-1080v1080z" />
<glyph unicode="&#xfb01;" horiz-adv-x="1265" d="M31 0l186 842h-117l54 237h116l15 64q37 166 139 240.5t274 74.5q106 0 187 -26l-45 -209h-43q-70 0 -102.5 -18.5t-45.5 -74.5l-12 -51h170l-53 -237h-170l-191 -842h-362zM674 0l248 1079h206q92 0 116 -38q11 -18 11 -56q0 -43 -14 -113l-199 -872h-368zM969 1305 q0 80 57 133t143 53q80 0 130.5 -46t50.5 -116q0 -80 -59.5 -131t-143.5 -51q-80 0 -129 44t-49 114z" />
<glyph unicode="&#xfb02;" horiz-adv-x="1269" d="M31 0l186 842h-117l54 237h116l15 64q37 166 139 240.5t274 74.5q113 0 185 -28l-45 -207h-41q-70 0 -102.5 -18.5t-45.5 -71.5l-12 -54h170l-53 -237h-170l-191 -842h-362zM674 0l330 1434h217q82 0 107 -38q13 -19 13 -56q0 -39 -14 -99l-285 -1241h-368z" />
<glyph unicode="&#xfb03;" horiz-adv-x="2015" d="M31 0l186 842h-117l54 237h116l15 64q37 166 139 240.5t274 74.5q121 0 199 -31l-45 -204h-55q-70 0 -102.5 -18.5t-45.5 -74.5l-12 -51h170l-53 -237h-170l-191 -842h-362zM752 0l186 842h-117l53 237h117l15 64q37 166 139 240.5t274 74.5q121 0 199 -31l-45 -204h-55 q-70 0 -103 -18.5t-45 -74.5l-12 -51h170l-53 -237h-170l-191 -842h-362zM1425 0l248 1079h207q90 0 114 -38q12 -19 11 -59q0 -43 -12 -110l-199 -872h-369zM1708 1305q0 80 58.5 133t142.5 53q80 0 130 -46t50 -116q0 -80 -59.5 -131t-143.5 -51q-78 0 -128 44t-50 114z " />
<glyph unicode="&#xfb04;" horiz-adv-x="2017" d="M31 0l186 842h-117l54 237h116l15 64q37 166 139 240.5t274 74.5q121 0 199 -31l-45 -204h-55q-70 0 -102.5 -18.5t-45.5 -74.5l-12 -51h170l-53 -237h-170l-191 -842h-362zM752 0l186 842h-117l53 237h117l15 64q37 166 139 240.5t274 74.5q121 0 199 -31l-45 -204h-55 q-70 0 -103 -18.5t-45 -74.5l-12 -51h170l-53 -237h-170l-191 -842h-362zM1423 0l328 1434h217q82 0 108 -38q13 -19 12 -56q0 -39 -13 -99l-285 -1241h-367z" />
</font>
</defs>
</svg>
